<svg width="842" height="183" viewBox="0 0 842 183" fill="none" xmlns="http://www.w3.org/2000/svg">
<g filter="url(#filter0_d_110_100)">
<path d="M39.65 149L38.4181 151.175L38.4293 151.182L39.65 149ZM19.85 129.5L17.6972 130.771L19.85 129.5ZM39.65 54.05L40.8619 56.2366L40.8707 56.2317L39.65 54.05ZM94.7 54.05L93.4681 56.2254L93.4781 56.2311L93.4881 56.2366L94.7 54.05ZM114.35 73.4L112.186 74.6516L112.191 74.6613L112.197 74.6709L114.35 73.4ZM114.35 129.5L112.197 128.229L112.191 128.239L112.186 128.248L114.35 129.5ZM94.55 149L93.3293 146.818L93.3181 146.825L94.55 149ZM82.55 118.7L84.4481 120.327L84.4576 120.316L84.4669 120.305L82.55 118.7ZM82.55 84.2L80.6331 85.8048L80.6424 85.816L80.6519 85.827L82.55 84.2ZM51.8 84.2L53.6981 85.827L53.7076 85.816L53.7169 85.8048L51.8 84.2ZM51.8 118.7L49.8831 120.305L49.8924 120.316L49.9019 120.327L51.8 118.7ZM67.25 153.55C57.6601 153.55 48.8829 151.301 40.8707 146.818L38.4293 151.182C47.2171 156.099 56.8399 158.55 67.25 158.55V153.55ZM40.8819 146.825C32.9669 142.343 26.6828 136.156 22.0028 128.229L17.6972 130.771C22.8172 139.444 29.7331 146.257 38.4181 151.175L40.8819 146.825ZM22.0028 128.229C17.348 120.344 15 111.439 15 101.45H10C10 112.261 12.552 122.056 17.6972 130.771L22.0028 128.229ZM15 101.45C15 91.4605 17.348 82.5557 22.0028 74.6709L17.6972 72.129C12.552 80.8443 10 90.6395 10 101.45H15ZM22.0028 74.6709C26.6801 66.7482 32.9579 60.6172 40.8619 56.2366L38.4381 51.8634C29.7421 56.6828 22.8199 63.4518 17.6972 72.129L22.0028 74.6709ZM40.8707 56.2317C48.8829 51.7487 57.6601 49.5 67.25 49.5V44.5C56.8399 44.5 47.2171 46.9513 38.4293 51.8683L40.8707 56.2317ZM67.25 49.5C76.84 49.5 85.5623 51.7486 93.4681 56.2254L95.9319 51.8746C87.2377 46.9514 77.66 44.5 67.25 44.5V49.5ZM93.4881 56.2366C101.388 60.6146 107.61 66.7395 112.186 74.6516L116.514 72.1484C111.49 63.4605 104.612 56.6854 95.9119 51.8634L93.4881 56.2366ZM112.197 74.6709C116.852 82.5557 119.2 91.4605 119.2 101.45H124.2C124.2 90.6395 121.648 80.8443 116.503 72.129L112.197 74.6709ZM119.2 101.45C119.2 111.439 116.852 120.344 112.197 128.229L116.503 130.771C121.648 122.056 124.2 112.261 124.2 101.45H119.2ZM112.186 128.248C107.612 136.158 101.338 142.337 93.3293 146.818L95.7707 151.182C104.562 146.263 111.488 139.442 116.514 130.752L112.186 128.248ZM93.3181 146.825C85.4084 151.304 76.7353 153.55 67.25 153.55V158.55C77.5647 158.55 87.0916 156.096 95.7819 151.175L93.3181 146.825ZM67.25 127.5C74.4248 127.5 80.2808 125.189 84.4481 120.327L80.6519 117.073C77.6192 120.611 73.2752 122.5 67.25 122.5V127.5ZM84.4669 120.305C88.5399 115.44 90.45 109.067 90.45 101.45H85.45C85.45 108.233 83.7601 113.36 80.6331 117.095L84.4669 120.305ZM90.45 101.45C90.45 93.7466 88.5462 87.354 84.4481 82.573L80.6519 85.827C83.7538 89.4459 85.45 94.5534 85.45 101.45H90.45ZM84.4669 82.5952C80.306 77.6252 74.4448 75.25 67.25 75.25V80.25C73.2552 80.25 77.594 82.1748 80.6331 85.8048L84.4669 82.5952ZM67.25 75.25C59.9691 75.25 54.0515 77.6162 49.8831 82.5952L53.7169 85.8048C56.7485 82.1838 61.1309 80.25 67.25 80.25V75.25ZM49.9019 82.573C45.8038 87.354 43.9 93.7466 43.9 101.45H48.9C48.9 94.5534 50.5962 89.4459 53.6981 85.827L49.9019 82.573ZM43.9 101.45C43.9 109.067 45.8101 115.44 49.8831 120.305L53.7169 117.095C50.5899 113.36 48.9 108.233 48.9 101.45H43.9ZM49.9019 120.327C54.0766 125.198 59.9889 127.5 67.25 127.5V122.5C61.1111 122.5 56.7234 120.602 53.6981 117.073L49.9019 120.327ZM170.013 48.8H172.513V46.3H170.013V48.8ZM173.163 120.35L171.138 121.816L171.167 121.856L171.197 121.895L173.163 120.35ZM194.313 120.35L196.245 121.937L196.258 121.92L196.272 121.903L194.313 120.35ZM197.763 48.8V46.3H195.263V48.8H197.763ZM230.913 48.8H233.413V46.3H230.913V48.8ZM224.613 134.6L226.765 135.873L226.768 135.866L226.772 135.86L224.613 134.6ZM207.363 150.65L208.469 152.892L207.363 150.65ZM158.913 150.65L157.756 152.866L157.763 152.87L157.77 152.873L158.913 150.65ZM142.713 134.6L140.522 135.804L142.713 134.6ZM136.863 48.8V46.3H134.363V48.8H136.863ZM167.513 48.8V108.65H172.513V48.8H167.513ZM167.513 108.65C167.513 113.886 168.634 118.358 171.138 121.816L175.188 118.884C173.492 116.542 172.513 113.214 172.513 108.65H167.513ZM171.197 121.895C174.023 125.492 178.382 127.05 183.663 127.05V122.05C179.344 122.05 176.702 120.808 175.129 118.805L171.197 121.895ZM183.663 127.05C188.951 127.05 193.326 125.49 196.245 121.937L192.381 118.763C190.699 120.81 187.975 122.05 183.663 122.05V127.05ZM196.272 121.903C199.021 118.437 200.263 113.931 200.263 108.65H195.263C195.263 113.169 194.205 116.463 192.354 118.797L196.272 121.903ZM200.263 108.65V48.8H195.263V108.65H200.263ZM197.763 51.3H230.913V46.3H197.763V51.3ZM228.413 48.8V108.65H233.413V48.8H228.413ZM228.413 108.65C228.413 118.401 226.388 126.596 222.453 133.34L226.772 135.86C231.238 128.204 233.413 119.099 233.413 108.65H228.413ZM222.461 133.327C218.505 140.015 213.116 145.026 206.257 148.408L208.469 152.892C216.21 149.074 222.321 143.385 226.765 135.873L222.461 133.327ZM206.257 148.408C199.336 151.821 191.57 153.55 182.913 153.55V158.55C192.255 158.55 200.79 156.679 208.469 152.892L206.257 148.408ZM182.913 153.55C174.253 153.55 166.655 151.82 160.056 148.427L157.77 152.873C165.171 156.68 173.573 158.55 182.913 158.55V153.55ZM160.069 148.434C153.625 145.071 148.577 140.083 144.904 133.396L140.522 135.804C144.649 143.317 150.401 149.029 157.756 152.866L160.069 148.434ZM144.904 133.396C141.253 126.749 139.363 118.536 139.363 108.65H134.363C134.363 119.164 136.373 128.251 140.522 135.804L144.904 133.396ZM139.363 108.65V48.8H134.363V108.65H139.363ZM136.863 51.3H170.013V46.3H136.863V51.3ZM302.425 155L300.211 156.16L300.912 157.5H302.425V155ZM282.475 116.9L284.69 115.74L283.988 114.4H282.475V116.9ZM282.325 116.9V114.4H279.825V116.9H282.325ZM282.325 155V157.5H284.825V155H282.325ZM249.025 155H246.525V157.5H249.025V155ZM249.025 48.8V46.3H246.525V48.8H249.025ZM320.575 53.45L319.443 55.6787L319.457 55.6861L319.472 55.6934L320.575 53.45ZM334.225 65.9L332.05 67.1315L332.064 67.156L332.078 67.1802L334.225 65.9ZM332.875 102.5L330.854 101.03L330.845 101.042L330.836 101.054L332.875 102.5ZM315.925 114.35L315.154 111.972L312.236 112.918L313.752 115.585L315.925 114.35ZM339.025 155V157.5H343.322L341.199 153.765L339.025 155ZM282.325 94.7H279.825V97.2H282.325V94.7ZM302.725 92.6L304.372 94.4814L304.404 94.4532L304.435 94.4238L302.725 92.6ZM302.575 79.1L300.808 80.8678L300.834 80.8945L300.862 80.9205L302.575 79.1ZM282.325 76.7V74.2H279.825V76.7H282.325ZM304.64 153.84L284.69 115.74L280.261 118.06L300.211 156.16L304.64 153.84ZM282.475 114.4H282.325V119.4H282.475V114.4ZM279.825 116.9V155H284.825V116.9H279.825ZM282.325 152.5H249.025V157.5H282.325V152.5ZM251.525 155V48.8H246.525V155H251.525ZM249.025 51.3H298.525V46.3H249.025V51.3ZM298.525 51.3C306.83 51.3 313.772 52.797 319.443 55.6787L321.708 51.2213C315.179 47.903 307.42 46.3 298.525 46.3V51.3ZM319.472 55.6934C325.176 58.4983 329.326 62.3189 332.05 67.1315L336.401 64.6685C333.125 58.8811 328.175 54.4016 321.679 51.2066L319.472 55.6934ZM332.078 67.1802C334.927 71.9585 336.375 77.4087 336.375 83.6H341.375C341.375 76.5913 339.724 70.2415 336.373 64.6198L332.078 67.1802ZM336.375 83.6C336.375 90.1964 334.529 95.9765 330.854 101.03L334.897 103.97C339.222 98.0235 341.375 91.2036 341.375 83.6H336.375ZM330.836 101.054C327.294 106.049 322.124 109.711 315.154 111.972L316.697 116.728C324.527 114.189 330.657 109.951 334.915 103.946L330.836 101.054ZM313.752 115.585L336.852 156.235L341.199 153.765L318.099 113.115L313.752 115.585ZM339.025 152.5H302.425V157.5H339.025V152.5ZM282.325 97.2H295.525V92.2H282.325V97.2ZM295.525 97.2C299.035 97.2 302.134 96.4395 304.372 94.4814L301.079 90.7186C300.117 91.5605 298.416 92.2 295.525 92.2V97.2ZM304.435 94.4238C306.719 92.2831 307.625 89.1991 307.625 85.7H302.625C302.625 88.4009 301.932 89.9169 301.016 90.7762L304.435 94.4238ZM307.625 85.7C307.625 82.3592 306.59 79.4449 304.289 77.2795L300.862 80.9205C301.961 81.9551 302.625 83.4408 302.625 85.7H307.625ZM304.343 77.3322C302.123 75.1116 299.037 74.2 295.525 74.2V79.2C298.213 79.2 299.828 79.8884 300.808 80.8678L304.343 77.3322ZM295.525 74.2H282.325V79.2H295.525V74.2ZM279.825 76.7V94.7H284.825V76.7H279.825Z" fill="#E6D5B8"/>
</g>
<g filter="url(#filter1_d_110_100)">
<path d="M465.9 48.8V75.2H437.7V155H404.4V75.2H376.5V48.8H465.9ZM511.982 75.35V88.4H544.982V113.45H511.982V128.45H549.482V155H478.682V48.8H549.482V75.35H511.982ZM633.881 138.95H598.481L593.231 155H558.281L597.131 48.8H635.531L674.231 155H639.131L633.881 138.95ZM625.781 113.9L616.181 84.35L606.581 113.9H625.781ZM813.197 48.8V155H780.047V102.05L763.697 155H735.197L718.847 102.05V155H685.547V48.8H726.347L749.747 112.55L772.547 48.8H813.197Z" fill="#E6D5B8"/>
</g>
<path d="M293.408 23V6.56L292.808 3.56L293.408 1.76H301.208C302.728 1.76 304.038 1.94 305.138 2.3C306.258 2.64 307.128 3.2 307.748 3.98C308.368 4.76 308.678 5.8 308.678 7.1C308.678 7.9 308.538 8.66 308.258 9.38C307.998 10.08 307.548 10.67 306.908 11.15C308.168 11.59 309.128 12.25 309.788 13.13C310.448 14.01 310.778 15.18 310.778 16.64C310.778 18.86 310.158 20.48 308.918 21.5C307.678 22.5 305.808 23 303.308 23H293.408ZM297.608 10.31H301.748C303.428 10.31 304.268 9.57 304.268 8.09C304.268 7.35 304.098 6.76 303.758 6.32C303.418 5.88 302.748 5.66 301.748 5.66H297.608V10.31ZM297.608 19.1H303.008C304.068 19.1 304.838 18.86 305.318 18.38C305.818 17.9 306.068 17.23 306.068 16.37C306.068 15.55 305.798 14.93 305.258 14.51C304.738 14.09 303.888 13.88 302.708 13.88H297.608V19.1ZM320.384 23.3C319.084 23.3 317.924 23.07 316.904 22.61C315.884 22.15 315.084 21.38 314.504 20.3C313.924 19.22 313.634 17.76 313.634 15.92C313.634 14.14 313.944 12.71 314.564 11.63C315.184 10.55 316.004 9.77 317.024 9.29C318.044 8.79 319.164 8.54 320.384 8.54C321.724 8.54 322.774 8.69 323.534 8.99C324.314 9.29 324.904 9.58 325.304 9.86L326.804 14.63L326.204 16.49H317.804C317.924 17.55 318.304 18.4 318.944 19.04C319.584 19.68 320.564 20 321.884 20C322.964 20 323.834 19.87 324.494 19.61C325.174 19.35 325.644 19.15 325.904 19.01V22.13C325.304 22.45 324.534 22.73 323.594 22.97C322.674 23.19 321.604 23.3 320.384 23.3ZM317.774 14.57L322.274 13.97L321.824 11.75C321.684 11.67 321.484 11.61 321.224 11.57C320.984 11.53 320.764 11.51 320.564 11.51C319.664 11.51 318.974 11.83 318.494 12.47C318.014 13.09 317.774 13.79 317.774 14.57ZM329.901 23V6.56L329.301 3.56L329.901 1.76H334.101V6.62L333.801 9.95L334.101 10.1C334.341 9.74 334.781 9.39 335.421 9.05C336.081 8.69 336.941 8.51 338.001 8.51C339.801 8.51 341.151 9.02 342.051 10.04C342.951 11.06 343.401 12.49 343.401 14.33V18.23L344.031 21.17L343.401 23H339.201V14.21C339.201 13.45 338.931 12.87 338.391 12.47C337.871 12.05 337.261 11.84 336.561 11.84L334.101 12.71V23H329.901ZM349.775 7.34L346.565 4.13L349.775 0.919998L352.955 4.13L349.775 7.34ZM347.675 23V13.07L347.045 10.67L347.645 8.84H351.845V23H347.675ZM355.925 23V13.97L355.325 10.67L356.255 8.84H359.525V10.13L359.795 10.31C360.015 10.11 360.315 9.88 360.695 9.62C361.095 9.34 361.575 9.09 362.135 8.87C362.695 8.65 363.325 8.54 364.025 8.54C365.825 8.54 367.175 9.05 368.075 10.07C368.975 11.09 369.425 12.52 369.425 14.36V18.17L370.055 21.17L369.425 23H365.225V14.24C365.225 13.48 365.055 12.9 364.715 12.5C364.395 12.08 363.885 11.87 363.185 11.87L360.125 12.44V23H355.925ZM378.496 23.3C377.556 23.3 376.646 23.06 375.766 22.58C374.906 22.1 374.196 21.34 373.636 20.3C373.076 19.26 372.796 17.9 372.796 16.22C372.796 14.36 373.096 12.87 373.696 11.75C374.296 10.63 375.056 9.82 375.976 9.32C376.916 8.8 377.856 8.54 378.796 8.54C379.796 8.54 380.576 8.63 381.136 8.81C381.696 8.97 382.116 9.12 382.396 9.26L382.096 3.59L382.396 1.79H386.626V18.2L387.226 21.2L386.626 23.03H382.696V21.56L382.396 21.41C382.396 21.41 382.246 21.57 381.946 21.89C381.646 22.19 381.206 22.5 380.626 22.82C380.046 23.14 379.336 23.3 378.496 23.3ZM380.146 19.97L382.396 19.55V13.37C382.396 12.91 382.206 12.55 381.826 12.29C381.446 12.01 380.886 11.87 380.146 11.87C379.386 11.87 378.796 12.06 378.376 12.44C377.976 12.8 377.696 13.29 377.536 13.91C377.376 14.51 377.296 15.18 377.296 15.92C377.296 17.02 377.516 17.97 377.956 18.77C378.396 19.57 379.126 19.97 380.146 19.97ZM404.77 23V5.6L398.17 5.9V1.76H415.72V5.9L408.97 5.6V18.2L409.3 21.2L408.97 23H404.77ZM417.692 23V6.56L417.092 3.56L417.692 1.76H421.892V6.62L421.592 9.95L421.892 10.1C422.132 9.74 422.572 9.39 423.212 9.05C423.872 8.69 424.732 8.51 425.792 8.51C427.592 8.51 428.942 9.02 429.842 10.04C430.742 11.06 431.192 12.49 431.192 14.33V18.23L431.822 21.17L431.192 23H426.992V14.21C426.992 13.45 426.722 12.87 426.182 12.47C425.662 12.05 425.052 11.84 424.352 11.84L421.892 12.71V23H417.692ZM441.316 23.3C440.016 23.3 438.856 23.07 437.836 22.61C436.816 22.15 436.016 21.38 435.436 20.3C434.856 19.22 434.566 17.76 434.566 15.92C434.566 14.14 434.876 12.71 435.496 11.63C436.116 10.55 436.936 9.77 437.956 9.29C438.976 8.79 440.096 8.54 441.316 8.54C442.656 8.54 443.706 8.69 444.466 8.99C445.246 9.29 445.836 9.58 446.236 9.86L447.736 14.63L447.136 16.49H438.736C438.856 17.55 439.236 18.4 439.876 19.04C440.516 19.68 441.496 20 442.816 20C443.896 20 444.766 19.87 445.426 19.61C446.106 19.35 446.576 19.15 446.836 19.01V22.13C446.236 22.45 445.466 22.73 444.526 22.97C443.606 23.19 442.536 23.3 441.316 23.3ZM438.706 14.57L443.206 13.97L442.756 11.75C442.616 11.67 442.416 11.61 442.156 11.57C441.916 11.53 441.696 11.51 441.496 11.51C440.596 11.51 439.906 11.83 439.426 12.47C438.946 13.09 438.706 13.79 438.706 14.57ZM465.089 23.3C463.549 23.3 462.239 23.1 461.159 22.7C460.079 22.28 459.269 21.84 458.729 21.38V17.24C459.429 17.64 460.359 18.06 461.519 18.5C462.699 18.94 463.999 19.16 465.419 19.16C466.339 19.16 467.019 18.98 467.459 18.62C467.919 18.26 468.149 17.77 468.149 17.15C468.149 16.59 467.969 16.13 467.609 15.77C467.249 15.41 466.709 15.08 465.989 14.78C465.269 14.48 464.349 14.13 463.229 13.73C461.629 13.15 460.389 12.4 459.509 11.48C458.629 10.56 458.189 9.32 458.189 7.76C458.189 6.66 458.429 5.63 458.909 4.67C459.409 3.71 460.179 2.94 461.219 2.36C462.279 1.76 463.629 1.46 465.269 1.46C465.909 1.46 466.539 1.49 467.159 1.55C467.799 1.59 468.339 1.65 468.779 1.73L472.169 4.22L470.669 7.28L465.179 5.33C464.459 5.33 463.859 5.51 463.379 5.87C462.919 6.21 462.689 6.7 462.689 7.34C462.689 8.14 463.019 8.75 463.679 9.17C464.359 9.59 465.309 10 466.529 10.4C468.849 11.16 470.479 12.08 471.419 13.16C472.359 14.22 472.829 15.47 472.829 16.91C472.829 18.07 472.589 19.14 472.109 20.12C471.629 21.08 470.819 21.85 469.679 22.43C468.559 23.01 467.029 23.3 465.089 23.3ZM481.879 23.3C480.659 23.3 479.559 23.07 478.579 22.61C477.599 22.13 476.829 21.35 476.269 20.27C475.709 19.19 475.429 17.74 475.429 15.92C475.429 14.06 475.739 12.6 476.359 11.54C476.999 10.46 477.849 9.69 478.909 9.23C479.989 8.77 481.179 8.54 482.479 8.54C483.399 8.54 484.079 8.58 484.519 8.66C484.979 8.72 485.369 8.79 485.689 8.87L488.029 11.51L486.229 13.88L483.079 11.84C482.079 11.84 481.299 12.19 480.739 12.89C480.179 13.59 479.899 14.6 479.899 15.92C479.899 17.32 480.199 18.35 480.799 19.01C481.399 19.67 482.259 20 483.379 20C484.119 20 484.779 19.92 485.359 19.76C485.959 19.58 486.459 19.39 486.859 19.19C487.259 18.97 487.539 18.81 487.699 18.71V22.13C487.199 22.39 486.469 22.65 485.509 22.91C484.569 23.17 483.359 23.3 481.879 23.3ZM497.636 23.3C496.336 23.3 495.176 23.07 494.156 22.61C493.136 22.15 492.336 21.38 491.756 20.3C491.176 19.22 490.886 17.76 490.886 15.92C490.886 14.14 491.196 12.71 491.816 11.63C492.436 10.55 493.256 9.77 494.276 9.29C495.296 8.79 496.416 8.54 497.636 8.54C498.976 8.54 500.026 8.69 500.786 8.99C501.566 9.29 502.156 9.58 502.556 9.86L504.056 14.63L503.456 16.49H495.056C495.176 17.55 495.556 18.4 496.196 19.04C496.836 19.68 497.816 20 499.136 20C500.216 20 501.086 19.87 501.746 19.61C502.426 19.35 502.896 19.15 503.156 19.01V22.13C502.556 22.45 501.786 22.73 500.846 22.97C499.926 23.19 498.856 23.3 497.636 23.3ZM495.026 14.57L499.526 13.97L499.076 11.75C498.936 11.67 498.736 11.61 498.476 11.57C498.236 11.53 498.016 11.51 497.816 11.51C496.916 11.51 496.226 11.83 495.746 12.47C495.266 13.09 495.026 13.79 495.026 14.57ZM507.273 23V13.97L506.673 10.67L507.603 8.84H510.873V10.13L511.143 10.31C511.363 10.11 511.663 9.88 512.043 9.62C512.443 9.34 512.923 9.09 513.483 8.87C514.043 8.65 514.673 8.54 515.373 8.54C517.173 8.54 518.523 9.05 519.423 10.07C520.323 11.09 520.773 12.52 520.773 14.36V18.17L521.403 21.17L520.773 23H516.573V14.24C516.573 13.48 516.403 12.9 516.063 12.5C515.743 12.08 515.233 11.87 514.533 11.87L511.473 12.44V23H507.273ZM530.894 23.3C529.594 23.3 528.434 23.07 527.414 22.61C526.394 22.15 525.594 21.38 525.014 20.3C524.434 19.22 524.144 17.76 524.144 15.92C524.144 14.14 524.454 12.71 525.074 11.63C525.694 10.55 526.514 9.77 527.534 9.29C528.554 8.79 529.674 8.54 530.894 8.54C532.234 8.54 533.284 8.69 534.044 8.99C534.824 9.29 535.414 9.58 535.814 9.86L537.314 14.63L536.714 16.49H528.314C528.434 17.55 528.814 18.4 529.454 19.04C530.094 19.68 531.074 20 532.394 20C533.474 20 534.344 19.87 535.004 19.61C535.684 19.35 536.154 19.15 536.414 19.01V22.13C535.814 22.45 535.044 22.73 534.104 22.97C533.184 23.19 532.114 23.3 530.894 23.3ZM528.284 14.57L532.784 13.97L532.334 11.75C532.194 11.67 531.994 11.61 531.734 11.57C531.494 11.53 531.274 11.51 531.074 11.51C530.174 11.51 529.484 11.83 529.004 12.47C528.524 13.09 528.284 13.79 528.284 14.57Z" fill="#FFF3DE"/>
<path d="M828.789 12L823.015 6.2265L817.242 12L823.015 17.7735L828.789 12ZM553.008 13H823.015V11H553.008V13Z" fill="#E6D5B8"/>
<path d="M0.226898 12L6.0004 6.2265L11.7739 12L6.0004 17.7735L0.226898 12ZM276.008 13H6.0004V11H276.008V13Z" fill="#E6D5B8"/>
<defs>
<filter id="filter0_d_110_100" x="2.5" y="37" width="346.525" height="129.05" filterUnits="userSpaceOnUse" color-interpolation-filters="sRGB">
<feFlood flood-opacity="0" result="BackgroundImageFix"/>
<feColorMatrix in="SourceAlpha" type="matrix" values="0 0 0 0 0 0 0 0 0 0 0 0 0 0 0 0 0 0 127 0" result="hardAlpha"/>
<feOffset/>
<feGaussianBlur stdDeviation="5"/>
<feComposite in2="hardAlpha" operator="out"/>
<feColorMatrix type="matrix" values="0 0 0 0 0.901961 0 0 0 0 0.835294 0 0 0 0 0.721569 0 0 0 1 0"/>
<feBlend mode="normal" in2="BackgroundImageFix" result="effect1_dropShadow_110_100"/>
<feBlend mode="normal" in="SourceGraphic" in2="effect1_dropShadow_110_100" result="shape"/>
</filter>
<filter id="filter1_d_110_100" x="348.5" y="20.8" width="492.697" height="162.2" filterUnits="userSpaceOnUse" color-interpolation-filters="sRGB">
<feFlood flood-opacity="0" result="BackgroundImageFix"/>
<feColorMatrix in="SourceAlpha" type="matrix" values="0 0 0 0 0 0 0 0 0 0 0 0 0 0 0 0 0 0 127 0" result="hardAlpha"/>
<feOffset/>
<feGaussianBlur stdDeviation="14"/>
<feComposite in2="hardAlpha" operator="out"/>
<feColorMatrix type="matrix" values="0 0 0 0 0.901961 0 0 0 0 0.835294 0 0 0 0 0.721569 0 0 0 0.48 0"/>
<feBlend mode="normal" in2="BackgroundImageFix" result="effect1_dropShadow_110_100"/>
<feBlend mode="normal" in="SourceGraphic" in2="effect1_dropShadow_110_100" result="shape"/>
</filter>
</defs>
</svg>
