<svg width="286" height="85" viewBox="0 0 286 85" fill="none" xmlns="http://www.w3.org/2000/svg">
<path d="M6.77105 21.985L4.99981 20.9683L4.99534 20.9776L4.99096 20.9869L6.77105 21.985ZM19.093 7.94463L20.0829 9.84686L20.0912 9.84171L20.0994 9.83648L19.093 7.94463ZM54.443 6.72854L53.5686 8.69742L53.5836 8.70537L53.5986 8.71304L54.443 6.72854ZM66.361 17.4523L64.7336 18.7247L64.7396 18.7341L64.7458 18.7432L66.361 17.4523ZM72.522 33.7037V35.8929H74.9108L74.4909 33.3189L72.522 33.7037ZM48.888 33.7037L47.0691 34.6139L47.6032 35.8929H48.888V33.7037ZM44.242 27.7338L43.1065 29.5359L43.1388 29.5604L43.1719 29.5832L44.242 27.7338ZM28.486 30.166L26.9134 28.8135L26.9042 28.8263L26.8952 28.8392L28.486 30.166ZM28.486 55.1512L26.8952 56.478L26.9042 56.4909L26.9134 56.5037L28.486 55.1512ZM44.242 57.694L45.3381 59.5251L45.3448 59.5203L45.3514 59.5155L44.242 57.694ZM48.888 51.6135V49.4243H47.6032L47.0691 50.7033L48.888 51.6135ZM72.522 51.6135L74.4909 51.9983L74.9108 49.4243H72.522V51.6135ZM66.361 67.8649L64.7458 66.574L64.7396 66.5832L64.7336 66.5925L66.361 67.8649ZM54.443 78.6992L55.297 80.6788L55.3077 80.6732L54.443 78.6992ZM19.093 77.4831L18.0866 79.375L18.0948 79.3802L18.1031 79.3853L19.093 77.4831ZM6.77105 63.3322L4.99096 64.3303L4.99534 64.3396L4.99981 64.3489L6.77105 63.3322ZM4.52905 42.6586C4.52905 35.2181 5.88671 28.677 8.55113 22.9829L4.99096 20.9869C1.99938 27.3803 0.529053 34.6215 0.529053 42.6586H4.52905ZM8.54229 23.0017C11.2634 17.3217 15.1025 12.9522 20.0829 9.84686L18.1031 6.0424C12.4449 9.57033 8.06937 14.561 4.99981 20.9683L8.54229 23.0017ZM20.0994 9.83648C25.0646 6.67187 30.9671 5.04834 37.879 5.04834V0.669958C30.3816 0.669958 23.7601 2.43674 18.0866 6.05279L20.0994 9.83648ZM37.879 5.04834C43.816 5.04834 49.031 6.283 53.5686 8.69742L55.3174 4.75965C50.159 2.01489 44.3314 0.669958 37.879 0.669958V5.04834ZM53.5986 8.71304C58.2143 11.0661 61.9123 14.4013 64.7336 18.7247L67.9885 16.1798C64.7497 11.2167 60.5024 7.40271 55.2874 4.74404L53.5986 8.71304ZM64.7458 18.7432C67.6475 23.0933 69.5915 28.1939 70.5532 34.0886L74.4909 33.3189C73.4325 26.8315 71.2692 21.0978 67.9763 16.1613L64.7458 18.7432ZM72.522 31.5145H48.888V35.8929H72.522V31.5145ZM50.707 32.7936C49.4825 29.8617 47.6871 27.5308 45.3121 25.8844L43.1719 29.5832C44.8369 30.7375 46.1388 32.3865 47.0691 34.6139L50.707 32.7936ZM45.3775 25.9317C43.0643 24.1855 40.4057 23.3335 37.475 23.3335V27.7119C39.6616 27.7119 41.5144 28.3341 43.1065 29.5359L45.3775 25.9317ZM37.475 23.3335C33.1251 23.3335 29.5353 25.1607 26.9134 28.8135L30.0587 31.5185C31.8807 28.9802 34.2836 27.7119 37.475 27.7119V23.3335ZM26.8952 28.8392C24.3968 32.4285 23.254 37.1102 23.254 42.6586H27.254C27.254 37.7411 28.2659 34.0944 30.0769 31.4928L26.8952 28.8392ZM23.254 42.6586C23.254 48.207 24.3968 52.8886 26.8952 56.478L30.0769 53.8245C28.2659 51.2227 27.254 47.5761 27.254 42.6586H23.254ZM26.9134 56.5037C29.5353 60.1565 33.1251 61.9837 37.475 61.9837V57.6053C34.2836 57.6053 31.8807 56.337 30.0587 53.7987L26.9134 56.5037ZM37.475 61.9837C40.3842 61.9837 43.0286 61.1813 45.3381 59.5251L43.146 55.8628C41.5501 57.0072 39.6832 57.6053 37.475 57.6053V61.9837ZM45.3514 59.5155C47.7017 57.8004 49.4859 55.4473 50.707 52.5236L47.0691 50.7033C46.1354 52.9388 44.8223 54.6394 43.1326 55.8724L45.3514 59.5155ZM48.888 53.8027H72.522V49.4243H48.888V53.8027ZM70.5532 51.2286C69.5915 57.1233 67.6475 62.2239 64.7458 66.574L67.9763 69.1559C71.2692 64.2194 73.4325 58.4857 74.4909 51.9983L70.5532 51.2286ZM64.7336 66.5925C61.9088 70.9213 58.2038 74.2978 53.5784 76.7252L55.3077 80.6732C60.5129 77.9415 64.7533 74.0951 67.9885 69.1374L64.7336 66.5925ZM53.589 76.7197C49.0466 79.0676 43.8241 80.2689 37.879 80.2689V84.6472C44.3232 84.6472 50.1435 83.3426 55.297 80.6788L53.589 76.7197ZM37.879 80.2689C30.9597 80.2689 25.0512 78.6786 20.0829 75.5809L18.1031 79.3853C23.7735 82.9209 30.389 84.6472 37.879 84.6472V80.2689ZM20.0994 75.5912C15.1095 72.411 11.2653 67.9995 8.54229 62.3156L4.99981 64.3489C8.06746 70.7523 12.4378 75.7747 18.0866 79.375L20.0994 75.5912ZM8.55113 62.3342C5.88671 56.6402 4.52905 50.0991 4.52905 42.6586H0.529053C0.529053 50.6957 1.99938 57.937 4.99096 64.3303L8.55113 62.3342ZM99.3809 77.4831L98.3954 79.3882L98.4043 79.3936L99.3809 77.4831ZM99.3809 7.50242L100.35 9.41721L100.358 9.41288L99.3809 7.50242ZM136.448 7.50242L135.463 9.40738L135.47 9.41233L135.479 9.41719L136.448 7.50242ZM149.679 21.7639L147.948 22.8598L147.952 22.8683L147.957 22.8769L149.679 21.7639ZM149.679 63.1111L147.957 61.9981L147.952 62.0067L147.948 62.0151L149.679 63.1111ZM136.347 77.4831L135.37 75.5726L135.362 75.5782L136.347 77.4831ZM128.267 55.1512L129.786 56.5759L129.793 56.5663L129.801 56.5566L128.267 55.1512ZM128.267 29.7238L126.734 31.1291L126.741 31.1389L126.749 31.1485L128.267 29.7238ZM107.562 29.7238L109.081 31.1485L109.088 31.1389L109.096 31.1291L107.562 29.7238ZM107.562 55.1512L106.029 56.5566L106.036 56.5663L106.044 56.5759L107.562 55.1512ZM117.965 80.49C111.56 80.49 105.703 78.8467 100.358 75.5726L98.4043 79.3936C104.371 83.0476 110.904 84.8684 117.965 84.8684V80.49ZM100.366 75.5782C95.0858 72.305 90.8945 67.7891 87.7712 61.9981L84.3266 64.2241C87.802 70.6678 92.4987 75.7332 98.3954 79.3882L100.366 75.5782ZM87.7712 61.9981C84.668 56.2445 83.0999 49.743 83.0999 42.4375H79.0999C79.0999 50.4621 80.8312 57.7431 84.3266 64.2241L87.7712 61.9981ZM83.0999 42.4375C83.0999 35.1318 84.668 28.6305 87.7712 22.8769L84.3266 20.6509C80.8312 27.1319 79.0999 34.4129 79.0999 42.4375H83.0999ZM87.7712 22.8769C90.8923 17.0899 95.0786 12.6153 100.35 9.41721L98.4114 5.58763C92.5059 9.17014 87.8042 14.2032 84.3266 20.6509L87.7712 22.8769ZM100.358 9.41288C105.703 6.13887 111.56 4.49557 117.965 4.49557V0.117188C110.904 0.117188 104.371 1.9379 98.4043 5.59194L100.358 9.41288ZM117.965 4.49557C124.37 4.49557 130.189 6.1388 135.463 9.40738L137.434 5.59744C131.53 1.93797 125.026 0.117188 117.965 0.117188V4.49557ZM135.479 9.41719C140.747 12.6131 144.895 17.0822 147.948 22.8598L151.41 20.6679C147.999 14.2109 143.327 9.17239 137.418 5.58763L135.479 9.41719ZM147.957 22.8769C151.06 28.6305 152.628 35.1318 152.628 42.4375H156.628C156.628 34.4129 154.897 27.1319 151.401 20.6509L147.957 22.8769ZM152.628 42.4375C152.628 49.743 151.06 56.2445 147.957 61.9981L151.401 64.2241C154.897 57.7431 156.628 50.4621 156.628 42.4375H152.628ZM147.948 62.0151C144.897 67.7902 140.714 72.3001 135.37 75.5726L137.324 79.3936C143.292 75.7381 147.998 70.6667 151.41 64.2071L147.948 62.0151ZM135.362 75.5782C130.085 78.8486 124.299 80.49 117.965 80.49V84.8684C124.963 84.8684 131.432 83.0456 137.333 79.3881L135.362 75.5782ZM117.965 61.9837C122.869 61.9837 126.908 60.251 129.786 56.5759L126.749 53.7265C124.778 56.2424 121.949 57.6053 117.965 57.6053V61.9837ZM129.801 56.5566C132.603 52.8925 133.903 48.1091 133.903 42.4375H129.903C129.903 47.379 128.779 51.0714 126.734 53.7459L129.801 56.5566ZM133.903 42.4375C133.903 36.704 132.608 31.9033 129.786 28.2991L126.749 31.1485C128.774 33.7353 129.903 37.4105 129.903 42.4375H133.903ZM129.801 28.3184C126.928 24.5625 122.885 22.7808 117.965 22.7808V27.1591C121.933 27.1591 124.758 28.5465 126.734 31.1291L129.801 28.3184ZM117.965 22.7808C112.989 22.7808 108.907 24.5547 106.029 28.3184L109.096 31.1291C111.065 28.5544 113.918 27.1591 117.965 27.1591V22.7808ZM106.044 28.2991C103.221 31.9033 101.926 36.704 101.926 42.4375H105.926C105.926 37.4105 107.055 33.7353 109.081 31.1485L106.044 28.2991ZM101.926 42.4375C101.926 48.1091 103.226 52.8925 106.029 56.5566L109.096 53.7459C107.05 51.0714 105.926 47.379 105.926 42.4375H101.926ZM106.044 56.5759C108.927 60.2586 113.005 61.9837 117.965 61.9837V57.6053C113.903 57.6053 111.045 56.2349 109.081 53.7265L106.044 56.5759ZM201.198 81.9053L199.426 82.9209L199.987 84.0945H201.198V81.9053ZM187.765 53.8246L189.536 52.809L188.975 51.6354H187.765V53.8246ZM187.664 53.8246V51.6354H185.664V53.8246H187.664ZM187.664 81.9053V84.0945H189.664V81.9053H187.664ZM165.242 81.9053H163.242V84.0945H165.242V81.9053ZM165.242 3.63303V1.44384H163.242V3.63303H165.242ZM213.419 7.0602L212.513 9.01183L212.524 9.01833L212.536 9.02466L213.419 7.0602ZM222.61 16.2362L220.869 17.3146L220.88 17.336L220.892 17.3572L222.61 16.2362ZM221.701 43.2114L220.083 41.9238L220.076 41.9344L220.069 41.945L221.701 43.2114ZM210.288 51.9451L209.671 49.8628L207.336 50.6914L208.549 53.0267L210.288 51.9451ZM225.842 81.9053V84.0945H229.279L227.581 80.8237L225.842 81.9053ZM187.664 37.4626H185.664V39.6518H187.664V37.4626ZM201.4 35.9148L202.717 37.5624L202.743 37.5375L202.768 37.5119L201.4 35.9148ZM201.299 25.9649L199.884 27.5129L199.906 27.5363L199.928 27.5591L201.299 25.9649ZM187.664 24.1961V22.0069H185.664V24.1961H187.664ZM202.969 80.8897L189.536 52.809L185.993 54.8401L199.426 82.9209L202.969 80.8897ZM187.765 51.6354H187.664V56.0138H187.765V51.6354ZM185.664 53.8246V81.9053H189.664V53.8246H185.664ZM187.664 79.7161H165.242V84.0945H187.664V79.7161ZM167.242 81.9053V3.63303H163.242V81.9053H167.242ZM165.242 5.82221H198.572V1.44384H165.242V5.82221ZM198.572 5.82221C204.126 5.82221 208.749 6.91816 212.513 9.01183L214.325 5.10856C209.874 2.63268 204.598 1.44384 198.572 1.44384V5.82221ZM212.536 9.02466C216.326 11.065 219.07 13.8352 220.869 17.3146L224.35 15.1578C222.109 10.8247 218.726 7.47759 214.301 5.09573L212.536 9.02466ZM220.892 17.3572C222.778 20.8205 223.741 24.7751 223.741 29.2816H227.741C227.741 24.0593 226.616 19.3169 224.328 15.1152L220.892 17.3572ZM223.741 29.2816C223.741 34.0735 222.517 38.2615 220.083 41.9238L223.318 44.4989C226.272 40.054 227.741 34.9554 227.741 29.2816H223.741ZM220.069 41.945C217.729 45.557 214.309 48.216 209.671 49.8628L210.905 54.0275C216.231 52.1366 220.42 48.9731 223.332 44.4777L220.069 41.945ZM208.549 53.0267L224.103 82.9869L227.581 80.8237L212.027 50.8636L208.549 53.0267ZM225.842 79.7161H201.198V84.0945H225.842V79.7161ZM187.664 39.6518H196.552V35.2734H187.664V39.6518ZM196.552 39.6518C198.954 39.6518 201.129 39.0829 202.717 37.5624L200.083 34.2672C199.516 34.8105 198.459 35.2734 196.552 35.2734V39.6518ZM202.768 37.5119C204.392 35.8452 205.016 33.4636 205.016 30.8293H201.016C201.016 32.7646 200.562 33.7733 200.032 34.3177L202.768 37.5119ZM205.016 30.8293C205.016 28.2922 204.295 26.0452 202.669 24.3708L199.928 27.5591C200.592 28.2432 201.016 29.2392 201.016 30.8293H205.016ZM202.713 24.417C201.139 22.6942 198.969 22.0069 196.552 22.0069V26.3853C198.309 26.3853 199.304 26.8772 199.884 27.5129L202.713 24.417ZM196.552 22.0069H187.664V26.3853H196.552V22.0069ZM185.664 24.1961V37.4626H189.664V24.1961H185.664ZM257.851 23.2011V21.0119H255.851V23.2011H257.851ZM257.851 32.8193H255.851V35.0085H257.851V32.8193ZM280.071 32.8193H282.071V30.6301H280.071V32.8193ZM280.071 51.2818V53.471H282.071V51.2818H280.071ZM257.851 51.2818V49.0926H255.851V51.2818H257.851ZM257.851 62.3372H255.851V64.5264H257.851V62.3372ZM283.101 62.3372H285.101V60.148H283.101V62.3372ZM283.101 81.9053V84.0945H285.101V81.9053H283.101ZM235.429 81.9053H233.429V84.0945H235.429V81.9053ZM235.429 3.63303V1.44384H233.429V3.63303H235.429ZM283.101 3.63303H285.101V1.44384H283.101V3.63303ZM283.101 23.2011V25.3903H285.101V23.2011H283.101ZM255.851 23.2011V32.8193H259.851V23.2011H255.851ZM257.851 35.0085H280.071V30.6301H257.851V35.0085ZM278.071 32.8193V51.2818H282.071V32.8193H278.071ZM280.071 49.0926H257.851V53.471H280.071V49.0926ZM255.851 51.2818V62.3372H259.851V51.2818H255.851ZM257.851 64.5264H283.101V60.148H257.851V64.5264ZM281.101 62.3372V81.9053H285.101V62.3372H281.101ZM283.101 79.7161H235.429V84.0945H283.101V79.7161ZM237.429 81.9053V3.63303H233.429V81.9053H237.429ZM235.429 5.82221H283.101V1.44384H235.429V5.82221ZM281.101 3.63303V23.2011H285.101V3.63303H281.101ZM283.101 21.0119H257.851V25.3903H283.101V21.0119Z" fill="#E6D5B8"/>
</svg>
