<svg width="724" height="78" viewBox="0 0 724 78" fill="none" xmlns="http://www.w3.org/2000/svg">
<path d="M51.8291 8.03703L50.8759 9.79526L50.8847 9.79998L51.8291 8.03703ZM64.8581 20.662L66.6013 19.6815L64.8581 20.662ZM64.8581 57.426L66.6065 58.3973L64.8581 57.426ZM51.8291 70.354L52.7986 72.1033L52.8057 72.0994L51.8291 70.354ZM2.44018 75H0.440186V77H2.44018V75ZM2.44018 3.49203V1.49203H0.440186V3.49203H2.44018ZM42.2341 50.861L43.5976 52.3242L42.2341 50.861ZM42.2341 27.227L43.5976 25.7638L42.2341 27.227ZM24.8621 23.086V21.086H22.8621V23.086H24.8621ZM24.8621 55.002H22.8621V57.002H24.8621V55.002ZM32.2351 5.49203C39.4348 5.49203 45.6274 6.94969 50.8759 9.79524L52.7824 6.27881C46.8535 3.06437 39.9835 1.49203 32.2351 1.49203V5.49203ZM50.8847 9.79998C56.219 12.6576 60.2788 16.6004 63.115 21.6425L66.6013 19.6815C63.3775 13.9503 58.7513 9.47642 52.7736 6.27407L50.8847 9.79998ZM63.115 21.6425C65.9584 26.6975 67.4031 32.4804 67.4031 39.044H71.4031C71.4031 31.8716 69.8178 25.3998 66.6013 19.6815L63.115 21.6425ZM67.4031 39.044C67.4031 45.5362 65.9602 51.3241 63.1098 56.4547L66.6065 58.3973C69.8161 52.6199 71.4031 46.1532 71.4031 39.044H67.4031ZM63.1098 56.4547C60.2674 61.5711 56.1976 65.6179 50.8526 68.6086L52.8057 72.0994C58.7726 68.7607 63.3889 64.1889 66.6065 58.3973L63.1098 56.4547ZM50.8596 68.6047C45.6145 71.5117 39.4278 73 32.2351 73V77C39.9905 77 46.8665 75.391 52.7986 72.1033L50.8596 68.6047ZM32.2351 73H2.44018V77H32.2351V73ZM4.44019 75V3.49203H0.440186V75H4.44019ZM2.44018 5.49203H32.2351V1.49203H2.44018V5.49203ZM30.2151 57.002C35.6404 57.002 40.179 55.5097 43.5976 52.3242L40.8707 49.3978C38.3639 51.7336 34.8899 53.002 30.2151 53.002V57.002ZM43.5976 52.3242C47.0677 49.0907 48.6781 44.5605 48.6781 39.044H44.6781C44.6781 43.7622 43.326 47.1099 40.8707 49.3978L43.5976 52.3242ZM48.6781 39.044C48.6781 33.5275 47.0677 28.9973 43.5976 25.7638L40.8707 28.6902C43.326 30.9781 44.6781 34.3258 44.6781 39.044H48.6781ZM43.5976 25.7638C40.179 22.5783 35.6404 21.086 30.2151 21.086V25.086C34.8899 25.086 38.3639 26.3544 40.8707 28.6902L43.5976 25.7638ZM30.2151 21.086H24.8621V25.086H30.2151V21.086ZM22.8621 23.086V55.002H26.8621V23.086H22.8621ZM24.8621 57.002H30.2151V53.002H24.8621V57.002ZM102.447 21.369V19.369H100.447V21.369H102.447ZM102.447 30.156H100.447V32.156H102.447V30.156ZM124.667 30.156H126.667V28.156H124.667V30.156ZM124.667 47.023V49.023H126.667V47.023H124.667ZM102.447 47.023V45.023H100.447V47.023H102.447ZM102.447 57.123H100.447V59.123H102.447V57.123ZM127.697 57.123H129.697V55.123H127.697V57.123ZM127.697 75V77H129.697V75H127.697ZM80.0247 75H78.0247V77H80.0247V75ZM80.0247 3.49203V1.49203H78.0247V3.49203H80.0247ZM127.697 3.49203H129.697V1.49203H127.697V3.49203ZM127.697 21.369V23.369H129.697V21.369H127.697ZM100.447 21.369V30.156H104.447V21.369H100.447ZM102.447 32.156H124.667V28.156H102.447V32.156ZM122.667 30.156V47.023H126.667V30.156H122.667ZM124.667 45.023H102.447V49.023H124.667V45.023ZM100.447 47.023V57.123H104.447V47.023H100.447ZM102.447 59.123H127.697V55.123H102.447V59.123ZM125.697 57.123V75H129.697V57.123H125.697ZM127.697 73H80.0247V77H127.697V73ZM82.0247 75V3.49203H78.0247V75H82.0247ZM80.0247 5.49203H127.697V1.49203H80.0247V5.49203ZM125.697 3.49203V21.369H129.697V3.49203H125.697ZM127.697 19.369H102.447V23.369H127.697V19.369ZM194.02 40.357L195.754 41.3527L195.758 41.3459L195.762 41.339L194.02 40.357ZM184.728 49.043L183.799 47.2719L183.787 47.2783L184.728 49.043ZM161.094 52.275V50.275H159.094V52.275H161.094ZM161.094 75V77H163.094V75H161.094ZM138.672 75H136.672V77H138.672V75ZM138.672 3.49203V1.49203H136.672V3.49203H138.672ZM190.081 10.158L188.698 11.6033L188.704 11.6083L188.709 11.6132L190.081 10.158ZM161.094 21.47V19.47H159.094V21.47H161.094ZM161.094 34.6H159.094V36.6H161.094V34.6ZM195.151 28.035C195.151 32.2241 194.185 35.9898 192.277 39.375L195.762 41.339C198.029 37.3175 199.151 32.8686 199.151 28.035H195.151ZM192.285 39.3613C190.407 42.633 187.606 45.2744 183.799 47.2719L185.657 50.8141C190.064 48.5022 193.458 45.353 195.754 41.3527L192.285 39.3613ZM183.787 47.2783C180.103 49.2429 175.529 50.275 169.982 50.275V54.275C176.016 54.275 181.273 53.1524 185.669 50.8077L183.787 47.2783ZM169.982 50.275H161.094V54.275H169.982V50.275ZM159.094 52.275V75H163.094V52.275H159.094ZM161.094 73H138.672V77H161.094V73ZM140.672 75V3.49203H136.672V75H140.672ZM138.672 5.49203H169.982V1.49203H138.672V5.49203ZM169.982 5.49203C178.41 5.49203 184.542 7.62778 188.698 11.6033L191.463 8.71274C186.327 3.80027 179.061 1.49203 169.982 1.49203V5.49203ZM188.709 11.6132C192.959 15.6201 195.151 21.0192 195.151 28.035H199.151C199.151 20.1028 196.63 13.5839 191.453 8.70285L188.709 11.6132ZM167.457 36.6C170.059 36.6 172.383 35.9894 174.055 34.4145C175.749 32.8186 176.426 30.5632 176.426 28.035H172.426C172.426 29.8835 171.941 30.9106 171.312 31.503C170.661 32.1165 169.5 32.6 167.457 32.6V36.6ZM176.426 28.035C176.426 25.5068 175.749 23.2514 174.055 21.6555C172.383 20.0806 170.059 19.47 167.457 19.47V23.47C169.5 23.47 170.661 23.9535 171.312 24.567C171.941 25.1594 172.426 26.1865 172.426 28.035H176.426ZM167.457 19.47H161.094V23.47H167.457V19.47ZM159.094 21.47V34.6H163.094V21.47H159.094ZM161.094 36.6H167.457V32.6H161.094V36.6ZM228.705 3.49203H230.705V1.49203H228.705V3.49203ZM230.826 51.669L229.206 52.842L229.229 52.8738L229.253 52.9046L230.826 51.669ZM245.067 51.669L246.612 52.9385L246.623 52.9252L246.634 52.9118L245.067 51.669ZM247.39 3.49203V1.49203H245.39V3.49203H247.39ZM269.711 3.49203H271.711V1.49203H269.711V3.49203ZM265.469 61.264L267.19 62.2823L267.196 62.2717L265.469 61.264ZM253.854 72.071L254.738 73.8647L253.854 72.071ZM221.231 72.071L220.305 73.8442L220.316 73.8496L221.231 72.071ZM210.323 61.264L208.57 62.2269L210.323 61.264ZM206.384 3.49203V1.49203H204.384V3.49203H206.384ZM226.705 3.49203V43.791H230.705V3.49203H226.705ZM226.705 43.791C226.705 47.3595 227.468 50.4427 229.206 52.842L232.445 50.496C231.355 48.99 230.705 46.8212 230.705 43.791H226.705ZM229.253 52.9046C231.235 55.4277 234.279 56.497 237.896 56.497V52.497C235.049 52.497 233.379 51.681 232.398 50.4334L229.253 52.9046ZM237.896 56.497C241.518 56.497 244.569 55.426 246.612 52.9385L243.521 50.3995C242.467 51.6827 240.737 52.497 237.896 52.497V56.497ZM246.634 52.9118C248.542 50.5057 249.39 47.3951 249.39 43.791H245.39C245.39 46.7856 244.689 48.9269 243.5 50.4262L246.634 52.9118ZM249.39 43.791V3.49203H245.39V43.791H249.39ZM247.39 5.49203H269.711V1.49203H247.39V5.49203ZM267.711 3.49203V43.791H271.711V3.49203H267.711ZM267.711 43.791C267.711 50.3124 266.356 55.7729 263.741 60.2563L267.196 62.2717C270.237 57.0591 271.711 50.8709 271.711 43.791H267.711ZM263.747 60.2457C261.114 64.6969 257.531 68.0275 252.969 70.2773L254.738 73.8647C260.007 71.2665 264.167 67.3924 267.19 62.2823L263.747 60.2457ZM252.969 70.2773C248.357 72.5518 243.177 73.707 237.391 73.707V77.707C243.725 77.707 249.52 76.4382 254.738 73.8647L252.969 70.2773ZM237.391 73.707C231.603 73.707 226.537 72.5513 222.145 70.2924L220.316 73.8496C225.35 76.4387 231.058 77.707 237.391 77.707V73.707ZM222.156 70.2978C217.874 68.0641 214.52 64.7509 212.076 60.3011L208.57 62.2269C211.377 67.3385 215.295 71.2299 220.305 73.8442L222.156 70.2978ZM212.076 60.3011C209.648 55.8824 208.384 50.408 208.384 43.791H204.384C204.384 50.91 205.745 57.0842 208.57 62.2269L212.076 60.3011ZM208.384 43.791V3.49203H204.384V43.791H208.384ZM206.384 5.49203H228.705V1.49203H206.384V5.49203ZM338.062 3.49203H340.062V1.49203H338.062V3.49203ZM338.062 21.268V23.268H340.062V21.268H338.062ZM319.074 21.268V19.268H317.074V21.268H319.074ZM319.074 75V77H321.074V75H319.074ZM296.652 75H294.652V77H296.652V75ZM296.652 21.268H298.652V19.268H296.652V21.268ZM277.866 21.268H275.866V23.268H277.866V21.268ZM277.866 3.49203V1.49203H275.866V3.49203H277.866ZM336.062 3.49203V21.268H340.062V3.49203H336.062ZM338.062 19.268H319.074V23.268H338.062V19.268ZM317.074 21.268V75H321.074V21.268H317.074ZM319.074 73H296.652V77H319.074V73ZM298.652 75V21.268H294.652V75H298.652ZM296.652 19.268H277.866V23.268H296.652V19.268ZM279.866 21.268V3.49203H275.866V21.268H279.866ZM277.866 5.49203H338.062V1.49203H277.866V5.49203ZM415.349 3.49203L417.127 4.40803L418.629 1.49203H415.349V3.49203ZM389.695 53.285L387.917 52.369L387.695 52.8001V53.285H389.695ZM389.695 75V77H391.695V75H389.695ZM367.273 75H365.273V77H367.273V75ZM367.273 53.285H369.273V52.8001L369.051 52.369L367.273 53.285ZM341.619 3.49203V1.49203H338.338L339.841 4.40803L341.619 3.49203ZM367.273 3.49203L369.096 2.671L368.566 1.49203H367.273V3.49203ZM378.686 28.843L376.862 29.664L378.686 33.7149L380.509 29.664L378.686 28.843ZM390.099 3.49203V1.49203H388.806L388.275 2.671L390.099 3.49203ZM413.571 2.57603L387.917 52.369L391.473 54.201L417.127 4.40803L413.571 2.57603ZM387.695 53.285V75H391.695V53.285H387.695ZM389.695 73H367.273V77H389.695V73ZM369.273 75V53.285H365.273V75H369.273ZM369.051 52.369L343.397 2.57603L339.841 4.40803L365.495 54.201L369.051 52.369ZM341.619 5.49203H367.273V1.49203H341.619V5.49203ZM365.449 4.31306L376.862 29.664L380.509 28.022L369.096 2.671L365.449 4.31306ZM380.509 29.664L391.922 4.31306L388.275 2.671L376.862 28.022L380.509 29.664ZM390.099 5.49203H415.349V1.49203H390.099V5.49203ZM444.88 20.258L443.109 19.3292L443.104 19.3377L443.1 19.3462L444.88 20.258ZM457.202 7.43103L458.192 9.16887L458.2 9.16416L458.208 9.15938L457.202 7.43103ZM492.552 6.32003L491.678 8.11876L491.693 8.12602L491.708 8.13303L492.552 6.32003ZM504.47 16.117L502.843 17.2795L502.849 17.288L502.855 17.2964L504.47 16.117ZM510.631 30.964V32.964H513.02L512.6 30.6124L510.631 30.964ZM486.997 30.964L485.178 31.7955L485.712 32.964H486.997V30.964ZM482.351 25.51L481.216 27.1564L481.248 27.1787L481.281 27.1996L482.351 25.51ZM466.595 27.732L465.022 26.4964L465.013 26.5081L465.004 26.5199L466.595 27.732ZM466.595 50.558L465.004 51.7701L465.013 51.7819L465.022 51.7936L466.595 50.558ZM482.351 52.881L483.447 54.5539L483.454 54.5495L483.46 54.5451L482.351 52.881ZM486.997 47.326V45.326H485.712L485.178 46.4945L486.997 47.326ZM510.631 47.326L512.6 47.6776L513.02 45.326H510.631V47.326ZM504.47 62.173L502.855 60.9936L502.849 61.002L502.843 61.0105L504.47 62.173ZM492.552 72.071L493.406 73.8795L493.417 73.8744L492.552 72.071ZM457.202 70.96L456.196 72.6884L456.204 72.6931L456.212 72.6978L457.202 70.96ZM444.88 58.032L443.1 58.9438L443.104 58.9523L443.109 58.9608L444.88 58.032ZM442.638 39.145C442.638 32.3475 443.996 26.3717 446.66 21.1697L443.1 19.3462C440.108 25.187 438.638 31.8025 438.638 39.145H442.638ZM446.651 21.1868C449.372 15.9977 453.212 12.0058 458.192 9.16887L456.212 5.69319C450.554 8.91623 446.178 13.4756 443.109 19.3292L446.651 21.1868ZM458.208 9.15938C463.174 6.26826 469.076 4.78503 475.988 4.78503V0.785029C468.491 0.785029 461.869 2.39913 456.196 5.70268L458.208 9.15938ZM475.988 4.78503C481.925 4.78503 487.14 5.91299 491.678 8.11876L493.426 4.52129C488.268 2.01373 482.44 0.785029 475.988 0.785029V4.78503ZM491.708 8.13303C496.323 10.2828 500.021 13.3297 502.843 17.2795L506.098 14.9545C502.859 10.4203 498.612 6.93594 493.397 4.50703L491.708 8.13303ZM502.855 17.2964C505.757 21.2705 507.701 25.9303 508.662 31.3156L512.6 30.6124C511.542 24.6857 509.378 19.4475 506.085 14.9376L502.855 17.2964ZM510.631 28.964H486.997V32.964H510.631V28.964ZM488.816 30.1325C487.592 27.454 485.796 25.3245 483.421 23.8204L481.281 27.1996C482.946 28.2541 484.248 29.7606 485.178 31.7955L488.816 30.1325ZM483.487 23.8636C481.173 22.2683 478.515 21.49 475.584 21.49V25.49C477.771 25.49 479.623 26.0584 481.216 27.1564L483.487 23.8636ZM475.584 21.49C471.234 21.49 467.644 23.1593 465.022 26.4964L468.168 28.9676C469.99 26.6487 472.393 25.49 475.584 25.49V21.49ZM465.004 26.5199C462.506 29.799 461.363 34.0761 461.363 39.145H465.363C465.363 34.6525 466.375 31.3209 468.186 28.9441L465.004 26.5199ZM461.363 39.145C461.363 44.2139 462.506 48.4909 465.004 51.7701L468.186 49.3459C466.375 46.969 465.363 43.6375 465.363 39.145H461.363ZM465.022 51.7936C467.644 55.1307 471.234 56.8 475.584 56.8V52.8C472.393 52.8 469.99 51.6413 468.168 49.3224L465.022 51.7936ZM475.584 56.8C478.493 56.8 481.138 56.067 483.447 54.5539L481.255 51.2081C479.659 52.2536 477.792 52.8 475.584 52.8V56.8ZM483.46 54.5451C485.811 52.9782 487.595 50.8285 488.816 48.1575L485.178 46.4945C484.245 48.5368 482.931 50.0904 481.242 51.2169L483.46 54.5451ZM486.997 49.326H510.631V45.326H486.997V49.326ZM508.662 46.9744C507.701 52.3597 505.757 57.0195 502.855 60.9936L506.085 63.3524C509.378 58.8425 511.542 53.6043 512.6 47.6776L508.662 46.9744ZM502.843 61.0105C500.018 64.9652 496.313 68.0499 491.687 70.2676L493.417 73.8744C498.622 71.3788 502.862 67.8648 506.098 63.3355L502.843 61.0105ZM491.698 70.2625C487.156 72.4075 481.933 73.505 475.988 73.505V77.505C482.432 77.505 488.253 76.3131 493.406 73.8795L491.698 70.2625ZM475.988 73.505C469.069 73.505 463.16 72.0522 458.192 69.2222L456.212 72.6978C461.883 75.9278 468.498 77.505 475.988 77.505V73.505ZM458.208 69.2316C453.219 66.3262 449.374 62.2959 446.651 57.1032L443.109 58.9608C446.177 64.8108 450.547 69.3992 456.196 72.6884L458.208 69.2316ZM446.66 57.1202C443.996 51.9183 442.638 45.9425 442.638 39.145H438.638C438.638 46.4875 440.108 53.103 443.1 58.9438L446.66 57.1202ZM537.49 70.96L536.505 72.7004L536.513 72.7054L537.49 70.96ZM524.158 57.83L522.436 58.8468L524.158 57.83ZM537.49 7.02703L538.46 8.77635L538.467 8.77239L537.49 7.02703ZM574.557 7.02703L573.572 8.76737L573.58 8.77189L573.588 8.77633L574.557 7.02703ZM587.788 20.056L586.057 21.0572L586.061 21.065L586.066 21.0728L587.788 20.056ZM587.788 57.83L586.066 56.8132L586.061 56.821L586.057 56.8287L587.788 57.83ZM574.456 70.96L573.479 69.2146L573.471 69.2197L574.456 70.96ZM566.376 50.558L567.895 51.8596L567.902 51.8508L567.91 51.8419L566.376 50.558ZM566.376 27.328L564.843 28.6119L564.85 28.6208L564.858 28.6296L566.376 27.328ZM545.671 27.328L547.19 28.6296L547.197 28.6208L547.205 28.6119L545.671 27.328ZM545.671 50.558L544.138 51.8419L544.145 51.8508L544.153 51.8596L545.671 50.558ZM556.074 73.707C549.669 73.707 543.812 72.2057 538.467 69.2146L536.513 72.7054C542.48 76.0436 549.013 77.707 556.074 77.707V73.707ZM538.476 69.2197C533.195 66.2294 529.004 62.1037 525.88 56.8132L522.436 58.8468C525.911 64.7336 530.608 69.3612 536.505 72.7003L538.476 69.2197ZM525.88 56.8132C522.777 51.5568 521.209 45.6172 521.209 38.943H517.209C517.209 46.2741 518.94 52.9259 522.436 58.8468L525.88 56.8132ZM521.209 38.943C521.209 32.2687 522.777 26.3292 525.88 21.0728L522.436 19.0392C518.94 24.9601 517.209 31.6119 517.209 38.943H521.209ZM525.88 21.0728C529.001 15.7859 533.188 11.6981 538.46 8.77633L536.521 5.27772C530.615 8.55063 525.913 13.1487 522.436 19.0392L525.88 21.0728ZM538.467 8.77239C543.812 5.78132 549.669 4.28003 556.074 4.28003V0.280029C549.013 0.280029 542.48 1.9434 536.513 5.28166L538.467 8.77239ZM556.074 4.28003C562.479 4.28003 568.298 5.78126 573.572 8.76737L575.543 5.28668C569.639 1.94346 563.135 0.280029 556.074 0.280029V4.28003ZM573.588 8.77633C578.856 11.696 583.004 15.7789 586.057 21.0572L589.519 19.0547C586.108 13.1557 581.436 8.55268 575.527 5.27772L573.588 8.77633ZM586.066 21.0728C589.169 26.3292 590.737 32.2687 590.737 38.943H594.737C594.737 31.6119 593.006 24.9601 589.51 19.0392L586.066 21.0728ZM590.737 38.943C590.737 45.6172 589.169 51.5568 586.066 56.8132L589.51 58.8468C593.006 52.9259 594.737 46.2741 594.737 38.943H590.737ZM586.057 56.8287C583.006 62.1047 578.823 66.2249 573.479 69.2146L575.433 72.7054C581.401 69.3658 586.107 64.7326 589.519 58.8313L586.057 56.8287ZM573.471 69.2197C568.194 72.2075 562.408 73.707 556.074 73.707V77.707C563.072 77.707 569.541 76.0418 575.442 72.7003L573.471 69.2197ZM556.074 56.8C560.978 56.8 565.017 55.2171 567.895 51.8596L564.858 49.2564C562.887 51.5549 560.058 52.8 556.074 52.8V56.8ZM567.91 51.8419C570.712 48.4945 572.012 44.1245 572.012 38.943H568.012C568.012 43.4575 566.888 46.8308 564.843 49.2741L567.91 51.8419ZM572.012 38.943C572.012 33.705 570.717 29.3192 567.895 26.0264L564.858 28.6296C566.883 30.9928 568.012 34.3504 568.012 38.943H572.012ZM567.91 26.0441C565.037 22.6128 560.994 20.985 556.074 20.985V24.985C560.042 24.985 562.867 26.2525 564.843 28.6119L567.91 26.0441ZM556.074 20.985C551.098 20.985 547.016 22.6056 544.138 26.0441L547.205 28.6119C549.174 26.2597 552.027 24.985 556.074 24.985V20.985ZM544.153 26.0264C541.33 29.3192 540.035 33.705 540.035 38.943H544.035C544.035 34.3504 545.164 30.9928 547.19 28.6296L544.153 26.0264ZM540.035 38.943C540.035 44.1245 541.335 48.4945 544.138 51.8419L547.205 49.2741C545.159 46.8308 544.035 43.4575 544.035 38.943H540.035ZM544.153 51.8596C547.036 55.224 551.114 56.8 556.074 56.8V52.8C552.012 52.8 549.154 51.548 547.19 49.2564L544.153 51.8596ZM639.307 75L637.535 75.9278L638.096 77H639.307V75ZM625.874 49.346L627.645 48.4182L627.084 47.346H625.874V49.346ZM625.773 49.346V47.346H623.773V49.346H625.773ZM625.773 75V77H627.773V75H625.773ZM603.351 75H601.351V77H603.351V75ZM603.351 3.49203V1.49203H601.351V3.49203H603.351ZM651.528 6.62303L650.622 8.406L650.633 8.41194L650.645 8.41772L651.528 6.62303ZM660.719 15.006L658.978 15.9912L658.989 16.0108L659.001 16.0301L660.719 15.006ZM659.81 39.65L658.192 38.4737L658.185 38.4834L658.178 38.4931L659.81 39.65ZM648.397 47.629L647.78 45.7266L645.445 46.4836L646.658 48.6171L648.397 47.629ZM663.951 75V77H667.388L665.69 74.0119L663.951 75ZM625.773 34.398H623.773V36.398H625.773V34.398ZM639.509 32.984L640.826 34.4892L640.852 34.4665L640.877 34.4431L639.509 32.984ZM639.408 23.894L637.993 25.3082L638.015 25.3296L638.037 25.3504L639.408 23.894ZM625.773 22.278V20.278H623.773V22.278H625.773ZM641.078 74.0722L627.645 48.4182L624.102 50.2738L637.535 75.9278L641.078 74.0722ZM625.874 47.346H625.773V51.346H625.874V47.346ZM623.773 49.346V75H627.773V49.346H623.773ZM625.773 73H603.351V77H625.773V73ZM605.351 75V3.49203H601.351V75H605.351ZM603.351 5.49203H636.681V1.49203H603.351V5.49203ZM636.681 5.49203C642.235 5.49203 646.858 6.49326 650.622 8.406L652.434 4.84005C647.983 2.57813 642.707 1.49203 636.681 1.49203V5.49203ZM650.645 8.41772C654.435 10.2817 657.179 12.8125 658.978 15.9912L662.459 14.0208C660.218 10.0622 656.835 7.00435 652.41 4.82833L650.645 8.41772ZM659.001 16.0301C660.887 19.1941 661.85 22.807 661.85 26.924H665.85C665.85 22.153 664.725 17.8205 662.437 13.9819L659.001 16.0301ZM661.85 26.924C661.85 31.3018 660.625 35.1279 658.192 38.4737L661.427 40.8263C664.381 36.7655 665.85 32.1075 665.85 26.924H661.85ZM658.178 38.4931C655.838 41.7929 652.418 44.2221 647.78 45.7266L649.014 49.5314C654.34 47.8039 658.529 44.9138 661.441 40.8069L658.178 38.4931ZM646.658 48.6171L662.212 75.9881L665.69 74.0119L650.136 46.6409L646.658 48.6171ZM663.951 73H639.307V77H663.951V73ZM625.773 36.398H634.661V32.398H625.773V36.398ZM634.661 36.398C637.063 36.398 639.238 35.8783 640.826 34.4892L638.192 31.4788C637.625 31.9751 636.568 32.398 634.661 32.398V36.398ZM640.877 34.4431C642.501 32.9204 643.125 30.7446 643.125 28.338H639.125C639.125 30.106 638.671 31.0276 638.141 31.5249L640.877 34.4431ZM643.125 28.338C643.125 26.0201 642.404 23.9673 640.778 22.4376L638.037 25.3504C638.701 25.9754 639.125 26.8853 639.125 28.338H643.125ZM640.822 22.4798C639.248 20.9059 637.078 20.278 634.661 20.278V24.278C636.418 24.278 637.413 24.7274 637.993 25.3082L640.822 22.4798ZM634.661 20.278H625.773V24.278H634.661V20.278ZM623.773 22.278V34.398H627.773V22.278H623.773ZM695.96 21.369V19.369H693.96V21.369H695.96ZM695.96 30.156H693.96V32.156H695.96V30.156ZM718.18 30.156H720.18V28.156H718.18V30.156ZM718.18 47.023V49.023H720.18V47.023H718.18ZM695.96 47.023V45.023H693.96V47.023H695.96ZM695.96 57.123H693.96V59.123H695.96V57.123ZM721.21 57.123H723.21V55.123H721.21V57.123ZM721.21 75V77H723.21V75H721.21ZM673.538 75H671.538V77H673.538V75ZM673.538 3.49203V1.49203H671.538V3.49203H673.538ZM721.21 3.49203H723.21V1.49203H721.21V3.49203ZM721.21 21.369V23.369H723.21V21.369H721.21ZM693.96 21.369V30.156H697.96V21.369H693.96ZM695.96 32.156H718.18V28.156H695.96V32.156ZM716.18 30.156V47.023H720.18V30.156H716.18ZM718.18 45.023H695.96V49.023H718.18V45.023ZM693.96 47.023V57.123H697.96V47.023H693.96ZM695.96 59.123H721.21V55.123H695.96V59.123ZM719.21 57.123V75H723.21V57.123H719.21ZM721.21 73H673.538V77H721.21V73ZM675.538 75V3.49203H671.538V75H675.538ZM673.538 5.49203H721.21V1.49203H673.538V5.49203ZM719.21 3.49203V21.369H723.21V3.49203H719.21ZM721.21 19.369H695.96V23.369H721.21V19.369Z" fill="#E6D5B8"/>
</svg>
