<svg width="96" height="309" viewBox="0 0 96 309" fill="none" xmlns="http://www.w3.org/2000/svg">
<g clip-path="url(#clip0_244_158)">
<path d="M85.7118 63.7341L83.9536 62.7809L83.9489 62.7897L85.7118 63.7341ZM70.2118 79.7301L71.1923 81.4733L70.2118 79.7301ZM25.0758 79.7301L24.1045 81.4785L25.0758 79.7301ZM9.20376 63.7341L7.45445 64.7036L7.45836 64.7107L9.20376 63.7341ZM3.49976 3.09815V1.09814L1.49976 1.09814V3.09815H3.49976ZM91.2918 3.09815H93.2918V1.09814L91.2918 1.09814V3.09815ZM33.1358 51.9541L31.6726 53.3176L33.1358 51.9541ZM62.1518 51.9541L63.615 53.3176L62.1518 51.9541ZM67.2358 30.6261H69.2358V28.6261H67.2358V30.6261ZM28.0518 30.6261V28.6261H26.0518V30.6261H28.0518ZM89.2918 39.6781C89.2918 48.5798 87.4891 56.2598 83.9536 62.7809L87.47 64.6874C91.3744 57.4859 93.2918 49.1285 93.2918 39.6781H89.2918ZM83.9489 62.7897C80.4012 69.412 75.5001 74.4608 69.2313 77.987L71.1923 81.4733C78.1502 77.5595 83.5824 71.9443 87.4748 64.6786L83.9489 62.7897ZM69.2313 77.987C62.9496 81.5204 55.7714 83.3101 47.6438 83.3101V87.3101C56.3802 87.3101 64.2473 85.3799 71.1923 81.4733L69.2313 77.987ZM47.6438 83.3101C39.603 83.3101 32.4197 81.5222 26.0471 77.9818L24.1045 81.4785C31.1239 85.3781 38.986 87.3101 47.6438 87.3101V83.3101ZM26.0471 77.9818C19.6887 74.4494 14.6605 69.3906 10.9492 62.7576L7.45836 64.7107C11.5177 71.9657 17.0709 77.5709 24.1045 81.4785L26.0471 77.9818ZM10.9531 62.7646C7.34076 56.2468 5.49976 48.5728 5.49976 39.6781H1.49976C1.49976 49.1355 3.46145 57.4988 7.45445 64.7036L10.9531 62.7646ZM5.49976 39.6781V3.09815L1.49976 3.09815V39.6781H5.49976ZM3.49976 5.09814L91.2918 5.09814V1.09814L3.49976 1.09814V5.09814ZM89.2918 3.09815V39.6781H93.2918V3.09815L89.2918 3.09815ZM26.0518 37.1981C26.0518 43.7734 27.8584 49.2244 31.6726 53.3176L34.599 50.5907C31.6345 47.4093 30.0518 43.0229 30.0518 37.1981H26.0518ZM31.6726 53.3176C35.5347 57.4623 40.962 59.4101 47.6438 59.4101L47.6438 55.4101C41.7603 55.4101 37.5155 53.7206 34.599 50.5907L31.6726 53.3176ZM47.6438 59.4101C54.3256 59.4101 59.7529 57.4623 63.615 53.3176L60.6886 50.5907C57.7721 53.7206 53.5273 55.4101 47.6438 55.4101L47.6438 59.4101ZM63.615 53.3176C67.4292 49.2244 69.2358 43.7734 69.2358 37.1981H65.2358C65.2358 43.0229 63.6531 47.4093 60.6886 50.5907L63.615 53.3176ZM69.2358 37.1981V30.6261L65.2358 30.6261V37.1981H69.2358ZM67.2358 28.6261L28.0518 28.6261V32.6261H67.2358V28.6261ZM26.0518 30.6261V37.1981H30.0518V30.6261H26.0518ZM9.94775 106.658L8.33366 105.477L8.32555 105.488L8.31766 105.5L9.94775 106.658ZM31.6478 95.6225H33.6478V93.497L31.5263 93.6262L31.6478 95.6225ZM31.6478 124.886L31.8112 126.88L33.6478 126.729V124.886H31.6478ZM25.0758 135.302L23.4117 136.412L23.4214 136.426L23.4314 136.441L25.0758 135.302ZM33.3838 133.566L31.6632 132.547L31.649 132.571L31.6355 132.595L33.3838 133.566ZM37.8478 123.15L35.9618 122.485L35.9606 122.488L37.8478 123.15ZM43.6758 109.138L41.9033 108.212L41.8991 108.22L41.8949 108.228L43.6758 109.138ZM51.9838 99.7145L53.1601 101.332L51.9838 99.7145ZM65.9958 95.8705L65.9668 97.8703L65.9813 97.8705H65.9958V95.8705ZM80.5038 100.211L81.688 98.5987L81.6822 98.5945L80.5038 100.211ZM89.6798 112.238L91.5347 111.49L91.5304 111.48L89.6798 112.238ZM85.3398 155.018L83.77 153.779L83.7622 153.789L85.3398 155.018ZM64.3838 165.062H62.3838V167.137L64.4571 167.061L64.3838 165.062ZM64.3838 135.426L64.3172 133.427L62.3838 133.492V135.426H64.3838ZM70.0878 126.498L68.6736 127.913L68.7108 127.95L68.7499 127.985L70.0878 126.498ZM61.9038 128.606L60.2005 127.558L60.1771 127.596L60.1555 127.635L61.9038 128.606ZM57.3158 139.146L55.4458 138.437L55.442 138.447L57.3158 139.146ZM51.3638 152.786L49.6002 151.843L49.5958 151.851L49.5913 151.86L51.3638 152.786ZM43.4278 162.21L42.1973 160.634L43.4278 162.21ZM16.1478 162.21L15.0848 163.905L15.0922 163.909L15.0996 163.914L16.1478 162.21ZM6.22775 150.678L8.03406 149.82L6.22775 150.678ZM4.63176 132.698C4.63176 122.511 6.99496 114.264 11.5779 107.817L8.31766 105.5C3.14596 112.775 0.63176 121.888 0.63176 132.698H4.63176ZM11.5619 107.839C16.1208 101.609 22.7673 98.1667 31.7693 97.6188L31.5263 93.6262C21.515 94.2356 13.6948 98.1506 8.33366 105.477L11.5619 107.839ZM29.6478 95.6225L29.6478 124.886H33.6478V95.6225H29.6478ZM31.4844 122.893C28.7379 123.118 26.3598 123.859 24.6491 125.373C22.8731 126.945 22.0838 129.111 22.0838 131.582H26.0838C26.0838 130.003 26.5552 129.028 27.3005 128.368C28.1112 127.65 29.5151 127.068 31.8112 126.88L31.4844 122.893ZM22.0838 131.582C22.0838 133.367 22.4826 135.018 23.4117 136.412L26.7399 134.193C26.3464 133.603 26.0838 132.774 26.0838 131.582H22.0838ZM23.4314 136.441C24.6052 138.136 26.3849 138.914 28.4238 138.914V134.914C27.4867 134.914 27.0344 134.618 26.7202 134.164L23.4314 136.441ZM28.4238 138.914C31.3981 138.914 33.6372 137.228 35.1321 134.538L31.6355 132.595C30.6504 134.368 29.5828 134.914 28.4238 134.914V138.914ZM35.1044 134.586C36.5302 132.18 38.0702 128.557 39.735 123.813L35.9606 122.488C34.3187 127.168 32.8827 130.489 31.6632 132.547L35.1044 134.586ZM39.7338 123.816C41.6996 118.246 43.6088 113.664 45.4567 110.049L41.8949 108.228C39.9402 112.053 37.964 116.812 35.9618 122.485L39.7338 123.816ZM45.4483 110.065C47.1935 106.726 49.7478 103.814 53.1601 101.332L50.8075 98.097C46.9451 100.906 43.9608 104.276 41.9033 108.212L45.4483 110.065ZM53.1601 101.332C56.3634 99.0023 60.5781 97.7922 65.9668 97.8703L66.0248 93.8707C60.0055 93.7835 54.8789 95.136 50.8075 98.097L53.1601 101.332ZM65.9958 97.8705C71.3471 97.8705 75.7528 99.2214 79.3255 101.827L81.6822 98.5945C77.3188 95.4129 72.0525 93.8705 65.9958 93.8705V97.8705ZM79.3197 101.822C83.0491 104.562 85.8898 108.265 87.8292 112.997L91.5304 111.48C89.3364 106.127 86.0598 101.811 81.688 98.5987L79.3197 101.822ZM87.8249 112.986C89.7823 117.841 90.7798 123.327 90.7798 129.474H94.7798C94.7798 122.891 93.7106 116.887 91.5347 111.49L87.8249 112.986ZM90.7798 129.474C90.7798 139.925 88.3692 147.954 83.7701 153.779L86.9096 156.258C92.2304 149.518 94.7798 140.517 94.7798 129.474H90.7798ZM83.7622 153.789C79.2108 159.63 72.8087 162.752 64.3105 163.064L64.4571 167.061C73.9802 166.712 81.5488 163.137 86.9174 156.248L83.7622 153.789ZM66.3838 165.062L66.3838 135.426H62.3838V165.062H66.3838ZM64.4504 137.425C67.1678 137.335 69.5831 136.649 71.1814 134.927L68.2502 132.205C67.6992 132.799 66.5598 133.353 64.3172 133.427L64.4504 137.425ZM71.1814 134.927C72.6169 133.381 73.3278 131.482 73.3278 129.35H69.3278C69.3278 130.525 68.9641 131.437 68.2502 132.205L71.1814 134.927ZM73.3278 129.35C73.3278 127.652 72.6929 126.152 71.4257 125.012L68.7499 127.985C69.1361 128.333 69.3278 128.734 69.3278 129.35H73.3278ZM71.502 125.084C70.2704 123.853 68.6157 123.382 66.8638 123.382V127.382C67.9225 127.382 68.4172 127.656 68.6736 127.913L71.502 125.084ZM66.8638 123.382C63.9936 123.382 61.7739 125.001 60.2005 127.558L63.6071 129.655C64.6791 127.913 65.766 127.382 66.8638 127.382V123.382ZM60.1555 127.635C58.8424 129.999 57.2718 133.623 55.4458 138.437L59.1858 139.856C60.9971 135.08 62.4852 131.678 63.6521 129.578L60.1555 127.635ZM55.442 138.447C53.3936 143.937 51.4449 148.394 49.6002 151.843L53.1274 153.73C55.0853 150.069 57.1047 145.433 59.1896 139.846L55.442 138.447ZM49.5913 151.86C47.8285 155.232 45.3726 158.155 42.1973 160.634L44.6583 163.787C48.2617 160.975 51.0964 157.615 53.1363 153.713L49.5913 151.86ZM42.1973 160.634C39.2235 162.955 35.4239 164.178 30.6558 164.178V168.178C36.1383 168.178 40.8534 166.757 44.6583 163.787L42.1973 160.634ZM30.6558 164.178C25.6277 164.178 21.1589 162.946 17.196 160.507L15.0996 163.914C19.7341 166.766 24.9373 168.178 30.6558 168.178V164.178ZM17.2108 160.516C13.3551 158.097 10.2886 154.562 8.03406 149.82L4.42146 151.537C6.96166 156.88 10.5085 161.033 15.0848 163.905L17.2108 160.516ZM8.03406 149.82C5.79146 145.102 4.63176 139.416 4.63176 132.698H0.63176C0.63176 139.869 1.86946 146.169 4.42146 151.537L8.03406 149.82ZM91.2918 305.43L90.8457 307.38L93.2918 307.94V305.43H91.2918ZM3.49976 285.342H1.49976V286.936L3.05366 287.292L3.49976 285.342ZM3.49976 251.118L3.10006 249.159L1.49976 249.485V251.118H3.49976ZM53.3478 240.95L53.7475 242.91V238.991L53.3478 240.95ZM3.49976 230.782H1.49976V232.416L3.10006 232.742L3.49976 230.782ZM3.49976 196.558L3.05366 194.609L1.49976 194.964V196.558H3.49976ZM91.2918 176.47H93.2918V173.961L90.8457 174.521L91.2918 176.47ZM91.2918 206.106L91.5759 208.086L93.2918 207.84V206.106H91.2918ZM35.9878 214.042L35.7037 212.063L35.5669 215.998L35.9878 214.042ZM91.2918 225.946H93.2918V224.331L91.7126 223.991L91.2918 225.946ZM91.2918 255.954L91.7126 257.91L93.2918 257.57V255.954H91.2918ZM35.9878 267.858L35.5669 265.903L35.7037 269.838L35.9878 267.858ZM91.2918 275.794H93.2918V274.061L91.5759 273.815L91.2918 275.794ZM91.7379 303.481L3.94585 283.393L3.05366 287.292L90.8457 307.38L91.7379 303.481ZM5.49976 285.342V251.118H1.49976V285.342H5.49976ZM3.89945 253.078L53.7475 242.91L52.9481 238.991L3.10006 249.159L3.89945 253.078ZM53.7475 238.991L3.89945 228.823L3.10006 232.742L52.9481 242.91L53.7475 238.991ZM5.49976 230.782V196.558H1.49976V230.782H5.49976ZM3.94585 198.508L91.7379 178.42L90.8457 174.521L3.05366 194.609L3.94585 198.508ZM89.2918 176.47V206.106H93.2918V176.47H89.2918ZM91.0077 204.127L35.7037 212.063L36.2719 216.022L91.5759 208.086L91.0077 204.127ZM35.5669 215.998L90.8709 227.902L91.7126 223.991L36.4087 212.087L35.5669 215.998ZM89.2918 225.946V255.954H93.2918V225.946H89.2918ZM90.8709 253.999L35.5669 265.903L36.4087 269.814L91.7126 257.91L90.8709 253.999ZM35.7037 269.838L91.0077 277.774L91.5759 273.815L36.2719 265.879L35.7037 269.838ZM89.2918 275.794V305.43H93.2918V275.794H89.2918Z" fill="#E6D5B8"/>
</g>
<defs>
<clipPath id="clip0_244_158">
<rect width="308" height="95" fill="white" transform="translate(95.5 0.5) rotate(90)"/>
</clipPath>
</defs>
</svg>
