<svg width="308" height="95" viewBox="0 0 308 95" fill="none" xmlns="http://www.w3.org/2000/svg">
<path d="M63.2341 9.78796L62.2809 11.5462L62.2897 11.5509L63.2341 9.78796ZM79.2301 25.288L80.9733 24.3075L79.2301 25.288ZM79.2301 70.424L80.9785 71.3953L79.2301 70.424ZM63.2341 86.296L64.2036 88.0453L64.2107 88.0414L63.2341 86.296ZM2.59815 92H0.598145V94H2.59815V92ZM2.59815 4.20797V2.20797H0.598145V4.20797H2.59815ZM51.4541 62.364L52.8176 63.8272L51.4541 62.364ZM51.4541 33.348L52.8176 31.8848L51.4541 33.348ZM30.1261 28.264V26.264H28.1261V28.264H30.1261ZM30.1261 67.448H28.1261V69.448H30.1261V67.448ZM39.1781 6.20797C48.0798 6.20797 55.7598 8.01063 62.2809 11.5462L64.1874 8.02975C56.9859 4.12531 48.6285 2.20797 39.1781 2.20797V6.20797ZM62.2897 11.5509C68.912 15.0986 73.9608 19.9997 77.487 26.2685L80.9733 24.3075C77.0595 17.3496 71.4443 11.9174 64.1786 8.025L62.2897 11.5509ZM77.487 26.2685C81.0204 32.5502 82.8101 39.7284 82.8101 47.856H86.8101C86.8101 39.1196 84.8799 31.2525 80.9733 24.3075L77.487 26.2685ZM82.8101 47.856C82.8101 55.8968 81.0222 63.0801 77.4818 69.4527L80.9785 71.3953C84.8781 64.3759 86.8101 56.5138 86.8101 47.856H82.8101ZM77.4818 69.4527C73.9494 75.8111 68.8906 80.8393 62.2576 84.5506L64.2107 88.0414C71.4657 83.9821 77.0709 78.4289 80.9785 71.3953L77.4818 69.4527ZM62.2646 84.5467C55.7468 88.159 48.0728 90 39.1781 90V94C48.6355 94 56.9988 92.0383 64.2036 88.0453L62.2646 84.5467ZM39.1781 90H2.59815V94H39.1781V90ZM4.59814 92V4.20797H0.598145V92H4.59814ZM2.59815 6.20797H39.1781V2.20797H2.59815V6.20797ZM36.6981 69.448C43.2734 69.448 48.7244 67.6414 52.8176 63.8272L50.0907 60.9008C46.9093 63.8653 42.5229 65.448 36.6981 65.448V69.448ZM52.8176 63.8272C56.9623 59.9651 58.9101 54.5378 58.9101 47.856H54.9101C54.9101 53.7395 53.2206 57.9843 50.0907 60.9008L52.8176 63.8272ZM58.9101 47.856C58.9101 41.1742 56.9623 35.7469 52.8176 31.8848L50.0907 34.8112C53.2206 37.7277 54.9101 41.9725 54.9101 47.856H58.9101ZM52.8176 31.8848C48.7244 28.0706 43.2734 26.264 36.6981 26.264V30.264C42.5229 30.264 46.9093 31.8467 50.0907 34.8112L52.8176 31.8848ZM36.6981 26.264H30.1261V30.264H36.6981V26.264ZM28.1261 28.264V67.448H32.1261V28.264H28.1261ZM30.1261 69.448H36.6981V65.448H30.1261V69.448ZM106.158 85.552L104.977 87.1661L104.988 87.1742L105 87.1821L106.158 85.552ZM95.1225 63.852V61.852H92.997L93.1262 63.9735L95.1225 63.852ZM124.386 63.852L126.38 63.6886L126.229 61.852H124.386V63.852ZM134.802 70.424L135.912 72.0881L135.926 72.0784L135.941 72.0684L134.802 70.424ZM133.066 62.116L132.047 63.8366L132.071 63.8508L132.095 63.8643L133.066 62.116ZM122.65 57.652L121.985 59.538L121.988 59.5392L122.65 57.652ZM108.638 51.824L107.712 53.5965L107.72 53.6007L107.728 53.6049L108.638 51.824ZM99.2145 43.516L100.832 42.3397L99.2145 43.516ZM95.3705 29.504L97.3703 29.533L97.3705 29.5185V29.504H95.3705ZM99.7105 14.996L98.0987 13.8118L98.0945 13.8176L99.7105 14.996ZM111.738 5.81996L110.99 3.96505L110.98 3.96935L111.738 5.81996ZM154.518 10.16L153.279 11.7298L153.289 11.7376L154.518 10.16ZM164.562 31.116V33.116H166.637L166.561 31.0427L164.562 31.116ZM134.926 31.116L132.927 31.1826L132.992 33.116H134.926V31.116ZM125.998 25.412L127.413 26.8262L127.45 26.789L127.485 26.7499L125.998 25.412ZM128.106 33.596L127.058 35.2993L127.096 35.3227L127.135 35.3443L128.106 33.596ZM138.646 38.184L137.937 40.054L137.947 40.0578L138.646 38.184ZM152.286 44.136L151.343 45.8996L151.351 45.904L151.36 45.9085L152.286 44.136ZM161.71 52.072L160.134 53.3025L161.71 52.072ZM161.71 79.352L163.405 80.415L163.409 80.4076L163.414 80.4002L161.71 79.352ZM150.178 89.272L149.32 87.4657L150.178 89.272ZM132.198 90.868C122.011 90.868 113.764 88.5048 107.317 83.9219L105 87.1821C112.275 92.3538 121.388 94.868 132.198 94.868V90.868ZM107.339 83.9379C101.109 79.379 97.6667 72.7325 97.1188 63.7305L93.1262 63.9735C93.7356 73.9848 97.6506 81.805 104.977 87.1661L107.339 83.9379ZM95.1225 65.852H124.386V61.852H95.1225V65.852ZM122.393 64.0154C122.618 66.7619 123.359 69.14 124.873 70.8507C126.445 72.6267 128.611 73.416 131.082 73.416V69.416C129.503 69.416 128.528 68.9446 127.868 68.1993C127.15 67.3886 126.568 65.9847 126.38 63.6886L122.393 64.0154ZM131.082 73.416C132.867 73.416 134.518 73.0172 135.912 72.0881L133.693 68.7599C133.103 69.1534 132.274 69.416 131.082 69.416V73.416ZM135.941 72.0684C137.636 70.8946 138.414 69.1149 138.414 67.076H134.414C134.414 68.0131 134.118 68.4654 133.664 68.7796L135.941 72.0684ZM138.414 67.076C138.414 64.1017 136.728 61.8626 134.038 60.3677L132.095 63.8643C133.868 64.8494 134.414 65.917 134.414 67.076H138.414ZM134.086 60.3954C131.68 58.9696 128.057 57.4296 123.313 55.7648L121.988 59.5392C126.668 61.1811 129.989 62.6171 132.047 63.8366L134.086 60.3954ZM123.316 55.766C117.746 53.8002 113.164 51.891 109.549 50.0431L107.728 53.6049C111.553 55.5596 116.312 57.5358 121.985 59.538L123.316 55.766ZM109.565 50.0515C106.226 48.3063 103.314 45.752 100.832 42.3397L97.597 44.6923C100.406 48.5547 103.776 51.539 107.712 53.5965L109.565 50.0515ZM100.832 42.3397C98.5023 39.1364 97.2922 34.9217 97.3703 29.533L93.3707 29.475C93.2835 35.4943 94.636 40.6209 97.597 44.6923L100.832 42.3397ZM97.3705 29.504C97.3705 24.1527 98.7214 19.747 101.327 16.1743L98.0945 13.8176C94.9129 18.181 93.3705 23.4473 93.3705 29.504H97.3705ZM101.322 16.1801C104.062 12.4507 107.765 9.60995 112.497 7.67057L110.98 3.96935C105.627 6.16332 101.311 9.43991 98.0987 13.8118L101.322 16.1801ZM112.486 7.67485C117.341 5.71745 122.827 4.71997 128.974 4.71997V0.719971C122.391 0.719971 116.387 1.78915 110.99 3.96508L112.486 7.67485ZM128.974 4.71997C139.425 4.71997 147.454 7.1306 153.279 11.7297L155.758 8.5902C149.018 3.26933 140.017 0.719971 128.974 0.719971V4.71997ZM153.289 11.7376C159.13 16.289 162.252 22.6911 162.564 31.1893L166.561 31.0427C166.212 21.5196 162.637 13.951 155.748 8.58237L153.289 11.7376ZM164.562 29.116H134.926V33.116H164.562V29.116ZM136.925 31.0494C136.835 28.332 136.149 25.9167 134.427 24.3184L131.705 27.2496C132.299 27.8006 132.853 28.94 132.927 31.1826L136.925 31.0494ZM134.427 24.3184C132.881 22.8829 130.982 22.172 128.85 22.172V26.172C130.025 26.172 130.937 26.5357 131.705 27.2496L134.427 24.3184ZM128.85 22.172C127.152 22.172 125.652 22.8069 124.512 24.0741L127.485 26.7499C127.833 26.3637 128.234 26.172 128.85 26.172V22.172ZM124.584 23.9978C123.353 25.2294 122.882 26.8841 122.882 28.636H126.882C126.882 27.5773 127.156 27.0826 127.413 26.8262L124.584 23.9978ZM122.882 28.636C122.882 31.5062 124.501 33.7259 127.058 35.2993L129.155 31.8927C127.413 30.8207 126.882 29.7338 126.882 28.636H122.882ZM127.135 35.3443C129.499 36.6574 133.123 38.228 137.937 40.054L139.356 36.314C134.58 34.5027 131.178 33.0146 129.078 31.8477L127.135 35.3443ZM137.947 40.0578C143.437 42.1062 147.894 44.0549 151.343 45.8996L153.23 42.3724C149.569 40.4145 144.933 38.3951 139.346 36.3102L137.947 40.0578ZM151.36 45.9085C154.732 47.6713 157.655 50.1272 160.134 53.3025L163.287 50.8415C160.475 47.2381 157.115 44.4034 153.213 42.3635L151.36 45.9085ZM160.134 53.3025C162.455 56.2763 163.678 60.0759 163.678 64.844H167.678C167.678 59.3615 166.257 54.6464 163.287 50.8415L160.134 53.3025ZM163.678 64.844C163.678 69.8721 162.446 74.3409 160.007 78.3038L163.414 80.4002C166.266 75.7657 167.678 70.5625 167.678 64.844H163.678ZM160.016 78.289C157.597 82.1447 154.062 85.2112 149.32 87.4657L151.037 91.0783C156.38 88.5381 160.533 84.9913 163.405 80.415L160.016 78.289ZM149.32 87.4657C144.602 89.7083 138.916 90.868 132.198 90.868V94.868C139.369 94.868 145.669 93.6303 151.037 91.0783L149.32 87.4657ZM304.93 4.20797L306.88 4.65407L307.44 2.20797H304.93V4.20797ZM284.842 92V94H286.436L286.792 92.4461L284.842 92ZM250.618 92L248.659 92.3997L248.985 94H250.618V92ZM240.45 42.152L242.41 41.7523H238.491L240.45 42.152ZM230.282 92V94H231.916L232.242 92.3997L230.282 92ZM196.058 92L194.109 92.4461L194.464 94H196.058V92ZM175.97 4.20797V2.20797H173.461L174.021 4.65407L175.97 4.20797ZM205.606 4.20797L207.586 3.92388L207.34 2.20797H205.606V4.20797ZM213.542 59.512L211.563 59.7961L215.498 59.9329L213.542 59.512ZM225.446 4.20797V2.20797H223.831L223.491 3.78712L225.446 4.20797ZM255.454 4.20797L257.41 3.78712L257.07 2.20797H255.454V4.20797ZM267.358 59.512L265.403 59.9329L269.338 59.7961L267.358 59.512ZM275.294 4.20797V2.20797H273.561L273.315 3.92388L275.294 4.20797ZM302.981 3.76187L282.893 91.5539L286.792 92.4461L306.88 4.65407L302.981 3.76187ZM284.842 90H250.618V94H284.842V90ZM252.578 91.6003L242.41 41.7523L238.491 42.5517L248.659 92.3997L252.578 91.6003ZM238.491 41.7523L228.323 91.6003L232.242 92.3997L242.41 42.5517L238.491 41.7523ZM230.282 90H196.058V94H230.282V90ZM198.008 91.5539L177.92 3.76187L174.021 4.65407L194.109 92.4461L198.008 91.5539ZM175.97 6.20797H205.606V2.20797H175.97V6.20797ZM203.627 4.49205L211.563 59.7961L215.522 59.2279L207.586 3.92388L203.627 4.49205ZM215.498 59.9329L227.402 4.62882L223.491 3.78712L211.587 59.0911L215.498 59.9329ZM225.446 6.20797H255.454V2.20797H225.446V6.20797ZM253.499 4.62882L265.403 59.9329L269.314 59.0911L257.41 3.78712L253.499 4.62882ZM269.338 59.7961L277.274 4.49206L273.315 3.92388L265.379 59.2279L269.338 59.7961ZM275.294 6.20797H304.93V2.20797H275.294V6.20797Z" fill="#E6D5B8"/>
</svg>
