<svg width="583" height="78" viewBox="0 0 583 78" fill="none" xmlns="http://www.w3.org/2000/svg">
<path d="M24.8945 21.3689V19.3689H22.8945V21.3689H24.8945ZM24.8945 30.1559H22.8945V32.1559H24.8945V30.1559ZM47.1145 30.1559H49.1145V28.1559H47.1145V30.1559ZM47.1145 47.0229V49.0229H49.1145V47.0229H47.1145ZM24.8945 47.0229V45.0229H22.8945V47.0229H24.8945ZM24.8945 57.1229H22.8945V59.1229H24.8945V57.1229ZM50.1445 57.1229H52.1445V55.1229H50.1445V57.1229ZM50.1445 74.9999V76.9999H52.1445V74.9999H50.1445ZM2.47242 74.9999H0.472412V76.9999H2.47242V74.9999ZM2.47242 3.49191V1.49191H0.472412V3.49191H2.47242ZM50.1445 3.49191H52.1445V1.49191H50.1445V3.49191ZM50.1445 21.3689V23.3689H52.1445V21.3689H50.1445ZM22.8945 21.3689V30.1559H26.8945V21.3689H22.8945ZM24.8945 32.1559H47.1145V28.1559H24.8945V32.1559ZM45.1145 30.1559V47.0229H49.1145V30.1559H45.1145ZM47.1145 45.0229H24.8945V49.0229H47.1145V45.0229ZM22.8945 47.0229V57.1229H26.8945V47.0229H22.8945ZM24.8945 59.1229H50.1445V55.1229H24.8945V59.1229ZM48.1445 57.1229V74.9999H52.1445V57.1229H48.1445ZM50.1445 72.9999H2.47242V76.9999H50.1445V72.9999ZM4.47241 74.9999V3.49191H0.472412V74.9999H4.47241ZM2.47242 5.49191H50.1445V1.49191H2.47242V5.49191ZM48.1445 3.49191V21.3689H52.1445V3.49191H48.1445ZM50.1445 19.3689H24.8945V23.3689H50.1445V19.3689ZM106.671 74.9999L105.037 76.154L105.635 76.9999H106.671V74.9999ZM93.5405 56.4159L95.174 55.2618L93.385 52.7298L91.8157 55.4035L93.5405 56.4159ZM82.6325 74.9999V76.9999H83.7777L84.3574 76.0123L82.6325 74.9999ZM57.0795 74.9999L55.3937 73.9238L53.4301 76.9999H57.0795V74.9999ZM80.6125 38.1349L82.2983 39.211L83.0224 38.0768L82.2445 36.9787L80.6125 38.1349ZM56.0695 3.49191V1.49191H52.2016L54.4376 4.64808L56.0695 3.49191ZM82.6325 3.49191L84.2662 2.33818L83.6686 1.49191H82.6325V3.49191ZM95.2575 21.3689L93.6238 22.5226L95.4118 25.0543L96.9819 22.3821L95.2575 21.3689ZM105.762 3.49191V1.49191H104.617L104.037 2.47872L105.762 3.49191ZM131.315 3.49191L132.999 4.56962L134.968 1.49191H131.315V3.49191ZM108.186 39.6499L106.501 38.5722L105.775 39.707L106.554 40.8062L108.186 39.6499ZM133.234 74.9999V76.9999H137.102L134.865 73.8436L133.234 74.9999ZM108.304 73.8458L95.174 55.2618L91.9071 57.57L105.037 76.154L108.304 73.8458ZM91.8157 55.4035L80.9077 73.9875L84.3574 76.0123L95.2654 57.4283L91.8157 55.4035ZM82.6325 72.9999H57.0795V76.9999H82.6325V72.9999ZM58.7653 76.076L82.2983 39.211L78.9267 37.0588L55.3937 73.9238L58.7653 76.076ZM82.2445 36.9787L57.7015 2.33575L54.4376 4.64808L78.9806 39.2911L82.2445 36.9787ZM56.0695 5.49191H82.6325V1.49191H56.0695V5.49191ZM80.9988 4.64564L93.6238 22.5226L96.8912 20.2152L84.2662 2.33818L80.9988 4.64564ZM96.9819 22.3821L107.486 4.5051L104.037 2.47872L93.5332 20.3557L96.9819 22.3821ZM105.762 5.49191H131.315V1.49191H105.762V5.49191ZM129.63 2.41421L106.501 38.5722L109.87 40.7276L132.999 4.56962L129.63 2.41421ZM106.554 40.8062L131.602 76.1562L134.865 73.8436L109.817 38.4936L106.554 40.8062ZM133.234 72.9999H106.671V76.9999H133.234V72.9999ZM163.197 21.3689V19.3689H161.197V21.3689H163.197ZM163.197 30.1559H161.197V32.1559H163.197V30.1559ZM185.417 30.1559H187.417V28.1559H185.417V30.1559ZM185.417 47.0229V49.0229H187.417V47.0229H185.417ZM163.197 47.0229V45.0229H161.197V47.0229H163.197ZM163.197 57.1229H161.197V59.1229H163.197V57.1229ZM188.447 57.1229H190.447V55.1229H188.447V57.1229ZM188.447 74.9999V76.9999H190.447V74.9999H188.447ZM140.775 74.9999H138.775V76.9999H140.775V74.9999ZM140.775 3.49191V1.49191H138.775V3.49191H140.775ZM188.447 3.49191H190.447V1.49191H188.447V3.49191ZM188.447 21.3689V23.3689H190.447V21.3689H188.447ZM161.197 21.3689V30.1559H165.197V21.3689H161.197ZM163.197 32.1559H185.417V28.1559H163.197V32.1559ZM183.417 30.1559V47.0229H187.417V30.1559H183.417ZM185.417 45.0229H163.197V49.0229H185.417V45.0229ZM161.197 47.0229V57.1229H165.197V47.0229H161.197ZM163.197 59.1229H188.447V55.1229H163.197V59.1229ZM186.447 57.1229V74.9999H190.447V57.1229H186.447ZM188.447 72.9999H140.775V76.9999H188.447V72.9999ZM142.775 74.9999V3.49191H138.775V74.9999H142.775ZM140.775 5.49191H188.447V1.49191H140.775V5.49191ZM186.447 3.49191V21.3689H190.447V3.49191H186.447ZM188.447 19.3689H163.197V23.3689H188.447V19.3689ZM201.644 20.2579L199.873 19.3291L199.869 19.3376L199.864 19.3461L201.644 20.2579ZM213.966 7.43091L214.956 9.16875L214.965 9.16404L214.973 9.15926L213.966 7.43091ZM249.316 6.31991L248.442 8.11864L248.457 8.1259L248.472 8.13291L249.316 6.31991ZM261.234 16.1169L259.607 17.2794L259.613 17.2879L259.619 17.2963L261.234 16.1169ZM267.395 30.9639V32.9639H269.784L269.364 30.6123L267.395 30.9639ZM243.761 30.9639L241.943 31.7954L242.477 32.9639H243.761V30.9639ZM239.115 25.5099L237.98 27.1563L238.012 27.1786L238.045 27.1995L239.115 25.5099ZM223.359 27.7319L221.787 26.4963L221.778 26.508L221.769 26.5198L223.359 27.7319ZM223.359 50.5579L221.769 51.77L221.778 51.7818L221.787 51.7935L223.359 50.5579ZM239.115 52.8809L240.212 54.5538L240.218 54.5494L240.225 54.545L239.115 52.8809ZM243.761 47.3259V45.3259H242.477L241.943 46.4944L243.761 47.3259ZM267.395 47.3259L269.364 47.6775L269.784 45.3259H267.395V47.3259ZM261.234 62.1729L259.619 60.9935L259.613 61.0019L259.607 61.0104L261.234 62.1729ZM249.316 72.0709L250.17 73.8794L250.181 73.8743L249.316 72.0709ZM213.966 70.9599L212.96 72.6883L212.968 72.693L212.977 72.6977L213.966 70.9599ZM201.644 58.0319L199.864 58.9437L199.869 58.9522L199.873 58.9607L201.644 58.0319ZM199.402 39.1449C199.402 32.3474 200.76 26.3716 203.425 21.1696L199.864 19.3461C196.873 25.1869 195.402 31.8024 195.402 39.1449H199.402ZM203.416 21.1867C206.137 15.9976 209.976 12.0057 214.956 9.16875L212.977 5.69307C207.318 8.91611 202.943 13.4755 199.873 19.3291L203.416 21.1867ZM214.973 9.15926C219.938 6.26814 225.841 4.78491 232.752 4.78491V0.784912C225.255 0.784912 218.634 2.39901 212.96 5.70256L214.973 9.15926ZM232.752 4.78491C238.689 4.78491 243.904 5.91287 248.442 8.11864L250.191 4.52117C245.032 2.01361 239.205 0.784912 232.752 0.784912V4.78491ZM248.472 8.13291C253.088 10.2827 256.786 13.3296 259.607 17.2794L262.862 14.9544C259.623 10.4202 255.376 6.93582 250.161 4.50691L248.472 8.13291ZM259.619 17.2963C262.521 21.2704 264.465 25.9302 265.427 31.3155L269.364 30.6123C268.306 24.6856 266.143 19.4474 262.85 14.9375L259.619 17.2963ZM267.395 28.9639H243.761V32.9639H267.395V28.9639ZM245.58 30.1324C244.356 27.4539 242.561 25.3244 240.186 23.8203L238.045 27.1995C239.71 28.254 241.012 29.7605 241.943 31.7954L245.58 30.1324ZM240.251 23.8635C237.938 22.2682 235.279 21.4899 232.348 21.4899V25.4899C234.535 25.4899 236.388 26.0583 237.98 27.1563L240.251 23.8635ZM232.348 21.4899C227.999 21.4899 224.409 23.1592 221.787 26.4963L224.932 28.9675C226.754 26.6486 229.157 25.4899 232.348 25.4899V21.4899ZM221.769 26.5198C219.27 29.7989 218.127 34.076 218.127 39.1449H222.127C222.127 34.6524 223.139 31.3208 224.95 28.944L221.769 26.5198ZM218.127 39.1449C218.127 44.2138 219.27 48.4908 221.769 51.77L224.95 49.3458C223.139 46.9689 222.127 43.6374 222.127 39.1449H218.127ZM221.787 51.7935C224.409 55.1306 227.999 56.7999 232.348 56.7999V52.7999C229.157 52.7999 226.754 51.6412 224.932 49.3223L221.787 51.7935ZM232.348 56.7999C235.258 56.7999 237.902 56.0669 240.212 54.5538L238.019 51.208C236.424 52.2535 234.557 52.7999 232.348 52.7999V56.7999ZM240.225 54.545C242.575 52.9781 244.359 50.8284 245.58 48.1574L241.943 46.4944C241.009 48.5367 239.696 50.0903 238.006 51.2168L240.225 54.545ZM243.761 49.3259H267.395V45.3259H243.761V49.3259ZM265.427 46.9743C264.465 52.3596 262.521 57.0194 259.619 60.9935L262.85 63.3523C266.143 58.8424 268.306 53.6042 269.364 47.6775L265.427 46.9743ZM259.607 61.0104C256.782 64.9651 253.077 68.0498 248.452 70.2675L250.181 73.8743C255.386 71.3787 259.627 67.8647 262.862 63.3354L259.607 61.0104ZM248.462 70.2624C243.92 72.4074 238.698 73.5049 232.752 73.5049V77.5049C239.197 77.5049 245.017 76.313 250.17 73.8794L248.462 70.2624ZM232.752 73.5049C225.833 73.5049 219.925 72.0521 214.956 69.2221L212.977 72.6977C218.647 75.9277 225.262 77.5049 232.752 77.5049V73.5049ZM214.973 69.2315C209.983 66.3261 206.139 62.2958 203.416 57.1031L199.873 58.9607C202.941 64.8107 207.311 69.3991 212.96 72.6883L214.973 69.2315ZM203.425 57.1201C200.76 51.9182 199.402 45.9424 199.402 39.1449H195.402C195.402 46.4874 196.873 53.1029 199.864 58.9437L203.425 57.1201ZM299.91 3.49191H301.91V1.49191H299.91V3.49191ZM302.031 51.6689L300.411 52.8419L300.434 52.8737L300.459 52.9045L302.031 51.6689ZM316.272 51.6689L317.818 52.9384L317.829 52.9251L317.839 52.9117L316.272 51.6689ZM318.595 3.49191V1.49191H316.595V3.49191H318.595ZM340.916 3.49191H342.916V1.49191H340.916V3.49191ZM336.674 61.2639L338.396 62.2822L338.402 62.2716L336.674 61.2639ZM325.059 72.0709L325.944 73.8646L325.059 72.0709ZM292.436 72.0709L291.511 73.8441L291.522 73.8495L292.436 72.0709ZM281.528 61.2639L279.775 62.2268L281.528 61.2639ZM277.589 3.49191V1.49191H275.589V3.49191H277.589ZM297.91 3.49191V43.7909H301.91V3.49191H297.91ZM297.91 43.7909C297.91 47.3594 298.674 50.4426 300.411 52.8419L303.651 50.4959C302.561 48.9899 301.91 46.8211 301.91 43.7909H297.91ZM300.459 52.9045C302.441 55.4276 305.484 56.4969 309.101 56.4969V52.4969C306.254 52.4969 304.584 51.6809 303.604 50.4333L300.459 52.9045ZM309.101 56.4969C312.724 56.4969 315.775 55.4259 317.818 52.9384L314.727 50.3994C313.673 51.6826 311.943 52.4969 309.101 52.4969V56.4969ZM317.839 52.9117C319.748 50.5056 320.595 47.395 320.595 43.7909H316.595C316.595 46.7855 315.894 48.9268 314.705 50.4261L317.839 52.9117ZM320.595 43.7909V3.49191H316.595V43.7909H320.595ZM318.595 5.49191H340.916V1.49191H318.595V5.49191ZM338.916 3.49191V43.7909H342.916V3.49191H338.916ZM338.916 43.7909C338.916 50.3123 337.562 55.7728 334.947 60.2562L338.402 62.2716C341.443 57.059 342.916 50.8708 342.916 43.7909H338.916ZM334.953 60.2456C332.32 64.6968 328.737 68.0274 324.175 70.2772L325.944 73.8646C331.213 71.2664 335.373 67.3923 338.396 62.2822L334.953 60.2456ZM324.175 70.2772C319.563 72.5517 314.382 73.7069 308.596 73.7069V77.7069C314.93 77.7069 320.725 76.4381 325.944 73.8646L324.175 70.2772ZM308.596 73.7069C302.809 73.7069 297.743 72.5512 293.351 70.2923L291.522 73.8495C296.556 76.4386 302.264 77.7069 308.596 77.7069V73.7069ZM293.361 70.2977C289.08 68.064 285.726 64.7508 283.281 60.301L279.775 62.2268C282.583 67.3384 286.501 71.2298 291.511 73.8441L293.361 70.2977ZM283.281 60.301C280.854 55.8823 279.589 50.4079 279.589 43.7909H275.589C275.589 50.9099 276.951 57.0841 279.775 62.2268L283.281 60.301ZM279.589 43.7909V3.49191H275.589V43.7909H279.589ZM277.589 5.49191H299.91V1.49191H277.589V5.49191ZM409.268 3.49191H411.268V1.49191H409.268V3.49191ZM409.268 21.2679V23.2679H411.268V21.2679H409.268ZM390.28 21.2679V19.2679H388.28V21.2679H390.28ZM390.28 74.9999V76.9999H392.28V74.9999H390.28ZM367.858 74.9999H365.858V76.9999H367.858V74.9999ZM367.858 21.2679H369.858V19.2679H367.858V21.2679ZM349.072 21.2679H347.072V23.2679H349.072V21.2679ZM349.072 3.49191V1.49191H347.072V3.49191H349.072ZM407.268 3.49191V21.2679H411.268V3.49191H407.268ZM409.268 19.2679H390.28V23.2679H409.268V19.2679ZM388.28 21.2679V74.9999H392.28V21.2679H388.28ZM390.28 72.9999H367.858V76.9999H390.28V72.9999ZM369.858 74.9999V21.2679H365.858V74.9999H369.858ZM367.858 19.2679H349.072V23.2679H367.858V19.2679ZM351.072 21.2679V3.49191H347.072V21.2679H351.072ZM349.072 5.49191H409.268V1.49191H349.072V5.49191ZM440.296 3.49191H442.296V1.49191H440.296V3.49191ZM440.296 74.9999V76.9999H442.296V74.9999H440.296ZM417.874 74.9999H415.874V76.9999H417.874V74.9999ZM417.874 3.49191V1.49191H415.874V3.49191H417.874ZM438.296 3.49191V74.9999H442.296V3.49191H438.296ZM440.296 72.9999H417.874V76.9999H440.296V72.9999ZM419.874 74.9999V3.49191H415.874V74.9999H419.874ZM417.874 5.49191H440.296V1.49191H417.874V5.49191ZM524.961 3.49191L526.857 4.12918L527.744 1.49191H524.961V3.49191ZM500.923 74.9999V76.9999H502.361L502.819 75.6372L500.923 74.9999ZM471.936 74.9999L470.04 75.6372L470.499 76.9999H471.936V74.9999ZM447.898 3.49191V1.49191H445.116L446.002 4.12918L447.898 3.49191ZM471.734 3.49191L473.65 2.91758L473.223 1.49191H471.734V3.49191ZM486.48 52.6789L484.564 53.2532L486.487 59.6654L488.397 53.2496L486.48 52.6789ZM501.125 3.49191V1.49191H499.634L499.208 2.92119L501.125 3.49191ZM523.065 2.85464L499.027 74.3626L502.819 75.6372L526.857 4.12918L523.065 2.85464ZM500.923 72.9999H471.936V76.9999H500.923V72.9999ZM473.832 74.3626L449.794 2.85464L446.002 4.12918L470.04 75.6372L473.832 74.3626ZM447.898 5.49191H471.734V1.49191H447.898V5.49191ZM469.818 4.06624L484.564 53.2532L488.396 52.1046L473.65 2.91758L469.818 4.06624ZM488.397 53.2496L503.042 4.06263L499.208 2.92119L484.563 52.1082L488.397 53.2496ZM501.125 5.49191H524.961V1.49191H501.125V5.49191ZM554.927 21.3689V19.3689H552.927V21.3689H554.927ZM554.927 30.1559H552.927V32.1559H554.927V30.1559ZM577.147 30.1559H579.147V28.1559H577.147V30.1559ZM577.147 47.0229V49.0229H579.147V47.0229H577.147ZM554.927 47.0229V45.0229H552.927V47.0229H554.927ZM554.927 57.1229H552.927V59.1229H554.927V57.1229ZM580.177 57.1229H582.177V55.1229H580.177V57.1229ZM580.177 74.9999V76.9999H582.177V74.9999H580.177ZM532.505 74.9999H530.505V76.9999H532.505V74.9999ZM532.505 3.49191V1.49191H530.505V3.49191H532.505ZM580.177 3.49191H582.177V1.49191H580.177V3.49191ZM580.177 21.3689V23.3689H582.177V21.3689H580.177ZM552.927 21.3689V30.1559H556.927V21.3689H552.927ZM554.927 32.1559H577.147V28.1559H554.927V32.1559ZM575.147 30.1559V47.0229H579.147V30.1559H575.147ZM577.147 45.0229H554.927V49.0229H577.147V45.0229ZM552.927 47.0229V57.1229H556.927V47.0229H552.927ZM554.927 59.1229H580.177V55.1229H554.927V59.1229ZM578.177 57.1229V74.9999H582.177V57.1229H578.177ZM580.177 72.9999H532.505V76.9999H580.177V72.9999ZM534.505 74.9999V3.49191H530.505V74.9999H534.505ZM532.505 5.49191H580.177V1.49191H532.505V5.49191ZM578.177 3.49191V21.3689H582.177V3.49191H578.177ZM580.177 19.3689H554.927V23.3689H580.177V19.3689Z" fill="#E6D5B8"/>
</svg>
