<svg width="160" height="630" viewBox="0 0 160 630" fill="none" xmlns="http://www.w3.org/2000/svg">
<g clip-path="url(#clip0_244_156)">
<path d="M3.06813 463.053L3.06813 461.053H1.06813L1.06813 463.053H3.06813ZM16.9721 463.053H18.9721V461.053H16.9721V463.053ZM16.9721 485.015H14.9721V487.015H16.9721V485.015ZM24.7141 485.015V487.015H26.7141V485.015H24.7141ZM24.7141 469.215V467.215H22.7141V469.215H24.7141ZM37.9071 469.215H39.9071V467.215H37.9071V469.215ZM37.9071 485.015H35.9071V487.015H37.9071V485.015ZM59.0001 485.015H61.0001V483.015H59.0001V485.015ZM59.0001 502.553V504.553H61.0001V502.553H59.0001ZM3.06813 502.553H1.06813L1.06813 504.553H3.06813V502.553ZM3.06813 465.053H16.9721V461.053H3.06813L3.06813 465.053ZM14.9721 463.053L14.9721 485.015H18.9721L18.9721 463.053H14.9721ZM16.9721 487.015H24.7141V483.015H16.9721V487.015ZM26.7141 485.015L26.7141 469.215H22.7141L22.7141 485.015H26.7141ZM24.7141 471.215H37.9071V467.215H24.7141V471.215ZM35.9071 469.215V485.015H39.9071V469.215H35.9071ZM37.9071 487.015H59.0001V483.015H37.9071V487.015ZM57.0001 485.015L57.0001 502.553H61.0001L61.0001 485.015H57.0001ZM59.0001 500.553H3.06813L3.06813 504.553H59.0001L59.0001 500.553ZM5.06813 502.553L5.06813 463.053H1.06813L1.06813 502.553H5.06813ZM50.5471 419.271L49.9253 417.37L48.5471 417.821V419.271H50.5471ZM50.5471 437.915H48.5471V439.365L49.9253 439.816L50.5471 437.915ZM59.0001 440.68H61.0001V439.23L59.6219 438.779L59.0001 440.68ZM59.0001 459.087L58.313 460.965L61.0001 461.948V459.087H59.0001ZM3.06813 438.626H1.06813L1.06813 440.024L2.38103 440.504L3.06813 438.626ZM3.06813 418.402L2.38337 416.523L1.06813 417.002L1.06813 418.402H3.06813ZM59.0001 398.02H61.0001V395.163L58.3153 396.141L59.0001 398.02ZM59.0001 416.506L59.6219 418.407L61.0001 417.956V416.506H59.0001ZM37.3541 423.537H39.3541V420.785L36.7361 421.635L37.3541 423.537ZM21.7911 428.593L21.1731 426.691L15.3181 428.593L21.1731 430.495L21.7911 428.593ZM37.3541 433.649L36.7361 435.551L39.3541 436.402V433.649H37.3541ZM48.5471 419.271L48.5471 437.915H52.5471L52.5471 419.271H48.5471ZM49.9253 439.816L58.3783 442.581L59.6219 438.779L51.1689 436.014L49.9253 439.816ZM57.0001 440.68V459.087H61.0001V440.68H57.0001ZM59.6872 457.209L3.75524 436.748L2.38103 440.504L58.313 460.965L59.6872 457.209ZM5.06813 438.626L5.06813 418.402H1.06813L1.06813 438.626H5.06813ZM3.75289 420.281L59.6849 399.899L58.3153 396.141L2.38337 416.523L3.75289 420.281ZM57.0001 398.02V416.506H61.0001V398.02H57.0001ZM58.3783 414.605L49.9253 417.37L51.1689 421.172L59.6219 418.407L58.3783 414.605ZM36.7361 421.635L21.1731 426.691L22.4091 430.495L37.9721 425.439L36.7361 421.635ZM21.1731 430.495L36.7361 435.551L37.9721 431.747L22.4091 426.691L21.1731 430.495ZM39.3541 433.649L39.3541 423.537H35.3541L35.3541 433.649H39.3541ZM16.1821 390.323L15.2533 392.094L15.2618 392.098L15.2703 392.103L16.1821 390.323ZM6.14913 380.685L7.88697 379.695L7.88226 379.686L7.87748 379.678L6.14913 380.685ZM5.28013 353.035L7.07886 353.909L7.08612 353.894L7.09313 353.879L5.28013 353.035ZM12.9431 343.713L14.1056 345.34L14.1141 345.334L14.1225 345.328L12.9431 343.713ZM24.5561 338.894H26.5561V336.505L24.2045 336.925L24.5561 338.894ZM24.5561 357.38L25.3876 359.199L26.5561 358.664V357.38H24.5561ZM20.2901 361.014L21.9365 362.149L21.9588 362.117L21.9797 362.084L20.2901 361.014ZM22.0281 373.338L20.7925 374.91L20.8042 374.919L20.816 374.929L22.0281 373.338ZM39.8821 373.338L41.0942 374.929L41.106 374.919L41.1177 374.91L39.8821 373.338ZM41.6991 361.014L43.372 359.918L43.3676 359.911L43.3632 359.904L41.6991 361.014ZM37.3541 357.38H35.3541V358.664L36.5226 359.199L37.3541 357.38ZM37.3541 338.894L37.7057 336.925L35.3541 336.505V338.894H37.3541ZM48.9671 343.713L47.7877 345.328L47.7961 345.334L47.8046 345.34L48.9671 343.713ZM56.7091 353.035L58.5176 352.181L58.5125 352.17L56.7091 353.035ZM55.8401 380.685L57.5685 381.691L57.5732 381.683L57.5779 381.675L55.8401 380.685ZM45.7281 390.323L46.6399 392.103L46.6484 392.098L46.6569 392.094L45.7281 390.323ZM30.9551 391.641C25.6976 391.641 21.0931 390.591 17.0938 388.543L15.2703 392.103C19.9084 394.478 25.1526 395.641 30.9551 395.641V391.641ZM17.1109 388.551C13.1245 386.461 10.0639 383.517 7.88697 379.695L4.41129 381.675C6.97433 386.174 10.6023 389.655 15.2533 392.094L17.1109 388.551ZM7.87748 379.678C5.66103 375.872 4.51513 371.333 4.51513 365.991H0.515137C0.515137 371.919 1.7919 377.176 4.42078 381.691L7.87748 379.678ZM4.51513 365.991C4.51513 361.403 5.38642 357.391 7.07886 353.909L3.48139 352.16C1.48717 356.263 0.515137 360.888 0.515137 365.991H4.51513ZM7.09313 353.879C8.74422 350.334 11.0798 347.501 14.1056 345.34L11.7806 342.085C8.17039 344.664 5.39737 348.046 3.46713 352.19L7.09313 353.879ZM14.1225 345.328C17.1726 343.101 20.7544 341.604 24.9077 340.863L24.2045 336.925C19.5098 337.763 15.3496 339.479 11.7637 342.097L14.1225 345.328ZM22.5561 338.894L22.5561 357.38H26.5561L26.5561 338.894H22.5561ZM23.7246 355.561C21.5595 356.55 19.826 358.009 18.6005 359.944L21.9797 362.084C22.7556 360.859 23.8661 359.894 25.3876 359.199L23.7246 355.561ZM18.6437 359.878C17.3417 361.766 16.7101 363.933 16.7101 366.307H20.7101C20.7101 364.677 21.1318 363.316 21.9365 362.149L18.6437 359.878ZM16.7101 366.307C16.7101 369.835 18.0714 372.772 20.7925 374.91L23.2637 371.765C21.5608 370.427 20.7101 368.677 20.7101 366.307H16.7101ZM20.816 374.929C23.4791 376.958 26.9276 377.866 30.9551 377.866V373.866C27.504 373.866 25.001 373.088 23.2402 371.747L20.816 374.929ZM30.9551 377.866C34.9826 377.866 38.431 376.958 41.0942 374.929L38.67 371.747C36.9091 373.088 34.4062 373.866 30.9551 373.866V377.866ZM41.1177 374.91C43.8388 372.772 45.2001 369.835 45.2001 366.307H41.2001C41.2001 368.677 40.3494 370.427 38.6465 371.765L41.1177 374.91ZM45.2001 366.307C45.2001 363.955 44.6065 361.802 43.372 359.918L40.0262 362.11C40.7931 363.28 41.2001 364.656 41.2001 366.307H45.2001ZM43.3632 359.904C42.0897 357.994 40.3433 356.547 38.1856 355.561L36.5226 359.199C38.0516 359.898 39.2019 360.873 40.035 362.123L43.3632 359.904ZM39.3541 357.38L39.3541 338.894H35.3541L35.3541 357.38H39.3541ZM37.0025 340.863C41.1558 341.604 44.7376 343.101 47.7877 345.328L50.1465 342.097C46.5606 339.479 42.4004 337.763 37.7057 336.925L37.0025 340.863ZM47.8046 345.34C50.8353 347.505 53.2013 350.344 54.9057 353.899L58.5125 352.17C56.5302 348.035 53.7349 344.66 50.1296 342.085L47.8046 345.34ZM54.9006 353.889C56.547 357.375 57.3951 361.395 57.3951 365.991H61.3951C61.3951 360.896 60.4526 356.278 58.5176 352.181L54.9006 353.889ZM57.3951 365.991C57.3951 371.341 56.2723 375.885 54.1023 379.695L57.5779 381.675C60.1479 377.163 61.3951 371.911 61.3951 365.991H57.3951ZM54.1117 379.678C51.8809 383.509 48.7893 386.459 44.7993 388.551L46.6569 392.094C51.3042 389.657 54.9539 386.181 57.5685 381.691L54.1117 379.678ZM44.8163 388.543C40.8171 390.591 36.2126 391.641 30.9551 391.641V395.641C36.7576 395.641 42.0018 394.478 46.6399 392.103L44.8163 388.543ZM3.06813 313.461L3.06813 311.461H1.06813L1.06813 313.461H3.06813ZM40.7511 311.802L41.9241 313.422L41.9559 313.399L41.9867 313.375L40.7511 311.802ZM40.7511 300.663L42.0206 299.118L42.0073 299.107L41.9939 299.096L40.7511 300.663ZM3.06813 298.846H1.06813L1.06813 300.846H3.06813L3.06813 298.846ZM3.06813 281.387L3.06813 279.387H1.06813L1.06813 281.387H3.06813ZM48.2561 284.705L49.2744 282.984L49.2638 282.978L48.2561 284.705ZM56.7091 293.79L58.5028 292.906L56.7091 293.79ZM56.7091 319.307L58.4823 320.232L58.4877 320.222L56.7091 319.307ZM48.2561 327.839L49.219 329.592L48.2561 327.839ZM3.06813 330.92H1.06813L1.06813 332.92H3.06813L3.06813 330.92ZM3.06813 315.461H34.5891V311.461H3.06813L3.06813 315.461ZM34.5891 315.461C37.4389 315.461 39.9501 314.852 41.9241 313.422L39.5781 310.182C38.4974 310.965 36.9006 311.461 34.5891 311.461V315.461ZM41.9867 313.375C44.0991 311.715 44.9631 309.185 44.9631 306.272H40.9631C40.9631 308.415 40.3524 309.572 39.5155 310.23L41.9867 313.375ZM44.9631 306.272C44.9631 303.354 44.0974 300.824 42.0206 299.118L39.4816 302.209C40.3541 302.925 40.9631 304.135 40.9631 306.272H44.9631ZM41.9939 299.096C40.0132 297.525 37.4745 296.846 34.5891 296.846V300.846C36.865 300.846 38.4344 301.378 39.5083 302.23L41.9939 299.096ZM34.5891 296.846H3.06813L3.06813 300.846H34.5891V296.846ZM5.06813 298.846L5.06813 281.387H1.06813L1.06813 298.846H5.06813ZM3.06813 283.387H34.5891L34.5891 279.387H3.06813L3.06813 283.387ZM34.5891 283.387C39.6292 283.387 43.821 284.433 47.2484 286.433L49.2638 282.978C45.1072 280.553 40.1877 279.387 34.5891 279.387L34.5891 283.387ZM47.2378 286.427C50.6477 288.444 53.1936 291.183 54.9154 294.675L58.5028 292.906C56.4326 288.708 53.3432 285.391 49.2744 282.984L47.2378 286.427ZM54.9154 294.675C56.6619 298.216 57.5531 302.201 57.5531 306.667H61.5531C61.5531 301.653 60.5483 297.053 58.5028 292.906L54.9154 294.675ZM57.5531 306.667C57.5531 311.135 56.6614 315.027 54.9305 318.393L58.4877 320.222C60.5488 316.214 61.5531 311.679 61.5531 306.667H57.5531ZM54.9359 318.382C53.2302 321.651 50.7016 324.214 47.2932 326.086L49.219 329.592C53.2892 327.356 56.396 324.231 58.4823 320.232L54.9359 318.382ZM47.2932 326.086C43.9159 327.941 39.7101 328.92 34.5891 328.92V332.92C40.2121 332.92 45.1177 331.845 49.219 329.592L47.2932 326.086ZM34.5891 328.92H3.06813L3.06813 332.92H34.5891V328.92ZM5.06813 330.92L5.06813 313.461H1.06813L1.06813 330.92H5.06813ZM45.7281 254.31V256.31H47.7281V254.31H45.7281ZM45.7281 237.404V235.404H43.7281V237.404H45.7281ZM59.0001 237.404H61.0001V235.404H59.0001V237.404ZM59.0001 271.848V273.848H61.0001V271.848H59.0001ZM3.06813 271.848H1.06813L1.06813 273.848H3.06813V271.848ZM3.06813 254.31L3.06813 252.31H1.06813L1.06813 254.31H3.06813ZM47.7281 254.31L47.7281 237.404H43.7281L43.7281 254.31H47.7281ZM45.7281 239.404H59.0001V235.404H45.7281V239.404ZM57.0001 237.404L57.0001 271.848H61.0001L61.0001 237.404H57.0001ZM59.0001 269.848H3.06813L3.06813 273.848H59.0001V269.848ZM5.06813 271.848L5.06813 254.31H1.06813L1.06813 271.848H5.06813ZM3.06813 256.31H45.7281V252.31H3.06813L3.06813 256.31ZM3.06813 185.986L3.06813 183.986H1.06813L1.06813 185.986H3.06813ZM16.9721 185.986H18.9721V183.986H16.9721V185.986ZM16.9721 200.838H14.9721V202.838H16.9721V200.838ZM59.0001 200.838H61.0001V198.838H59.0001V200.838ZM59.0001 218.376V220.376H61.0001V218.376H59.0001ZM16.9721 218.376L16.9721 216.376H14.9721V218.376H16.9721ZM16.9721 233.07V235.07H18.9721V233.07H16.9721ZM3.06813 233.07H1.06813L1.06813 235.07H3.06813L3.06813 233.07ZM3.06813 187.986H16.9721V183.986H3.06813L3.06813 187.986ZM14.9721 185.986L14.9721 200.838H18.9721L18.9721 185.986H14.9721ZM16.9721 202.838H59.0001V198.838H16.9721L16.9721 202.838ZM57.0001 200.838L57.0001 218.376H61.0001L61.0001 200.838H57.0001ZM59.0001 216.376H16.9721L16.9721 220.376H59.0001V216.376ZM14.9721 218.376L14.9721 233.07H18.9721V218.376H14.9721ZM16.9721 231.07H3.06813L3.06813 235.07H16.9721V231.07ZM5.06813 233.07L5.06813 185.986H1.06813L1.06813 233.07H5.06813ZM3.06813 125.534L3.98413 123.757L1.06813 122.254L1.06813 125.534H3.06813ZM42.0151 145.6L41.0991 147.378L41.5302 147.6H42.0151V145.6ZM59.0001 145.6H61.0001V143.6H59.0001V145.6ZM59.0001 163.138V165.138H61.0001V163.138H59.0001ZM42.0151 163.138V161.138H41.5302L41.0991 161.361L42.0151 163.138ZM3.06813 183.204H1.06813L1.06813 186.485L3.98413 184.982L3.06813 183.204ZM3.06813 163.138L2.2471 161.315L1.06813 161.845L1.06813 163.138H3.06813ZM22.8971 154.211L23.7181 156.035L27.769 154.211L23.7181 152.388L22.8971 154.211ZM3.06813 145.284H1.06813L1.06813 146.577L2.2471 147.108L3.06813 145.284ZM2.15213 127.312L41.0991 147.378L42.9311 143.823L3.98413 123.757L2.15213 127.312ZM42.0151 147.6H59.0001V143.6H42.0151V147.6ZM57.0001 145.6V163.138H61.0001V145.6H57.0001ZM59.0001 161.138H42.0151V165.138H59.0001V161.138ZM41.0991 161.361L2.15213 181.427L3.98413 184.982L42.9311 164.916L41.0991 161.361ZM5.06813 183.204L5.06813 163.138H1.06813L1.06813 183.204H5.06813ZM3.88916 164.962L23.7181 156.035L22.0761 152.388L2.2471 161.315L3.88916 164.962ZM23.7181 152.388L3.88916 143.461L2.2471 147.108L22.0761 156.035L23.7181 152.388ZM5.06813 145.284L5.06813 125.534H1.06813L1.06813 145.284H5.06813ZM114.182 623.997L113.253 625.769L113.262 625.773L113.27 625.778L114.182 623.997ZM104.149 614.359L105.887 613.369L105.882 613.361L105.877 613.353L104.149 614.359ZM103.28 586.709L105.079 587.584L105.086 587.569L105.093 587.554L103.28 586.709ZM110.943 577.387L112.105 579.015L112.114 579.009L112.122 579.003L110.943 577.387ZM122.556 572.568H124.556V570.18L122.204 570.6L122.556 572.568ZM122.556 591.054L123.388 592.873L124.556 592.339V591.054H122.556ZM118.29 594.688L119.936 595.824L119.959 595.792L119.98 595.758L118.29 594.688ZM120.028 607.012L118.792 608.585L118.804 608.594L118.816 608.603L120.028 607.012ZM137.882 607.012L139.094 608.603L139.106 608.594L139.118 608.585L137.882 607.012ZM139.699 594.688L141.372 593.592L141.368 593.586L141.363 593.579L139.699 594.688ZM135.354 591.054H133.354V592.339L134.522 592.873L135.354 591.054ZM135.354 572.568L135.706 570.6L133.354 570.18V572.568H135.354ZM146.967 577.387L145.788 579.003L145.796 579.009L145.805 579.015L146.967 577.387ZM154.709 586.709L156.518 585.855L156.512 585.845L154.709 586.709ZM153.84 614.359L155.568 615.366L155.573 615.358L155.578 615.349L153.84 614.359ZM143.728 623.997L144.64 625.778L144.648 625.773L144.657 625.769L143.728 623.997ZM128.955 625.315C123.697 625.315 119.093 624.266 115.094 622.217L113.27 625.778C117.908 628.153 123.153 629.315 128.955 629.315V625.315ZM115.111 622.226C111.124 620.136 108.064 617.191 105.887 613.369L102.411 615.349C104.974 619.849 108.602 623.33 113.253 625.769L115.111 622.226ZM105.877 613.353C103.661 609.547 102.515 605.008 102.515 599.665H98.5151C98.5151 605.593 99.7919 610.851 102.421 615.366L105.877 613.353ZM102.515 599.665C102.515 595.078 103.386 591.065 105.079 587.584L101.481 585.835C99.4871 589.937 98.5151 594.562 98.5151 599.665H102.515ZM105.093 587.554C106.744 584.009 109.08 581.176 112.105 579.015L109.781 575.76C106.17 578.339 103.397 581.721 101.467 585.865L105.093 587.554ZM112.122 579.003C115.173 576.776 118.754 575.279 122.908 574.537L122.204 570.6C117.51 571.438 113.349 573.154 109.764 575.772L112.122 579.003ZM120.556 572.568V591.054H124.556V572.568H120.556ZM121.724 589.236C119.559 590.225 117.826 591.683 116.6 593.618L119.98 595.758C120.755 594.533 121.866 593.569 123.388 592.873L121.724 589.236ZM116.644 593.553C115.342 595.441 114.71 597.608 114.71 599.981H118.71C118.71 598.352 119.132 596.991 119.936 595.824L116.644 593.553ZM114.71 599.981C114.71 603.51 116.071 606.447 118.792 608.585L121.264 605.44C119.561 604.102 118.71 602.351 118.71 599.981H114.71ZM118.816 608.603C121.479 610.632 124.927 611.54 128.955 611.54V607.54C125.504 607.54 123.001 606.763 121.24 605.422L118.816 608.603ZM128.955 611.54C132.983 611.54 136.431 610.632 139.094 608.603L136.67 605.422C134.909 606.763 132.406 607.54 128.955 607.54V611.54ZM139.118 608.585C141.839 606.447 143.2 603.51 143.2 599.981H139.2C139.2 602.351 138.349 604.102 136.646 605.44L139.118 608.585ZM143.2 599.981C143.2 597.63 142.606 595.476 141.372 593.592L138.026 595.785C138.793 596.955 139.2 598.331 139.2 599.981H143.2ZM141.363 593.579C140.09 591.669 138.343 590.222 136.186 589.236L134.522 592.873C136.051 593.572 137.202 594.548 138.035 595.798L141.363 593.579ZM137.354 591.054V572.568H133.354V591.054H137.354ZM135.002 574.537C139.156 575.279 142.737 576.776 145.788 579.003L148.146 575.772C144.561 573.154 140.4 571.438 135.706 570.6L135.002 574.537ZM145.805 579.015C148.835 581.18 151.201 584.019 152.906 587.574L156.512 585.845C154.53 581.71 151.735 578.335 148.129 575.76L145.805 579.015ZM152.901 587.563C154.547 591.05 155.395 595.07 155.395 599.665H159.395C159.395 594.571 158.452 589.953 156.517 585.855L152.901 587.563ZM155.395 599.665C155.395 605.015 154.272 609.56 152.102 613.369L155.578 615.349C158.148 610.838 159.395 605.586 159.395 599.665H155.395ZM152.112 613.353C149.881 617.184 146.789 620.134 142.799 622.226L144.657 625.769C149.304 623.332 152.954 619.856 155.568 615.366L152.112 613.353ZM142.816 622.217C138.817 624.266 134.213 625.315 128.955 625.315V629.315C134.757 629.315 140.002 628.153 144.64 625.778L142.816 622.217ZM153.84 551.56L155.58 552.546L155.585 552.537L153.84 551.56ZM143.57 561.988L144.587 563.71L143.57 561.988ZM103.833 551.56L105.582 550.59L105.578 550.583L103.833 551.56ZM103.833 522.567L105.573 523.553L105.578 523.545L105.582 523.537L103.833 522.567ZM114.024 512.218L115.025 513.949L115.033 513.945L115.041 513.94L114.024 512.218ZM143.57 512.218L142.553 513.94L142.561 513.945L142.569 513.949L143.57 512.218ZM153.84 522.646L152.095 523.623L152.1 523.632L153.84 522.646ZM137.882 528.966L139.184 527.448L139.175 527.44L139.166 527.433L137.882 528.966ZM119.712 528.966L120.996 530.499L121.005 530.492L121.014 530.484L119.712 528.966ZM119.712 545.161L121.014 543.643L121.005 543.635L120.996 543.628L119.712 545.161ZM137.882 545.161L139.166 546.695L139.175 546.687L139.184 546.679L137.882 545.161ZM155.553 537.024C155.553 541.963 154.396 546.47 152.095 550.583L155.585 552.537C158.234 547.802 159.553 542.619 159.553 537.024H155.553ZM152.1 550.575C149.799 554.638 146.626 557.861 142.553 560.266L144.587 563.71C149.256 560.954 152.931 557.225 155.58 552.546L152.1 550.575ZM142.553 560.266C138.514 562.65 133.946 563.859 128.797 563.859V567.859C134.603 567.859 139.883 566.487 144.587 563.71L142.553 560.266ZM128.797 563.859C123.648 563.859 119.08 562.65 115.041 560.266L113.007 563.71C117.711 566.487 122.991 567.859 128.797 567.859V563.859ZM115.041 560.266C110.971 557.863 107.829 554.645 105.582 550.59L102.084 552.53C104.682 557.218 108.334 560.951 113.007 563.71L115.041 560.266ZM105.578 550.583C103.277 546.47 102.12 541.963 102.12 537.024H98.1201C98.1201 542.619 99.4388 547.802 102.088 552.537L105.578 550.583ZM102.12 537.024C102.12 532.085 103.277 527.609 105.573 523.553L102.093 521.582C99.4389 526.268 98.1201 531.429 98.1201 537.024H102.12ZM105.582 523.537C107.827 519.486 110.964 516.298 115.025 513.949L113.023 510.487C108.341 513.194 104.684 516.906 102.084 521.598L105.582 523.537ZM115.041 513.94C119.08 511.556 123.648 510.347 128.797 510.347V506.347C122.991 506.347 117.711 507.719 113.007 510.496L115.041 513.94ZM128.797 510.347C133.946 510.347 138.514 511.556 142.553 513.94L144.587 510.496C139.883 507.719 134.603 506.347 128.797 506.347V510.347ZM142.569 513.949C146.627 516.297 149.794 519.511 152.095 523.623L155.585 521.67C152.935 516.933 149.255 513.196 144.571 510.487L142.569 513.949ZM152.1 523.632C154.398 527.691 155.553 532.142 155.553 537.024H159.553C159.553 531.478 158.232 526.344 155.58 521.661L152.1 523.632ZM143.2 537.024C143.2 533.088 141.925 529.797 139.184 527.448L136.58 530.484C138.263 531.927 139.2 534.008 139.2 537.024H143.2ZM139.166 527.433C136.449 525.158 132.922 524.122 128.797 524.122V528.122C132.256 528.122 134.785 528.982 136.598 530.499L139.166 527.433ZM128.797 524.122C124.63 524.122 121.087 525.153 118.41 527.448L121.014 530.484C122.761 528.987 125.275 528.122 128.797 528.122V524.122ZM118.428 527.433C115.627 529.777 114.315 533.072 114.315 537.024H118.315C118.315 534.024 119.267 531.947 120.996 530.499L118.428 527.433ZM114.315 537.024C114.315 541.017 115.62 544.344 118.428 546.695L120.996 543.628C119.274 542.186 118.315 540.088 118.315 537.024H114.315ZM118.41 546.679C121.087 548.974 124.63 550.005 128.797 550.005V546.005C125.275 546.005 122.761 545.14 121.014 543.643L118.41 546.679ZM128.797 550.005C132.922 550.005 136.449 548.969 139.166 546.695L136.598 543.628C134.785 545.145 132.256 546.005 128.797 546.005V550.005ZM139.184 546.679C141.932 544.324 143.2 541.002 143.2 537.024H139.2C139.2 540.104 138.256 542.206 136.58 543.643L139.184 546.679ZM153.84 487.326L155.58 488.312L155.585 488.303L153.84 487.326ZM143.57 497.754L144.587 499.477L143.57 497.754ZM103.833 487.326L105.582 486.357L105.578 486.35L103.833 487.326ZM103.833 458.333L105.573 459.319L105.578 459.311L105.582 459.303L103.833 458.333ZM114.024 447.984L115.025 449.716L115.033 449.711L115.041 449.707L114.024 447.984ZM143.57 447.984L142.553 449.707L142.561 449.711L142.569 449.716L143.57 447.984ZM153.84 458.412L152.095 459.389L152.1 459.398L153.84 458.412ZM137.882 464.732L139.184 463.214L139.175 463.206L139.166 463.199L137.882 464.732ZM119.712 464.732L120.996 466.266L121.005 466.258L121.014 466.251L119.712 464.732ZM119.712 480.927L121.014 479.409L121.005 479.401L120.996 479.394L119.712 480.927ZM137.882 480.927L139.166 482.461L139.175 482.453L139.184 482.446L137.882 480.927ZM155.553 472.79C155.553 477.729 154.396 482.236 152.095 486.35L155.585 488.303C158.234 483.569 159.553 478.385 159.553 472.79H155.553ZM152.1 486.341C149.799 490.404 146.626 493.627 142.553 496.032L144.587 499.477C149.256 496.72 152.931 492.991 155.58 488.312L152.1 486.341ZM142.553 496.032C138.514 498.417 133.946 499.625 128.797 499.625V503.625C134.603 503.625 139.883 502.253 144.587 499.477L142.553 496.032ZM128.797 499.625C123.648 499.625 119.08 498.417 115.041 496.032L113.007 499.477C117.711 502.253 122.991 503.625 128.797 503.625V499.625ZM115.041 496.032C110.971 493.63 107.829 490.411 105.582 486.357L102.084 488.296C104.682 492.984 108.334 496.718 113.007 499.477L115.041 496.032ZM105.578 486.35C103.277 482.236 102.12 477.729 102.12 472.79H98.1201C98.1201 478.385 99.4388 483.569 102.088 488.303L105.578 486.35ZM102.12 472.79C102.12 467.852 103.277 463.375 105.573 459.319L102.093 457.348C99.4389 462.034 98.1201 467.196 98.1201 472.79H102.12ZM105.582 459.303C107.827 455.252 110.964 452.064 115.025 449.716L113.023 446.253C108.341 448.96 104.684 452.672 102.084 457.364L105.582 459.303ZM115.041 449.707C119.08 447.322 123.648 446.113 128.797 446.113V442.113C122.991 442.113 117.711 443.485 113.007 446.262L115.041 449.707ZM128.797 446.113C133.946 446.113 138.514 447.322 142.553 449.707L144.587 446.262C139.883 443.485 134.603 442.113 128.797 442.113V446.113ZM142.569 449.716C146.627 452.063 149.794 455.278 152.095 459.389L155.585 457.436C152.935 452.699 149.255 448.962 144.571 446.253L142.569 449.716ZM152.1 459.398C154.398 463.457 155.553 467.908 155.553 472.79H159.553C159.553 467.245 158.232 462.11 155.58 457.427L152.1 459.398ZM143.2 472.79C143.2 468.854 141.925 465.564 139.184 463.214L136.58 466.251C138.263 467.693 139.2 469.774 139.2 472.79H143.2ZM139.166 463.199C136.449 460.924 132.922 459.888 128.797 459.888V463.888C132.256 463.888 134.785 464.748 136.598 466.266L139.166 463.199ZM128.797 459.888C124.63 459.888 121.087 460.919 118.41 463.214L121.014 466.251C122.761 464.753 125.275 463.888 128.797 463.888V459.888ZM118.428 463.199C115.627 465.544 114.315 468.838 114.315 472.79H118.315C118.315 469.79 119.267 467.713 120.996 466.266L118.428 463.199ZM114.315 472.79C114.315 476.784 115.62 480.11 118.428 482.461L120.996 479.394C119.274 477.953 118.315 475.854 118.315 472.79H114.315ZM118.41 482.446C121.087 484.74 124.63 485.771 128.797 485.771V481.771C125.275 481.771 122.761 480.906 121.014 479.409L118.41 482.446ZM128.797 485.771C132.922 485.771 136.449 484.735 139.166 482.461L136.598 479.394C134.785 480.911 132.256 481.771 128.797 481.771V485.771ZM139.184 482.446C141.932 480.09 143.2 476.768 143.2 472.79H139.2C139.2 475.87 138.256 477.973 136.58 479.409L139.184 482.446ZM157 407.688L157.928 409.459L159 408.898V407.688H157ZM136.934 418.195L136.006 416.423L134.934 416.984V418.195H136.934ZM136.934 418.274H134.934V420.274H136.934V418.274ZM157 418.274H159V416.274H157V418.274ZM157 435.812V437.812H159V435.812H157ZM101.068 435.812H99.0681V437.812H101.068V435.812ZM103.517 398.129L105.3 399.035L105.306 399.023L105.312 399.011L103.517 398.129ZM110.074 390.94L111.059 392.68L111.079 392.669L111.098 392.657L110.074 390.94ZM129.35 391.651L128.174 393.268L128.183 393.275L128.193 393.282L129.35 391.651ZM135.591 400.578L133.689 401.195L134.446 403.529L136.579 402.316L135.591 400.578ZM157 388.412H159V384.975L156.012 386.673L157 388.412ZM125.242 418.274V420.274H127.242V418.274H125.242ZM124.136 407.53L125.641 406.213L125.619 406.187L125.595 406.162L124.136 407.53ZM117.026 407.609L118.44 409.023L118.462 409.001L118.482 408.979L117.026 407.609ZM115.762 418.274H113.762V420.274H115.762V418.274ZM156.072 405.916L136.006 416.423L137.862 419.966L157.928 409.459L156.072 405.916ZM134.934 418.195V418.274H138.934V418.195H134.934ZM136.934 420.274H157V416.274H136.934V420.274ZM155 418.274V435.812H159V418.274H155ZM157 433.812H101.068V437.812H157V433.812ZM103.068 435.812V409.742H99.0681V435.812H103.068ZM103.068 409.742C103.068 405.448 103.842 401.904 105.3 399.035L101.734 397.222C99.9269 400.779 99.0681 404.976 99.0681 409.742H103.068ZM105.312 399.011C106.736 396.116 108.658 394.039 111.059 392.68L109.089 389.199C105.908 391 103.458 393.716 101.722 397.246L105.312 399.011ZM111.098 392.657C113.499 391.226 116.247 390.491 119.396 390.491V386.491C115.593 386.491 112.126 387.388 109.05 389.222L111.098 392.657ZM119.396 390.491C122.732 390.491 125.635 391.421 128.174 393.268L130.526 390.033C127.272 387.666 123.538 386.491 119.396 386.491V390.491ZM128.193 393.282C130.686 395.05 132.536 397.641 133.689 401.195L137.493 399.961C136.118 395.719 133.807 392.359 130.507 390.019L128.193 393.282ZM136.579 402.316L157.988 390.15L156.012 386.673L134.603 398.839L136.579 402.316ZM155 388.412V407.688H159V388.412H155ZM127.242 418.274V411.322H123.242V418.274H127.242ZM127.242 411.322C127.242 409.389 126.825 407.565 125.641 406.213L122.631 408.847C122.922 409.179 123.242 409.884 123.242 411.322H127.242ZM125.595 406.162C124.292 404.772 122.454 404.266 120.502 404.266V408.266C121.815 408.266 122.4 408.602 122.677 408.897L125.595 406.162ZM120.502 404.266C118.595 404.266 116.865 404.862 115.57 406.238L118.482 408.979C118.873 408.565 119.46 408.266 120.502 408.266V404.266ZM115.612 406.194C114.273 407.533 113.762 409.359 113.762 411.322H117.762C117.762 410.018 118.094 409.369 118.44 409.023L115.612 406.194ZM113.762 411.322V418.274H117.762V411.322H113.762ZM115.762 420.274H125.242V416.274H115.762V420.274ZM104.623 342.282L106.381 343.235L106.386 343.226L104.623 342.282ZM114.498 332.091L113.517 330.348L114.498 332.091ZM143.254 332.091L144.225 330.342L143.254 332.091ZM153.366 342.282L155.115 341.312L155.111 341.305L153.366 342.282ZM157 380.913V382.913H159V380.913H157ZM101.068 380.913H99.0681V382.913H101.068V380.913ZM138.119 349.787L139.582 348.423L138.119 349.787ZM119.633 349.787L118.17 348.423L119.633 349.787ZM116.394 363.375H114.394V365.375H116.394V363.375ZM141.358 363.375V365.375H143.358V363.375H141.358ZM103.068 357.608C103.068 352.036 104.196 347.266 106.381 343.235L102.865 341.328C100.31 346.04 99.0681 351.487 99.0681 357.608H103.068ZM106.386 343.226C108.584 339.124 111.61 336.01 115.479 333.834L113.517 330.348C108.96 332.911 105.402 336.592 102.86 341.337L106.386 343.226ZM115.479 333.834C119.36 331.65 123.808 330.536 128.876 330.536V326.536C123.2 326.536 118.062 327.791 113.517 330.348L115.479 333.834ZM128.876 330.536C133.887 330.536 138.34 331.649 142.283 333.839L144.225 330.342C139.636 327.793 134.504 326.536 128.876 326.536V330.536ZM142.283 333.839C146.211 336.021 149.319 339.145 151.621 343.258L155.111 341.305C152.462 336.57 148.829 332.9 144.225 330.342L142.283 333.839ZM151.617 343.251C153.849 347.279 155 352.043 155 357.608H159C159 351.48 157.728 346.027 155.115 341.312L151.617 343.251ZM155 357.608V380.913H159V357.608H155ZM157 378.913H101.068V382.913H157V378.913ZM103.068 380.913L103.068 357.608H99.0681L99.0681 380.913H103.068ZM143.358 359.188C143.358 354.862 142.166 351.196 139.582 348.423L136.656 351.15C138.39 353.012 139.358 355.613 139.358 359.188H143.358ZM139.582 348.423C136.95 345.599 133.278 344.311 128.876 344.311V348.311C132.479 348.311 134.969 349.34 136.656 351.15L139.582 348.423ZM128.876 344.311C124.474 344.311 120.802 345.599 118.17 348.423L121.096 351.15C122.783 349.34 125.273 348.311 128.876 348.311V344.311ZM118.17 348.423C115.586 351.196 114.394 354.862 114.394 359.188H118.394C118.394 355.613 119.362 353.012 121.096 351.15L118.17 348.423ZM114.394 359.188V363.375H118.394V359.188H114.394ZM116.394 365.375H141.358V361.375H116.394V365.375ZM143.358 363.375V359.188H139.358V363.375H143.358ZM101.068 302.69V300.69H99.0681V302.69H101.068ZM157 302.69H159V300.69H157V302.69ZM157 320.228V322.228H159V320.228H157ZM101.068 320.228H99.0681V322.228H101.068V320.228ZM101.068 304.69L157 304.69V300.69L101.068 300.69V304.69ZM155 302.69V320.228H159V302.69H155ZM157 318.228L101.068 318.228V322.228L157 322.228V318.228ZM103.068 320.228V302.69H99.0681V320.228H103.068ZM157 239.153H159V237.153H157V239.153ZM157 256.691L158.102 258.36L159 257.767V256.691H157ZM128.876 275.256L127.774 273.587L122.216 277.256H128.876V275.256ZM157 275.256H159V273.256H157V275.256ZM157 292.794V294.794H159V292.794H157ZM101.068 292.794H99.0681V294.794H101.068V292.794ZM101.068 275.256L99.9791 273.578L99.0681 274.17V275.256H101.068ZM129.666 256.691L130.755 258.368L136.42 254.691H129.666V256.691ZM101.068 256.691H99.0681V258.691H101.068V256.691ZM101.068 239.153V237.153H99.0681V239.153H101.068ZM155 239.153V256.691H159V239.153H155ZM155.898 255.022L127.774 273.587L129.978 276.925L158.102 258.36L155.898 255.022ZM128.876 277.256L157 277.256V273.256L128.876 273.256V277.256ZM155 275.256V292.794H159V275.256H155ZM157 290.794L101.068 290.794V294.794L157 294.794V290.794ZM103.068 292.794V275.256H99.0681V292.794H103.068ZM102.157 276.933L130.755 258.368L128.577 255.013L99.9791 273.578L102.157 276.933ZM129.666 254.691H101.068V258.691H129.666V254.691ZM103.068 256.691V239.153H99.0681V256.691H103.068ZM101.068 241.153L157 241.153V237.153L101.068 237.153V241.153ZM148.547 193.388L147.925 191.487L146.547 191.938V193.388L148.547 193.388ZM148.547 212.032L146.547 212.032V213.482L147.925 213.933L148.547 212.032ZM157 214.797H159V213.347L157.622 212.896L157 214.797ZM157 233.204L156.313 235.083L159 236.066V233.204H157ZM101.068 212.743H99.0681V214.141L100.381 214.622L101.068 212.743ZM101.068 192.519L100.383 190.64L99.0681 191.119V192.519H101.068ZM157 172.137H159V169.28L156.315 170.258L157 172.137ZM157 190.623L157.622 192.524L159 192.073V190.623H157ZM135.354 197.654H137.354V194.902L134.736 195.752L135.354 197.654ZM119.791 202.71L119.173 200.808L113.318 202.71L119.173 204.612L119.791 202.71ZM135.354 207.766L134.736 209.668L137.354 210.519V207.766H135.354ZM146.547 193.388V212.032L150.547 212.032V193.388L146.547 193.388ZM147.925 213.933L156.378 216.698L157.622 212.896L149.169 210.131L147.925 213.933ZM155 214.797V233.204H159V214.797H155ZM157.687 231.326L101.755 210.865L100.381 214.622L156.313 235.083L157.687 231.326ZM103.068 212.743V192.519H99.0681V212.743H103.068ZM101.753 194.398L157.685 174.016L156.315 170.258L100.383 190.64L101.753 194.398ZM155 172.137V190.623H159V172.137H155ZM156.378 188.722L147.925 191.487L149.169 195.289L157.622 192.524L156.378 188.722ZM134.736 195.752L119.173 200.808L120.409 204.612L135.972 199.556L134.736 195.752ZM119.173 204.612L134.736 209.668L135.972 205.864L120.409 200.808L119.173 204.612ZM137.354 207.766V197.654H133.354V207.766H137.354ZM101.068 122.254V120.254H99.0681V122.254H101.068ZM114.972 122.254H116.972V120.254H114.972V122.254ZM114.972 137.106H112.972V139.106H114.972V137.106ZM157 137.106H159V135.106H157V137.106ZM157 154.644V156.644H159V154.644H157ZM114.972 154.644L114.972 152.644H112.972L112.972 154.644H114.972ZM114.972 169.338V171.338H116.972V169.338H114.972ZM101.068 169.338H99.0681V171.338H101.068V169.338ZM101.068 124.254H114.972V120.254H101.068V124.254ZM112.972 122.254V137.106H116.972V122.254H112.972ZM114.972 139.106L157 139.106V135.106L114.972 135.106V139.106ZM155 137.106V154.644H159V137.106H155ZM157 152.644L114.972 152.644L114.972 156.644L157 156.644V152.644ZM112.972 154.644V169.338H116.972V154.644H112.972ZM114.972 167.338H101.068V171.338H114.972V167.338ZM103.068 169.338L103.068 122.254H99.0681L99.0681 169.338H103.068ZM153.84 102.803L155.58 103.789L155.585 103.78L153.84 102.803ZM143.57 113.231L144.587 114.953L143.57 113.231ZM103.833 102.803L105.582 101.834L105.578 101.827L103.833 102.803ZM103.833 73.81L105.573 74.796L105.578 74.788L105.582 74.78L103.833 73.81ZM114.024 63.461L115.025 65.192L115.033 65.188L115.041 65.183L114.024 63.461ZM143.57 63.461L142.553 65.183L142.561 65.188L142.569 65.192L143.57 63.461ZM153.84 73.889L152.095 74.866L152.1 74.875L153.84 73.889ZM137.882 80.209L139.184 78.691L139.175 78.683L139.166 78.676L137.882 80.209ZM119.712 80.209L120.996 81.743L121.005 81.735L121.014 81.728L119.712 80.209ZM119.712 96.404L121.014 94.886L121.005 94.878L120.996 94.871L119.712 96.404ZM137.882 96.404L139.166 97.938L139.175 97.93L139.184 97.923L137.882 96.404ZM155.553 88.267C155.553 93.206 154.396 97.713 152.095 101.827L155.585 103.78C158.234 99.045 159.553 93.862 159.553 88.267H155.553ZM152.1 101.818C149.799 105.881 146.626 109.104 142.553 111.509L144.587 114.953C149.256 112.197 152.931 108.468 155.58 103.789L152.1 101.818ZM142.553 111.509C138.514 113.893 133.946 115.102 128.797 115.102L128.797 119.102C134.603 119.102 139.883 117.73 144.587 114.953L142.553 111.509ZM128.797 115.102C123.648 115.102 119.08 113.893 115.041 111.509L113.007 114.953C117.711 117.73 122.991 119.102 128.797 119.102L128.797 115.102ZM115.041 111.509C110.971 109.106 107.829 105.888 105.582 101.834L102.084 103.773C104.682 108.461 108.334 112.194 113.007 114.953L115.041 111.509ZM105.578 101.827C103.277 97.713 102.12 93.206 102.12 88.267H98.1201C98.1201 93.862 99.4388 99.045 102.088 103.78L105.578 101.827ZM102.12 88.267C102.12 83.328 103.277 78.852 105.573 74.796L102.093 72.825C99.4389 77.511 98.1201 82.672 98.1201 88.267H102.12ZM105.582 74.78C107.827 70.729 110.964 67.541 115.025 65.192L113.023 61.73C108.341 64.437 104.684 68.149 102.084 72.841L105.582 74.78ZM115.041 65.183C119.08 62.799 123.648 61.59 128.797 61.59V57.59C122.991 57.59 117.711 58.962 113.007 61.739L115.041 65.183ZM128.797 61.59C133.946 61.59 138.514 62.799 142.553 65.183L144.587 61.739C139.883 58.962 134.603 57.59 128.797 57.59V61.59ZM142.569 65.192C146.627 67.54 149.794 70.754 152.095 74.866L155.585 72.913C152.935 68.176 149.255 64.439 144.571 61.73L142.569 65.192ZM152.1 74.875C154.398 78.934 155.553 83.385 155.553 88.267H159.553C159.553 82.721 158.232 77.587 155.58 72.904L152.1 74.875ZM143.2 88.267C143.2 84.331 141.925 81.04 139.184 78.691L136.58 81.728C138.263 83.17 139.2 85.251 139.2 88.267H143.2ZM139.166 78.676C136.449 76.401 132.922 75.365 128.797 75.365V79.365C132.256 79.365 134.785 80.225 136.598 81.743L139.166 78.676ZM128.797 75.365C124.63 75.365 121.087 76.396 118.41 78.691L121.014 81.728C122.761 80.23 125.275 79.365 128.797 79.365V75.365ZM118.428 78.676C115.627 81.02 114.315 84.315 114.315 88.267H118.315C118.315 85.267 119.267 83.19 120.996 81.743L118.428 78.676ZM114.315 88.267C114.315 92.26 115.62 95.587 118.428 97.938L120.996 94.871C119.274 93.429 118.315 91.331 118.315 88.267H114.315ZM118.41 97.923C121.087 100.217 124.63 101.248 128.797 101.248V97.248C125.275 97.248 122.761 96.383 121.014 94.886L118.41 97.923ZM128.797 101.248C132.922 101.248 136.449 100.212 139.166 97.938L136.598 94.871C134.785 96.388 132.256 97.248 128.797 97.248V101.248ZM139.184 97.923C141.932 95.567 143.2 92.245 143.2 88.267H139.2C139.2 91.347 138.256 93.449 136.58 94.886L139.184 97.923ZM157 23.164L157.928 24.936L159 24.375V23.164H157ZM136.934 33.671L136.006 31.899L134.934 32.461V33.671H136.934ZM136.934 33.75H134.934V35.75H136.934V33.75ZM157 33.75H159V31.75H157V33.75ZM157 51.288V53.288H159V51.288H157ZM101.068 51.288H99.0681V53.288H101.068V51.288ZM103.517 13.605L105.3 14.511L105.306 14.5L105.312 14.488L103.517 13.605ZM110.074 6.41602L111.059 8.15698L111.079 8.146L111.098 8.13397L110.074 6.41602ZM129.35 7.12701L128.174 8.745L128.183 8.75201L128.193 8.75897L129.35 7.12701ZM135.591 16.054L133.689 16.671L134.446 19.006L136.579 17.793L135.591 16.054ZM157 3.888H159V0.450989L156.012 2.14899L157 3.888ZM125.242 33.75V35.75H127.242V33.75H125.242ZM124.136 23.006L125.641 21.689L125.619 21.663L125.595 21.638L124.136 23.006ZM117.026 23.085L118.44 24.499L118.462 24.478L118.482 24.456L117.026 23.085ZM115.762 33.75H113.762V35.75H115.762V33.75ZM156.072 21.392L136.006 31.899L137.862 35.443L157.928 24.936L156.072 21.392ZM134.934 33.671V33.75H138.934V33.671H134.934ZM136.934 35.75H157V31.75H136.934V35.75ZM155 33.75V51.288H159V33.75H155ZM157 49.288H101.068V53.288H157V49.288ZM103.068 51.288V25.218H99.0681V51.288H103.068ZM103.068 25.218C103.068 20.925 103.842 17.38 105.3 14.511L101.734 12.699C99.9269 16.255 99.0681 20.453 99.0681 25.218H103.068ZM105.312 14.488C106.736 11.592 108.658 9.51598 111.059 8.15698L109.089 4.67603C105.908 6.47603 103.458 9.19302 101.722 12.723L105.312 14.488ZM111.098 8.13397C113.499 6.70297 116.247 5.96698 119.396 5.96698V1.96698C115.593 1.96698 112.126 2.865 109.05 4.698L111.098 8.13397ZM119.396 5.96698C122.732 5.96698 125.635 6.898 128.174 8.745L130.526 5.51001C127.272 3.14301 123.538 1.96698 119.396 1.96698V5.96698ZM128.193 8.75897C130.686 10.527 132.536 13.118 133.689 16.671L137.493 15.437C136.118 11.196 133.807 7.83597 130.507 5.49597L128.193 8.75897ZM136.579 17.793L157.988 5.62701L156.012 2.14899L134.603 14.315L136.579 17.793ZM155 3.888V23.164H159V3.888H155ZM127.242 33.75V26.798H123.242V33.75H127.242ZM127.242 26.798C127.242 24.865 126.825 23.042 125.641 21.689L122.631 24.323C122.922 24.656 123.242 25.361 123.242 26.798H127.242ZM125.595 21.638C124.292 20.249 122.454 19.742 120.502 19.742V23.742C121.815 23.742 122.4 24.078 122.677 24.374L125.595 21.638ZM120.502 19.742C118.595 19.742 116.865 20.339 115.57 21.715L118.482 24.456C118.873 24.041 119.46 23.742 120.502 23.742V19.742ZM115.612 21.671C114.273 23.01 113.762 24.836 113.762 26.798H117.762C117.762 25.495 118.094 24.846 118.44 24.499L115.612 21.671ZM113.762 26.798V33.75H117.762V26.798H113.762ZM115.762 35.75H125.242V31.75H115.762V35.75Z" fill="#E6D5B8"/>
</g>
<defs>
<clipPath id="clip0_244_156">
<rect width="630" height="160" fill="white" transform="translate(0 630) rotate(-90)"/>
</clipPath>
</defs>
</svg>
