<svg width="630" height="160" viewBox="0 0 630 160" fill="none" xmlns="http://www.w3.org/2000/svg">
<path d="M166.947 3.06789H168.947V1.06789H166.947V3.06789ZM166.947 16.9719V18.9719H168.947V16.9719H166.947ZM144.985 16.9719V14.9719H142.985V16.9719H144.985ZM144.985 24.7139H142.985V26.7139H144.985V24.7139ZM160.785 24.7139H162.785V22.7139H160.785V24.7139ZM160.785 37.9069V39.9069H162.785V37.9069H160.785ZM144.985 37.9069V35.9069H142.985V37.9069H144.985ZM144.985 58.9999V60.9999H146.985V58.9999H144.985ZM127.447 58.9999H125.447V60.9999H127.447V58.9999ZM127.447 3.06789V1.06789H125.447V3.06789H127.447ZM164.947 3.06789V16.9719H168.947V3.06789H164.947ZM166.947 14.9719H144.985V18.9719H166.947V14.9719ZM142.985 16.9719V24.7139H146.985V16.9719H142.985ZM144.985 26.7139H160.785V22.7139H144.985V26.7139ZM158.785 24.7139V37.9069H162.785V24.7139H158.785ZM160.785 35.9069H144.985V39.9069H160.785V35.9069ZM142.985 37.9069V58.9999H146.985V37.9069H142.985ZM144.985 56.9999H127.447V60.9999H144.985V56.9999ZM129.447 58.9999V3.06789H125.447V58.9999H129.447ZM127.447 5.06789H166.947V1.06789H127.447V5.06789ZM210.729 50.5469L212.63 49.9251L212.179 48.5469H210.729V50.5469ZM192.085 50.5469V48.5469H190.635L190.184 49.9251L192.085 50.5469ZM189.32 58.9999V60.9999H190.77L191.221 59.6217L189.32 58.9999ZM170.913 58.9999L169.035 58.3128L168.052 60.9999H170.913V58.9999ZM191.374 3.06789V1.06789H189.976L189.496 2.38079L191.374 3.06789ZM211.598 3.06789L213.477 2.38313L212.998 1.06789H211.598V3.06789ZM231.98 58.9999V60.9999H234.837L233.859 58.3151L231.98 58.9999ZM213.494 58.9999L211.593 59.6217L212.044 60.9999H213.494V58.9999ZM206.463 37.3539V39.3539H209.215L208.365 36.7359L206.463 37.3539ZM201.407 21.7909L203.309 21.1729L201.407 15.3179L199.505 21.1729L201.407 21.7909ZM196.351 37.3539L194.449 36.7359L193.598 39.3539H196.351V37.3539ZM210.729 48.5469H192.085V52.5469H210.729V48.5469ZM190.184 49.9251L187.419 58.3781L191.221 59.6217L193.986 51.1687L190.184 49.9251ZM189.32 56.9999H170.913V60.9999H189.32V56.9999ZM172.791 59.687L193.252 3.755L189.496 2.38079L169.035 58.3128L172.791 59.687ZM191.374 5.06789H211.598V1.06789H191.374V5.06789ZM209.719 3.75265L230.101 59.6847L233.859 58.3151L213.477 2.38313L209.719 3.75265ZM231.98 56.9999H213.494V60.9999H231.98V56.9999ZM215.395 58.3781L212.63 49.9251L208.828 51.1687L211.593 59.6217L215.395 58.3781ZM208.365 36.7359L203.309 21.1729L199.505 22.4089L204.561 37.9719L208.365 36.7359ZM199.505 21.1729L194.449 36.7359L198.253 37.9719L203.309 22.4089L199.505 21.1729ZM196.351 39.3539H206.463V35.3539H196.351V39.3539ZM239.677 16.1819L237.906 15.2531L237.902 15.2616L237.897 15.2701L239.677 16.1819ZM249.315 6.14889L250.305 7.88673L250.314 7.88202L250.322 7.87724L249.315 6.14889ZM276.965 5.27989L276.091 7.07862L276.106 7.08588L276.121 7.09289L276.965 5.27989ZM286.287 12.9429L284.66 14.1054L284.666 14.1139L284.672 14.1223L286.287 12.9429ZM291.106 24.5559V26.5559H293.495L293.075 24.2043L291.106 24.5559ZM272.62 24.5559L270.801 25.3874L271.336 26.5559H272.62V24.5559ZM268.986 20.2899L267.851 21.9363L267.883 21.9586L267.916 21.9795L268.986 20.2899ZM256.662 22.0279L255.09 20.7923L255.081 20.804L255.071 20.8158L256.662 22.0279ZM256.662 39.8819L255.071 41.094L255.081 41.1058L255.09 41.1175L256.662 39.8819ZM268.986 41.6989L270.082 43.3718L270.089 43.3674L270.096 43.363L268.986 41.6989ZM272.62 37.3539V35.3539H271.336L270.801 36.5224L272.62 37.3539ZM291.106 37.3539L293.075 37.7055L293.495 35.3539H291.106V37.3539ZM286.287 48.9669L284.672 47.7875L284.666 47.7959L284.66 47.8044L286.287 48.9669ZM276.965 56.7089L277.819 58.5174L277.83 58.5123L276.965 56.7089ZM249.315 55.8399L248.309 57.5683L248.317 57.573L248.325 57.5777L249.315 55.8399ZM239.677 45.7279L237.897 46.6397L237.902 46.6482L237.906 46.6567L239.677 45.7279ZM238.359 30.9549C238.359 25.6974 239.409 21.0929 241.457 17.0936L237.897 15.2701C235.522 19.9082 234.359 25.1524 234.359 30.9549H238.359ZM241.449 17.1107C243.539 13.1243 246.483 10.0637 250.305 7.88673L248.325 4.41105C243.826 6.97409 240.345 10.6021 237.906 15.2531L241.449 17.1107ZM250.322 7.87724C254.128 5.66079 258.667 4.51489 264.009 4.51489V0.514893C258.081 0.514893 252.824 1.79166 248.309 4.42054L250.322 7.87724ZM264.009 4.51489C268.597 4.51489 272.609 5.38618 276.091 7.07862L277.84 3.48115C273.737 1.48693 269.112 0.514893 264.009 0.514893V4.51489ZM276.121 7.09289C279.666 8.74398 282.499 11.0796 284.66 14.1054L287.915 11.7804C285.336 8.17015 281.954 5.39713 277.81 3.46689L276.121 7.09289ZM284.672 14.1223C286.899 17.1724 288.396 20.7542 289.137 24.9075L293.075 24.2043C292.237 19.5096 290.521 15.3494 287.903 11.7635L284.672 14.1223ZM291.106 22.5559H272.62V26.5559H291.106V22.5559ZM274.439 23.7244C273.45 21.5593 271.991 19.8258 270.056 18.6003L267.916 21.9795C269.141 22.7554 270.106 23.8659 270.801 25.3874L274.439 23.7244ZM270.122 18.6435C268.234 17.3415 266.067 16.7099 263.693 16.7099V20.7099C265.323 20.7099 266.684 21.1316 267.851 21.9363L270.122 18.6435ZM263.693 16.7099C260.165 16.7099 257.228 18.0712 255.09 20.7923L258.235 23.2635C259.573 21.5606 261.323 20.7099 263.693 20.7099V16.7099ZM255.071 20.8158C253.042 23.4789 252.134 26.9274 252.134 30.9549H256.134C256.134 27.5038 256.912 25.0008 258.253 23.24L255.071 20.8158ZM252.134 30.9549C252.134 34.9824 253.042 38.4308 255.071 41.094L258.253 38.6698C256.912 36.9089 256.134 34.406 256.134 30.9549H252.134ZM255.09 41.1175C257.228 43.8386 260.165 45.1999 263.693 45.1999V41.1999C261.323 41.1999 259.573 40.3492 258.235 38.6463L255.09 41.1175ZM263.693 45.1999C266.045 45.1999 268.198 44.6063 270.082 43.3718L267.89 40.026C266.72 40.7929 265.344 41.1999 263.693 41.1999V45.1999ZM270.096 43.363C272.006 42.0895 273.453 40.3431 274.439 38.1854L270.801 36.5224C270.102 38.0514 269.127 39.2017 267.877 40.0348L270.096 43.363ZM272.62 39.3539H291.106V35.3539H272.62V39.3539ZM289.137 37.0023C288.396 41.1556 286.899 44.7374 284.672 47.7875L287.903 50.1463C290.521 46.5604 292.237 42.4002 293.075 37.7055L289.137 37.0023ZM284.66 47.8044C282.495 50.8351 279.656 53.2011 276.101 54.9055L277.83 58.5123C281.965 56.53 285.34 53.7347 287.915 50.1294L284.66 47.8044ZM276.111 54.9004C272.625 56.5468 268.605 57.3949 264.009 57.3949V61.3949C269.104 61.3949 273.722 60.4524 277.819 58.5174L276.111 54.9004ZM264.009 57.3949C258.659 57.3949 254.115 56.2721 250.305 54.1021L248.325 57.5777C252.837 60.1477 258.089 61.3949 264.009 61.3949V57.3949ZM250.322 54.1115C246.491 51.8807 243.541 48.7891 241.449 44.7991L237.906 46.6567C240.343 51.304 243.819 54.9537 248.309 57.5683L250.322 54.1115ZM241.457 44.8161C239.409 40.8169 238.359 36.2124 238.359 30.9549H234.359C234.359 36.7574 235.522 42.0016 237.897 46.6397L241.457 44.8161ZM316.539 3.06789H318.539V1.06789H316.539V3.06789ZM318.198 40.7509L316.578 41.9239L316.601 41.9557L316.625 41.9865L318.198 40.7509ZM329.337 40.7509L330.882 42.0204L330.893 42.0071L330.904 41.9937L329.337 40.7509ZM331.154 3.06789V1.06789H329.154V3.06789H331.154ZM348.613 3.06789H350.613V1.06789H348.613V3.06789ZM345.295 48.2559L347.016 49.2742L347.022 49.2636L345.295 48.2559ZM336.21 56.7089L337.094 58.5026L336.21 56.7089ZM310.693 56.7089L309.768 58.4821L309.778 58.4875L310.693 56.7089ZM302.161 48.2559L300.408 49.2188L302.161 48.2559ZM299.08 3.06789V1.06789H297.08V3.06789H299.08ZM314.539 3.06789V34.5889H318.539V3.06789H314.539ZM314.539 34.5889C314.539 37.4387 315.148 39.9499 316.578 41.9239L319.818 39.5779C319.035 38.4972 318.539 36.9004 318.539 34.5889H314.539ZM316.625 41.9865C318.285 44.0989 320.815 44.9629 323.728 44.9629V40.9629C321.585 40.9629 320.428 40.3522 319.77 39.5153L316.625 41.9865ZM323.728 44.9629C326.646 44.9629 329.176 44.0972 330.882 42.0204L327.791 39.4814C327.075 40.3539 325.865 40.9629 323.728 40.9629V44.9629ZM330.904 41.9937C332.475 40.013 333.154 37.4743 333.154 34.5889H329.154C329.154 36.8648 328.622 38.4342 327.77 39.5081L330.904 41.9937ZM333.154 34.5889V3.06789H329.154V34.5889H333.154ZM331.154 5.06789H348.613V1.06789H331.154V5.06789ZM346.613 3.06789V34.5889H350.613V3.06789H346.613ZM346.613 34.5889C346.613 39.629 345.567 43.8208 343.567 47.2482L347.022 49.2636C349.447 45.107 350.613 40.1875 350.613 34.5889H346.613ZM343.573 47.2376C341.556 50.6475 338.817 53.1934 335.325 54.9152L337.094 58.5026C341.292 56.4324 344.609 53.343 347.016 49.2742L343.573 47.2376ZM335.325 54.9152C331.784 56.6617 327.799 57.5529 323.333 57.5529V61.5529C328.347 61.5529 332.947 60.5481 337.094 58.5026L335.325 54.9152ZM323.333 57.5529C318.865 57.5529 314.973 56.6612 311.607 54.9303L309.778 58.4875C313.786 60.5486 318.321 61.5529 323.333 61.5529V57.5529ZM311.618 54.9357C308.349 53.23 305.786 50.7014 303.914 47.293L300.408 49.2188C302.644 53.289 305.769 56.3958 309.768 58.4821L311.618 54.9357ZM303.914 47.293C302.059 43.9157 301.08 39.7099 301.08 34.5889H297.08C297.08 40.2119 298.155 45.1175 300.408 49.2188L303.914 47.293ZM301.08 34.5889V3.06789H297.08V34.5889H301.08ZM299.08 5.06789H316.539V1.06789H299.08V5.06789ZM375.69 45.7279H373.69V47.7279H375.69V45.7279ZM392.596 45.7279H394.596V43.7279H392.596V45.7279ZM392.596 58.9999V60.9999H394.596V58.9999H392.596ZM358.152 58.9999H356.152V60.9999H358.152V58.9999ZM358.152 3.06789V1.06789H356.152V3.06789H358.152ZM375.69 3.06789H377.69V1.06789H375.69V3.06789ZM375.69 47.7279H392.596V43.7279H375.69V47.7279ZM390.596 45.7279V58.9999H394.596V45.7279H390.596ZM392.596 56.9999H358.152V60.9999H392.596V56.9999ZM360.152 58.9999V3.06789H356.152V58.9999H360.152ZM358.152 5.06789H375.69V1.06789H358.152V5.06789ZM373.69 3.06789V45.7279H377.69V3.06789H373.69ZM444.014 3.06789H446.014V1.06789H444.014V3.06789ZM444.014 16.9719V18.9719H446.014V16.9719H444.014ZM429.162 16.9719V14.9719H427.162V16.9719H429.162ZM429.162 58.9999V60.9999H431.162V58.9999H429.162ZM411.624 58.9999H409.624V60.9999H411.624V58.9999ZM411.624 16.9719H413.624V14.9719H411.624V16.9719ZM396.93 16.9719H394.93V18.9719H396.93V16.9719ZM396.93 3.06789V1.06789H394.93V3.06789H396.93ZM442.014 3.06789V16.9719H446.014V3.06789H442.014ZM444.014 14.9719H429.162V18.9719H444.014V14.9719ZM427.162 16.9719V58.9999H431.162V16.9719H427.162ZM429.162 56.9999H411.624V60.9999H429.162V56.9999ZM413.624 58.9999V16.9719H409.624V58.9999H413.624ZM411.624 14.9719H396.93V18.9719H411.624V14.9719ZM398.93 16.9719V3.06789H394.93V16.9719H398.93ZM396.93 5.06789H444.014V1.06789H396.93V5.06789ZM504.466 3.06789L506.243 3.98389L507.746 1.06789H504.466V3.06789ZM484.4 42.0149L482.622 41.0989L482.4 41.53V42.0149H484.4ZM484.4 58.9999V60.9999H486.4V58.9999H484.4ZM466.862 58.9999H464.862V60.9999H466.862V58.9999ZM466.862 42.0149H468.862V41.53L468.639 41.0989L466.862 42.0149ZM446.796 3.06789V1.06789H443.515L445.018 3.98389L446.796 3.06789ZM466.862 3.06789L468.685 2.24686L468.155 1.06789H466.862V3.06789ZM475.789 22.8969L473.965 23.7179L475.789 27.7688L477.612 23.7179L475.789 22.8969ZM484.716 3.06789V1.06789H483.423L482.892 2.24686L484.716 3.06789ZM502.688 2.15189L482.622 41.0989L486.177 42.9309L506.243 3.98389L502.688 2.15189ZM482.4 42.0149V58.9999H486.4V42.0149H482.4ZM484.4 56.9999H466.862V60.9999H484.4V56.9999ZM468.862 58.9999V42.0149H464.862V58.9999H468.862ZM468.639 41.0989L448.573 2.15189L445.018 3.98389L465.084 42.9309L468.639 41.0989ZM446.796 5.06789H466.862V1.06789H446.796V5.06789ZM465.038 3.88892L473.965 23.7179L477.612 22.0759L468.685 2.24686L465.038 3.88892ZM477.612 23.7179L486.539 3.88892L482.892 2.24686L473.965 22.0759L477.612 23.7179ZM484.716 5.06789H504.466V1.06789H484.716V5.06789ZM6.00257 114.182L4.23133 113.253L4.22687 113.262L4.22249 113.27L6.00257 114.182ZM15.6406 104.149L16.6305 105.887L16.6387 105.882L16.6469 105.877L15.6406 104.149ZM43.2906 103.28L42.4162 105.079L42.4311 105.086L42.4461 105.093L43.2906 103.28ZM52.6126 110.943L50.9851 112.105L50.9912 112.114L50.9973 112.122L52.6126 110.943ZM57.4316 122.556V124.556H59.8203L59.4004 122.204L57.4316 122.556ZM38.9456 122.556L37.1266 123.388L37.6608 124.556H38.9456V122.556ZM35.3116 118.29L34.1761 119.936L34.2083 119.959L34.2415 119.98L35.3116 118.29ZM22.9876 120.028L21.4149 118.792L21.4057 118.804L21.3967 118.816L22.9876 120.028ZM22.9876 137.882L21.3967 139.094L21.4057 139.106L21.4149 139.118L22.9876 137.882ZM35.3116 139.699L36.4076 141.372L36.4143 141.368L36.421 141.363L35.3116 139.699ZM38.9456 135.354V133.354H37.6608L37.1266 134.522L38.9456 135.354ZM57.4316 135.354L59.4004 135.706L59.8203 133.354H57.4316V135.354ZM52.6126 146.967L50.9973 145.788L50.9912 145.796L50.9851 145.805L52.6126 146.967ZM43.2906 154.709L44.1446 156.518L44.1552 156.512L43.2906 154.709ZM15.6406 153.84L14.6342 155.568L14.6424 155.573L14.6506 155.578L15.6406 153.84ZM6.00257 143.728L4.22249 144.64L4.22687 144.648L4.23133 144.657L6.00257 143.728ZM4.68457 128.955C4.68457 123.697 5.73424 119.093 7.78266 115.094L4.22249 113.27C1.8469 117.908 0.68457 123.153 0.68457 128.955H4.68457ZM7.77381 115.111C9.86425 111.124 12.8087 108.064 16.6305 105.887L14.6506 102.411C10.1511 104.974 6.67023 108.602 4.23133 113.253L7.77381 115.111ZM16.6469 105.877C20.4534 103.661 24.992 102.515 30.3346 102.515V98.5149C24.4065 98.5149 19.149 99.7917 14.6342 102.421L16.6469 105.877ZM30.3346 102.515C34.9222 102.515 38.9346 103.386 42.4162 105.079L44.1649 101.481C40.0625 99.4869 35.4376 98.5149 30.3346 98.5149V102.515ZM42.4461 105.093C45.9911 106.744 48.8238 109.08 50.9851 112.105L54.24 109.781C51.6613 106.17 48.2793 103.397 44.135 101.467L42.4461 105.093ZM50.9973 112.122C53.2244 115.173 54.721 118.754 55.4627 122.908L59.4004 122.204C58.5621 117.51 56.846 113.349 54.2278 109.764L50.9973 112.122ZM57.4316 120.556H38.9456V124.556H57.4316V120.556ZM40.7645 121.724C39.7747 119.559 38.3166 117.826 36.3817 116.6L34.2415 119.98C35.4665 120.755 36.431 121.866 37.1266 123.388L40.7645 121.724ZM36.447 116.644C34.5592 115.342 32.3919 114.71 30.0186 114.71V118.71C31.6478 118.71 33.0092 119.132 34.1761 119.936L36.447 116.644ZM30.0186 114.71C26.49 114.71 23.5529 116.071 21.4149 118.792L24.5602 121.264C25.8982 119.561 27.6485 118.71 30.0186 118.71V114.71ZM21.3967 118.816C19.3676 121.479 18.4596 124.927 18.4596 128.955H22.4596C22.4596 125.504 23.2368 123.001 24.5784 121.24L21.3967 118.816ZM18.4596 128.955C18.4596 132.983 19.3676 136.431 21.3967 139.094L24.5784 136.67C23.2368 134.909 22.4596 132.406 22.4596 128.955H18.4596ZM21.4149 139.118C23.5529 141.839 26.49 143.2 30.0186 143.2V139.2C27.6485 139.2 25.8982 138.349 24.5602 136.646L21.4149 139.118ZM30.0186 143.2C32.3704 143.2 34.5235 142.606 36.4076 141.372L34.2155 138.026C33.045 138.793 31.6694 139.2 30.0186 139.2V143.2ZM36.421 141.363C38.3313 140.09 39.7781 138.343 40.7645 136.186L37.1266 134.522C36.4276 136.051 35.4518 137.202 34.2022 138.035L36.421 141.363ZM38.9456 137.354H57.4316V133.354H38.9456V137.354ZM55.4627 135.002C54.721 139.156 53.2244 142.737 50.9973 145.788L54.2278 148.146C56.846 144.561 58.5621 140.4 59.4004 135.706L55.4627 135.002ZM50.9851 145.805C48.8203 148.835 45.9807 151.201 42.4259 152.906L44.1552 156.512C48.2897 154.53 51.6648 151.735 54.24 148.129L50.9851 145.805ZM42.4365 152.901C38.9501 154.547 34.9303 155.395 30.3346 155.395V159.395C35.4294 159.395 40.047 158.452 44.1446 156.517L42.4365 152.901ZM30.3346 155.395C24.9846 155.395 20.44 154.272 16.6305 152.102L14.6506 155.578C19.1624 158.148 24.4139 159.395 30.3346 159.395V155.395ZM16.6469 152.112C12.8157 149.881 9.86616 146.789 7.77381 142.799L4.23133 144.657C6.66832 149.304 10.1441 152.954 14.6342 155.568L16.6469 152.112ZM7.78266 142.816C5.73424 138.817 4.68457 134.213 4.68457 128.955H0.68457C0.68457 134.757 1.8469 140.002 4.22249 144.64L7.78266 142.816ZM78.44 153.84L77.4545 155.58L77.4634 155.585L78.44 153.84ZM68.012 143.57L66.2897 144.587L68.012 143.57ZM78.44 103.833L79.4095 105.582L79.4166 105.578L78.44 103.833ZM107.433 103.833L106.447 105.573L106.455 105.578L106.463 105.582L107.433 103.833ZM117.782 114.024L116.051 115.025L116.055 115.033L116.06 115.041L117.782 114.024ZM117.782 143.57L116.06 142.553L116.055 142.561L116.051 142.569L117.782 143.57ZM107.354 153.84L106.377 152.095L106.368 152.1L107.354 153.84ZM101.034 137.882L102.552 139.184L102.56 139.175L102.567 139.166L101.034 137.882ZM101.034 119.712L99.5005 120.996L99.5079 121.005L99.5155 121.014L101.034 119.712ZM84.839 119.712L86.3575 121.014L86.3651 121.005L86.3725 120.996L84.839 119.712ZM84.839 137.882L83.3055 139.166L83.3129 139.175L83.3205 139.184L84.839 137.882ZM92.976 155.553C88.0374 155.553 83.5303 154.396 79.4166 152.095L77.4634 155.585C82.1977 158.234 87.3812 159.553 92.976 159.553V155.553ZM79.4255 152.1C75.3622 149.799 72.1389 146.626 69.7343 142.553L66.2897 144.587C69.0464 149.256 72.7751 152.931 77.4545 155.58L79.4255 152.1ZM69.7343 142.553C67.3497 138.514 66.141 133.946 66.141 128.797H62.141C62.141 134.603 63.5129 139.883 66.2897 144.587L69.7343 142.553ZM66.141 128.797C66.141 123.648 67.3497 119.08 69.7343 115.041L66.2897 113.007C63.5129 117.711 62.141 122.991 62.141 128.797H66.141ZM69.7343 115.041C72.1367 110.971 75.355 107.829 79.4095 105.582L77.4705 102.084C72.7824 104.682 69.0486 108.334 66.2897 113.007L69.7343 115.041ZM79.4166 105.578C83.5303 103.277 88.0374 102.12 92.976 102.12V98.1199C87.3812 98.1199 82.1977 99.4386 77.4634 102.088L79.4166 105.578ZM92.976 102.12C97.9146 102.12 102.391 103.277 106.447 105.573L108.418 102.093C103.732 99.4387 98.5707 98.1199 92.976 98.1199V102.12ZM106.463 105.582C110.514 107.827 113.702 110.964 116.051 115.025L119.513 113.023C116.806 108.341 113.094 104.684 108.402 102.084L106.463 105.582ZM116.06 115.041C118.444 119.08 119.653 123.648 119.653 128.797H123.653C123.653 122.991 122.281 117.711 119.504 113.007L116.06 115.041ZM119.653 128.797C119.653 133.946 118.444 138.514 116.06 142.553L119.504 144.587C122.281 139.883 123.653 134.603 123.653 128.797H119.653ZM116.051 142.569C113.703 146.627 110.489 149.794 106.377 152.095L108.33 155.585C113.067 152.935 116.804 149.255 119.513 144.571L116.051 142.569ZM106.368 152.1C102.309 154.398 97.8582 155.553 92.976 155.553V159.553C98.5218 159.553 103.656 158.232 108.339 155.58L106.368 152.1ZM92.976 143.2C96.9118 143.2 100.203 141.925 102.552 139.184L99.5155 136.58C98.0733 138.263 95.9922 139.2 92.976 139.2V143.2ZM102.567 139.166C104.842 136.449 105.878 132.922 105.878 128.797H101.878C101.878 132.256 101.018 134.785 99.5005 136.598L102.567 139.166ZM105.878 128.797C105.878 124.63 104.847 121.087 102.552 118.41L99.5155 121.014C101.013 122.761 101.878 125.275 101.878 128.797H105.878ZM102.567 118.428C100.223 115.627 96.9278 114.315 92.976 114.315V118.315C95.9762 118.315 98.0532 119.267 99.5005 120.996L102.567 118.428ZM92.976 114.315C88.9826 114.315 85.6562 115.62 83.3055 118.428L86.3725 120.996C87.8138 119.274 89.9121 118.315 92.976 118.315V114.315ZM83.3205 118.41C81.0261 121.087 79.995 124.63 79.995 128.797H83.995C83.995 125.275 84.8599 122.761 86.3575 121.014L83.3205 118.41ZM79.995 128.797C79.995 132.922 81.0311 136.449 83.3055 139.166L86.3725 136.598C84.8549 134.785 83.995 132.256 83.995 128.797H79.995ZM83.3205 139.184C85.6763 141.932 88.9984 143.2 92.976 143.2V139.2C89.8962 139.2 87.7937 138.256 86.3575 136.58L83.3205 139.184ZM142.674 153.84L141.688 155.58L141.697 155.585L142.674 153.84ZM132.246 143.57L130.523 144.587L132.246 143.57ZM142.674 103.833L143.643 105.582L143.65 105.578L142.674 103.833ZM171.667 103.833L170.681 105.573L170.689 105.578L170.697 105.582L171.667 103.833ZM182.016 114.024L180.284 115.025L180.289 115.033L180.293 115.041L182.016 114.024ZM182.016 143.57L180.293 142.553L180.289 142.561L180.284 142.569L182.016 143.57ZM171.588 153.84L170.611 152.095L170.602 152.1L171.588 153.84ZM165.268 137.882L166.786 139.184L166.794 139.175L166.801 139.166L165.268 137.882ZM165.268 119.712L163.734 120.996L163.742 121.005L163.749 121.014L165.268 119.712ZM149.073 119.712L150.591 121.014L150.599 121.005L150.606 120.996L149.073 119.712ZM149.073 137.882L147.539 139.166L147.547 139.175L147.554 139.184L149.073 137.882ZM157.21 155.553C152.271 155.553 147.764 154.396 143.65 152.095L141.697 155.585C146.431 158.234 151.615 159.553 157.21 159.553V155.553ZM143.659 152.1C139.596 149.799 136.373 146.626 133.968 142.553L130.523 144.587C133.28 149.256 137.009 152.931 141.688 155.58L143.659 152.1ZM133.968 142.553C131.583 138.514 130.375 133.946 130.375 128.797H126.375C126.375 134.603 127.747 139.883 130.523 144.587L133.968 142.553ZM130.375 128.797C130.375 123.648 131.583 119.08 133.968 115.041L130.523 113.007C127.747 117.711 126.375 122.991 126.375 128.797H130.375ZM133.968 115.041C136.37 110.971 139.589 107.829 143.643 105.582L141.704 102.084C137.016 104.682 133.282 108.334 130.523 113.007L133.968 115.041ZM143.65 105.578C147.764 103.277 152.271 102.12 157.21 102.12V98.1199C151.615 98.1199 146.431 99.4386 141.697 102.088L143.65 105.578ZM157.21 102.12C162.148 102.12 166.625 103.277 170.681 105.573L172.652 102.093C167.966 99.4387 162.804 98.1199 157.21 98.1199V102.12ZM170.697 105.582C174.748 107.827 177.936 110.964 180.284 115.025L183.747 113.023C181.04 108.341 177.328 104.684 172.636 102.084L170.697 105.582ZM180.293 115.041C182.678 119.08 183.887 123.648 183.887 128.797H187.887C187.887 122.991 186.515 117.711 183.738 113.007L180.293 115.041ZM183.887 128.797C183.887 133.946 182.678 138.514 180.293 142.553L183.738 144.587C186.515 139.883 187.887 134.603 187.887 128.797H183.887ZM180.284 142.569C177.937 146.627 174.722 149.794 170.611 152.095L172.564 155.585C177.301 152.935 181.038 149.255 183.747 144.571L180.284 142.569ZM170.602 152.1C166.543 154.398 162.092 155.553 157.21 155.553V159.553C162.755 159.553 167.89 158.232 172.573 155.58L170.602 152.1ZM157.21 143.2C161.146 143.2 164.436 141.925 166.786 139.184L163.749 136.58C162.307 138.263 160.226 139.2 157.21 139.2V143.2ZM166.801 139.166C169.076 136.449 170.112 132.922 170.112 128.797H166.112C166.112 132.256 165.252 134.785 163.734 136.598L166.801 139.166ZM170.112 128.797C170.112 124.63 169.081 121.087 166.786 118.41L163.749 121.014C165.247 122.761 166.112 125.275 166.112 128.797H170.112ZM166.801 118.428C164.456 115.627 161.162 114.315 157.21 114.315V118.315C160.21 118.315 162.287 119.267 163.734 120.996L166.801 118.428ZM157.21 114.315C153.216 114.315 149.89 115.62 147.539 118.428L150.606 120.996C152.047 119.274 154.146 118.315 157.21 118.315V114.315ZM147.554 118.41C145.26 121.087 144.229 124.63 144.229 128.797H148.229C148.229 125.275 149.094 122.761 150.591 121.014L147.554 118.41ZM144.229 128.797C144.229 132.922 145.265 136.449 147.539 139.166L150.606 136.598C149.089 134.785 148.229 132.256 148.229 128.797H144.229ZM147.554 139.184C149.91 141.932 153.232 143.2 157.21 143.2V139.2C154.13 139.2 152.027 138.256 150.591 136.58L147.554 139.184ZM222.312 157L220.541 157.928L221.102 159H222.312V157ZM211.805 136.934L213.577 136.006L213.016 134.934H211.805V136.934ZM211.726 136.934V134.934H209.726V136.934H211.726ZM211.726 157V159H213.726V157H211.726ZM194.188 157H192.188V159H194.188V157ZM194.188 101.068V99.0679H192.188V101.068H194.188ZM231.871 103.517L230.965 105.3L230.977 105.306L230.989 105.312L231.871 103.517ZM239.06 110.074L237.32 111.059L237.331 111.079L237.343 111.098L239.06 110.074ZM238.349 129.35L236.732 128.174L236.725 128.183L236.718 128.193L238.349 129.35ZM229.422 135.591L228.805 133.689L226.471 134.446L227.684 136.579L229.422 135.591ZM241.588 157V159H245.025L243.327 156.012L241.588 157ZM211.726 125.242H209.726V127.242H211.726V125.242ZM222.47 124.136L223.787 125.641L223.813 125.619L223.838 125.595L222.47 124.136ZM222.391 117.026L220.977 118.44L220.999 118.462L221.021 118.482L222.391 117.026ZM211.726 115.762V113.762H209.726V115.762H211.726ZM224.084 156.072L213.577 136.006L210.034 137.862L220.541 157.928L224.084 156.072ZM211.805 134.934H211.726V138.934H211.805V134.934ZM209.726 136.934V157H213.726V136.934H209.726ZM211.726 155H194.188V159H211.726V155ZM196.188 157V101.068H192.188V157H196.188ZM194.188 103.068H220.258V99.0679H194.188V103.068ZM220.258 103.068C224.552 103.068 228.096 103.842 230.965 105.3L232.778 101.734C229.221 99.9267 225.024 99.0679 220.258 99.0679V103.068ZM230.989 105.312C233.884 106.736 235.961 108.658 237.32 111.059L240.801 109.089C239 105.908 236.284 103.458 232.754 101.722L230.989 105.312ZM237.343 111.098C238.774 113.499 239.509 116.247 239.509 119.396H243.509C243.509 115.593 242.612 112.126 240.778 109.05L237.343 111.098ZM239.509 119.396C239.509 122.732 238.579 125.635 236.732 128.174L239.967 130.526C242.334 127.272 243.509 123.538 243.509 119.396H239.509ZM236.718 128.193C234.95 130.686 232.359 132.536 228.805 133.689L230.039 137.493C234.281 136.118 237.641 133.807 239.981 130.507L236.718 128.193ZM227.684 136.579L239.85 157.988L243.327 156.012L231.161 134.603L227.684 136.579ZM241.588 155H222.312V159H241.588V155ZM211.726 127.242H218.678V123.242H211.726V127.242ZM218.678 127.242C220.611 127.242 222.435 126.825 223.787 125.641L221.153 122.631C220.821 122.922 220.116 123.242 218.678 123.242V127.242ZM223.838 125.595C225.228 124.292 225.734 122.454 225.734 120.502H221.734C221.734 121.815 221.398 122.4 221.103 122.677L223.838 125.595ZM225.734 120.502C225.734 118.595 225.138 116.865 223.762 115.57L221.021 118.482C221.435 118.873 221.734 119.46 221.734 120.502H225.734ZM223.806 115.612C222.467 114.273 220.641 113.762 218.678 113.762V117.762C219.982 117.762 220.631 118.094 220.977 118.44L223.806 115.612ZM218.678 113.762H211.726V117.762H218.678V113.762ZM209.726 115.762V125.242H213.726V115.762H209.726ZM287.718 104.623L286.765 106.381L286.774 106.386L287.718 104.623ZM297.909 114.498L299.652 113.517L297.909 114.498ZM297.909 143.254L299.658 144.225L297.909 143.254ZM287.718 153.366L288.688 155.115L288.695 155.111L287.718 153.366ZM249.087 157H247.087V159H249.087V157ZM249.087 101.068V99.0679H247.087V101.068H249.087ZM280.213 138.119L281.577 139.582L280.213 138.119ZM280.213 119.633L281.577 118.17L280.213 119.633ZM266.625 116.394V114.394H264.625V116.394H266.625ZM266.625 141.358H264.625V143.358H266.625V141.358ZM272.392 103.068C277.964 103.068 282.734 104.196 286.765 106.381L288.672 102.865C283.96 100.31 278.513 99.0679 272.392 99.0679V103.068ZM286.774 106.386C290.876 108.584 293.99 111.61 296.166 115.479L299.652 113.517C297.089 108.96 293.408 105.402 288.663 102.86L286.774 106.386ZM296.166 115.479C298.35 119.36 299.464 123.808 299.464 128.876H303.464C303.464 123.2 302.209 118.062 299.652 113.517L296.166 115.479ZM299.464 128.876C299.464 133.887 298.351 138.34 296.161 142.283L299.658 144.225C302.207 139.636 303.464 134.504 303.464 128.876H299.464ZM296.161 142.283C293.979 146.211 290.855 149.319 286.742 151.621L288.695 155.111C293.43 152.462 297.1 148.829 299.658 144.225L296.161 142.283ZM286.749 151.617C282.721 153.849 277.957 155 272.392 155V159C278.52 159 283.973 157.728 288.688 155.115L286.749 151.617ZM272.392 155H249.087V159H272.392V155ZM251.087 157V101.068H247.087V157H251.087ZM249.087 103.068H272.392V99.0679H249.087V103.068ZM270.812 143.358C275.138 143.358 278.804 142.166 281.577 139.582L278.85 136.656C276.988 138.39 274.387 139.358 270.812 139.358V143.358ZM281.577 139.582C284.401 136.95 285.689 133.278 285.689 128.876H281.689C281.689 132.479 280.66 134.969 278.85 136.656L281.577 139.582ZM285.689 128.876C285.689 124.474 284.401 120.802 281.577 118.17L278.85 121.096C280.66 122.783 281.689 125.273 281.689 128.876H285.689ZM281.577 118.17C278.804 115.586 275.138 114.394 270.812 114.394V118.394C274.387 118.394 276.988 119.362 278.85 121.096L281.577 118.17ZM270.812 114.394H266.625V118.394H270.812V114.394ZM264.625 116.394V141.358H268.625V116.394H264.625ZM266.625 143.358H270.812V139.358H266.625V143.358ZM327.31 101.068H329.31V99.0679H327.31V101.068ZM327.31 157V159H329.31V157H327.31ZM309.772 157H307.772V159H309.772V157ZM309.772 101.068V99.0679H307.772V101.068H309.772ZM325.31 101.068V157H329.31V101.068H325.31ZM327.31 155H309.772V159H327.31V155ZM311.772 157V101.068H307.772V157H311.772ZM309.772 103.068H327.31V99.0679H309.772V103.068ZM390.847 157V159H392.847V157H390.847ZM373.309 157L371.64 158.102L372.233 159H373.309V157ZM354.744 128.876L356.413 127.774L352.744 122.216V128.876H354.744ZM354.744 157V159H356.744V157H354.744ZM337.206 157H335.206V159H337.206V157ZM337.206 101.068V99.0679H335.206V101.068H337.206ZM354.744 101.068L356.422 99.9789L355.83 99.0679H354.744V101.068ZM373.309 129.666L371.632 130.755L375.309 136.42V129.666H373.309ZM373.309 101.068V99.0679H371.309V101.068H373.309ZM390.847 101.068H392.847V99.0679H390.847V101.068ZM390.847 155H373.309V159H390.847V155ZM374.978 155.898L356.413 127.774L353.075 129.978L371.64 158.102L374.978 155.898ZM352.744 128.876V157H356.744V128.876H352.744ZM354.744 155H337.206V159H354.744V155ZM339.206 157V101.068H335.206V157H339.206ZM337.206 103.068H354.744V99.0679H337.206V103.068ZM353.067 102.157L371.632 130.755L374.987 128.577L356.422 99.9789L353.067 102.157ZM375.309 129.666V101.068H371.309V129.666H375.309ZM373.309 103.068H390.847V99.0679H373.309V103.068ZM388.847 101.068V157H392.847V101.068H388.847ZM436.612 148.547L438.513 147.925L438.062 146.547H436.612V148.547ZM417.968 148.547V146.547H416.518L416.067 147.925L417.968 148.547ZM415.203 157V159H416.653L417.104 157.622L415.203 157ZM396.796 157L394.917 156.313L393.934 159H396.796V157ZM417.257 101.068V99.0679H415.859L415.378 100.381L417.257 101.068ZM437.481 101.068L439.36 100.383L438.881 99.0679H437.481V101.068ZM457.863 157V159H460.72L459.742 156.315L457.863 157ZM439.377 157L437.476 157.622L437.927 159H439.377V157ZM432.346 135.354V137.354H435.098L434.248 134.736L432.346 135.354ZM427.29 119.791L429.192 119.173L427.29 113.318L425.388 119.173L427.29 119.791ZM422.234 135.354L420.332 134.736L419.481 137.354H422.234V135.354ZM436.612 146.547H417.968V150.547H436.612V146.547ZM416.067 147.925L413.302 156.378L417.104 157.622L419.869 149.169L416.067 147.925ZM415.203 155H396.796V159H415.203V155ZM398.674 157.687L419.135 101.755L415.378 100.381L394.917 156.313L398.674 157.687ZM417.257 103.068H437.481V99.0679H417.257V103.068ZM435.602 101.753L455.984 157.685L459.742 156.315L439.36 100.383L435.602 101.753ZM457.863 155H439.377V159H457.863V155ZM441.278 156.378L438.513 147.925L434.711 149.169L437.476 157.622L441.278 156.378ZM434.248 134.736L429.192 119.173L425.388 120.409L430.444 135.972L434.248 134.736ZM425.388 119.173L420.332 134.736L424.136 135.972L429.192 120.409L425.388 119.173ZM422.234 137.354H432.346V133.354H422.234V137.354ZM507.746 101.068H509.746V99.0679H507.746V101.068ZM507.746 114.972V116.972H509.746V114.972H507.746ZM492.894 114.972V112.972H490.894V114.972H492.894ZM492.894 157V159H494.894V157H492.894ZM475.356 157H473.356V159H475.356V157ZM475.356 114.972H477.356V112.972H475.356V114.972ZM460.662 114.972H458.662V116.972H460.662V114.972ZM460.662 101.068V99.0679H458.662V101.068H460.662ZM505.746 101.068V114.972H509.746V101.068H505.746ZM507.746 112.972H492.894V116.972H507.746V112.972ZM490.894 114.972V157H494.894V114.972H490.894ZM492.894 155H475.356V159H492.894V155ZM477.356 157V114.972H473.356V157H477.356ZM475.356 112.972H460.662V116.972H475.356V112.972ZM462.662 114.972V101.068H458.662V114.972H462.662ZM460.662 103.068H507.746V99.0679H460.662V103.068ZM527.197 153.84L526.211 155.58L526.22 155.585L527.197 153.84ZM516.769 143.57L515.047 144.587L516.769 143.57ZM527.197 103.833L528.166 105.582L528.173 105.578L527.197 103.833ZM556.19 103.833L555.204 105.573L555.212 105.578L555.22 105.582L556.19 103.833ZM566.539 114.024L564.808 115.025L564.812 115.033L564.817 115.041L566.539 114.024ZM566.539 143.57L564.817 142.553L564.812 142.561L564.808 142.569L566.539 143.57ZM556.111 153.84L555.134 152.095L555.125 152.1L556.111 153.84ZM549.791 137.882L551.309 139.184L551.317 139.175L551.324 139.166L549.791 137.882ZM549.791 119.712L548.257 120.996L548.265 121.005L548.272 121.014L549.791 119.712ZM533.596 119.712L535.114 121.014L535.122 121.005L535.129 120.996L533.596 119.712ZM533.596 137.882L532.062 139.166L532.07 139.175L532.077 139.184L533.596 137.882ZM541.733 155.553C536.794 155.553 532.287 154.396 528.173 152.095L526.22 155.585C530.955 158.234 536.138 159.553 541.733 159.553V155.553ZM528.182 152.1C524.119 149.799 520.896 146.626 518.491 142.553L515.047 144.587C517.803 149.256 521.532 152.931 526.211 155.58L528.182 152.1ZM518.491 142.553C516.107 138.514 514.898 133.946 514.898 128.797H510.898C510.898 134.603 512.27 139.883 515.047 144.587L518.491 142.553ZM514.898 128.797C514.898 123.648 516.107 119.08 518.491 115.041L515.047 113.007C512.27 117.711 510.898 122.991 510.898 128.797H514.898ZM518.491 115.041C520.894 110.971 524.112 107.829 528.166 105.582L526.227 102.084C521.539 104.682 517.806 108.334 515.047 113.007L518.491 115.041ZM528.173 105.578C532.287 103.277 536.794 102.12 541.733 102.12V98.1199C536.138 98.1199 530.955 99.4386 526.22 102.088L528.173 105.578ZM541.733 102.12C546.672 102.12 551.148 103.277 555.204 105.573L557.175 102.093C552.489 99.4387 547.328 98.1199 541.733 98.1199V102.12ZM555.22 105.582C559.271 107.827 562.459 110.964 564.808 115.025L568.27 113.023C565.563 108.341 561.851 104.684 557.159 102.084L555.22 105.582ZM564.817 115.041C567.201 119.08 568.41 123.648 568.41 128.797H572.41C572.41 122.991 571.038 117.711 568.261 113.007L564.817 115.041ZM568.41 128.797C568.41 133.946 567.201 138.514 564.817 142.553L568.261 144.587C571.038 139.883 572.41 134.603 572.41 128.797H568.41ZM564.808 142.569C562.46 146.627 559.246 149.794 555.134 152.095L557.087 155.585C561.824 152.935 565.561 149.255 568.27 144.571L564.808 142.569ZM555.125 152.1C551.066 154.398 546.615 155.553 541.733 155.553V159.553C547.279 159.553 552.413 158.232 557.096 155.58L555.125 152.1ZM541.733 143.2C545.669 143.2 548.96 141.925 551.309 139.184L548.272 136.58C546.83 138.263 544.749 139.2 541.733 139.2V143.2ZM551.324 139.166C553.599 136.449 554.635 132.922 554.635 128.797H550.635C550.635 132.256 549.775 134.785 548.257 136.598L551.324 139.166ZM554.635 128.797C554.635 124.63 553.604 121.087 551.309 118.41L548.272 121.014C549.77 122.761 550.635 125.275 550.635 128.797H554.635ZM551.324 118.428C548.98 115.627 545.685 114.315 541.733 114.315V118.315C544.733 118.315 546.81 119.267 548.257 120.996L551.324 118.428ZM541.733 114.315C537.74 114.315 534.413 115.62 532.062 118.428L535.129 120.996C536.571 119.274 538.669 118.315 541.733 118.315V114.315ZM532.077 118.41C529.783 121.087 528.752 124.63 528.752 128.797H532.752C532.752 125.275 533.617 122.761 535.114 121.014L532.077 118.41ZM528.752 128.797C528.752 132.922 529.788 136.449 532.062 139.166L535.129 136.598C533.612 134.785 532.752 132.256 532.752 128.797H528.752ZM532.077 139.184C534.433 141.932 537.755 143.2 541.733 143.2V139.2C538.653 139.2 536.551 138.256 535.114 136.58L532.077 139.184ZM606.836 157L605.064 157.928L605.625 159H606.836V157ZM596.329 136.934L598.101 136.006L597.539 134.934H596.329V136.934ZM596.25 136.934V134.934H594.25V136.934H596.25ZM596.25 157V159H598.25V157H596.25ZM578.712 157H576.712V159H578.712V157ZM578.712 101.068V99.0679H576.712V101.068H578.712ZM616.395 103.517L615.489 105.3L615.5 105.306L615.512 105.312L616.395 103.517ZM623.584 110.074L621.843 111.059L621.854 111.079L621.866 111.098L623.584 110.074ZM622.873 129.35L621.255 128.174L621.248 128.183L621.241 128.193L622.873 129.35ZM613.946 135.591L613.329 133.689L610.994 134.446L612.207 136.579L613.946 135.591ZM626.112 157V159H629.549L627.851 156.012L626.112 157ZM596.25 125.242H594.25V127.242H596.25V125.242ZM606.994 124.136L608.311 125.641L608.337 125.619L608.362 125.595L606.994 124.136ZM606.915 117.026L605.501 118.44L605.522 118.462L605.544 118.482L606.915 117.026ZM596.25 115.762V113.762H594.25V115.762H596.25ZM608.608 156.072L598.101 136.006L594.557 137.862L605.064 157.928L608.608 156.072ZM596.329 134.934H596.25V138.934H596.329V134.934ZM594.25 136.934V157H598.25V136.934H594.25ZM596.25 155H578.712V159H596.25V155ZM580.712 157V101.068H576.712V157H580.712ZM578.712 103.068H604.782V99.0679H578.712V103.068ZM604.782 103.068C609.075 103.068 612.62 103.842 615.489 105.3L617.301 101.734C613.745 99.9267 609.547 99.0679 604.782 99.0679V103.068ZM615.512 105.312C618.408 106.736 620.484 108.658 621.843 111.059L625.324 109.089C623.524 105.908 620.807 103.458 617.277 101.722L615.512 105.312ZM621.866 111.098C623.297 113.499 624.033 116.247 624.033 119.396H628.033C628.033 115.593 627.135 112.126 625.302 109.05L621.866 111.098ZM624.033 119.396C624.033 122.732 623.102 125.635 621.255 128.174L624.49 130.526C626.857 127.272 628.033 123.538 628.033 119.396H624.033ZM621.241 128.193C619.473 130.686 616.882 132.536 613.329 133.689L614.563 137.493C618.804 136.118 622.164 133.807 624.504 130.507L621.241 128.193ZM612.207 136.579L624.373 157.988L627.851 156.012L615.685 134.603L612.207 136.579ZM626.112 155H606.836V159H626.112V155ZM596.25 127.242H603.202V123.242H596.25V127.242ZM603.202 127.242C605.135 127.242 606.958 126.825 608.311 125.641L605.677 122.631C605.344 122.922 604.639 123.242 603.202 123.242V127.242ZM608.362 125.595C609.751 124.292 610.258 122.454 610.258 120.502H606.258C606.258 121.815 605.922 122.4 605.626 122.677L608.362 125.595ZM610.258 120.502C610.258 118.595 609.661 116.865 608.285 115.57L605.544 118.482C605.959 118.873 606.258 119.46 606.258 120.502H610.258ZM608.329 115.612C606.99 114.273 605.164 113.762 603.202 113.762V117.762C604.505 117.762 605.154 118.094 605.501 118.44L608.329 115.612ZM603.202 113.762H596.25V117.762H603.202V113.762ZM594.25 115.762V125.242H598.25V115.762H594.25Z" fill="#E6D5B8"/>
</svg>
