<svg width="198" height="41" viewBox="0 0 198 41" fill="none" xmlns="http://www.w3.org/2000/svg">
<path d="M51.816 29.74C50.056 29.74 48.52 29.396 47.208 28.708C45.912 28.004 44.912 27.004 44.208 25.708C43.52 24.412 43.176 22.884 43.176 21.124C43.176 19.364 43.52 17.836 44.208 16.54C44.912 15.228 45.912 14.22 47.208 13.516C48.504 12.812 50.032 12.46 51.792 12.46C53.232 12.46 54.568 12.708 55.8 13.204C57.032 13.7 57.96 14.372 58.584 15.22C58.76 15.476 58.848 15.708 58.848 15.916C58.848 16.268 58.664 16.58 58.296 16.852C58.088 16.98 57.872 17.044 57.648 17.044C57.44 17.044 57.232 16.996 57.024 16.9C56.832 16.804 56.664 16.676 56.52 16.516C55.992 15.876 55.336 15.404 54.552 15.1C53.784 14.796 52.864 14.644 51.792 14.644C49.952 14.644 48.512 15.22 47.472 16.372C46.448 17.508 45.936 19.092 45.936 21.124C45.936 23.124 46.456 24.7 47.496 25.852C48.536 26.988 49.976 27.556 51.816 27.556C53.992 27.556 55.664 26.932 56.832 25.684C57.216 25.3 57.608 25.108 58.008 25.108C58.264 25.108 58.496 25.188 58.704 25.348C59.024 25.62 59.184 25.916 59.184 26.236C59.184 26.508 59.088 26.764 58.896 27.004C58.208 27.852 57.24 28.524 55.992 29.02C54.744 29.5 53.352 29.74 51.816 29.74ZM69.5441 29.74C68.0081 29.74 66.5601 29.476 65.2001 28.948C63.8561 28.42 62.7281 27.684 61.8161 26.74C61.6081 26.548 61.5041 26.316 61.5041 26.044C61.5041 25.708 61.6481 25.412 61.9361 25.156C62.1441 24.948 62.3761 24.844 62.6321 24.844C62.9681 24.844 63.3121 25.012 63.6641 25.348C64.3841 26.052 65.2481 26.596 66.2561 26.98C67.2801 27.348 68.3761 27.532 69.5441 27.532C70.7281 27.532 71.6401 27.324 72.2801 26.908C72.9361 26.492 73.2641 25.908 73.2641 25.156C73.2641 24.42 72.9281 23.828 72.2561 23.38C71.5841 22.916 70.4401 22.508 68.8241 22.156C66.4401 21.644 64.7121 20.972 63.6401 20.14C62.5681 19.292 62.0321 18.204 62.0321 16.876C62.0321 16.012 62.3041 15.244 62.8481 14.572C63.4081 13.9 64.1841 13.38 65.1761 13.012C66.1841 12.644 67.3441 12.46 68.6561 12.46C70.1281 12.46 71.4481 12.708 72.6161 13.204C73.8001 13.7 74.6721 14.388 75.2321 15.268C75.3921 15.524 75.4721 15.772 75.4721 16.012C75.4721 16.364 75.2961 16.66 74.9441 16.9C74.7361 17.028 74.5281 17.092 74.3201 17.092C74.1281 17.092 73.9361 17.044 73.7441 16.948C73.5521 16.852 73.3921 16.724 73.2641 16.564C72.8001 15.956 72.1601 15.492 71.3441 15.172C70.5441 14.836 69.6481 14.668 68.6561 14.668C67.4081 14.668 66.4481 14.86 65.7761 15.244C65.1201 15.612 64.7921 16.156 64.7921 16.876C64.7921 17.548 65.1121 18.1 65.7521 18.532C66.3921 18.948 67.5201 19.34 69.1361 19.708C71.5841 20.284 73.3441 20.996 74.4161 21.844C75.4881 22.692 76.0241 23.796 76.0241 25.156C76.0241 26.068 75.7521 26.876 75.2081 27.58C74.6801 28.268 73.9281 28.804 72.9521 29.188C71.9761 29.556 70.8401 29.74 69.5441 29.74ZM87.0191 29.74C85.2591 29.74 83.7231 29.396 82.4111 28.708C81.1151 28.004 80.1151 27.004 79.4111 25.708C78.7231 24.412 78.3791 22.884 78.3791 21.124C78.3791 19.364 78.7231 17.836 79.4111 16.54C80.1151 15.228 81.1151 14.22 82.4111 13.516C83.7071 12.812 85.2351 12.46 86.9951 12.46C88.4351 12.46 89.7711 12.708 91.0031 13.204C92.2351 13.7 93.1631 14.372 93.7871 15.22C93.9631 15.476 94.0511 15.708 94.0511 15.916C94.0511 16.268 93.8671 16.58 93.4991 16.852C93.2911 16.98 93.0751 17.044 92.8511 17.044C92.6431 17.044 92.4351 16.996 92.2271 16.9C92.0351 16.804 91.8671 16.676 91.7231 16.516C91.1951 15.876 90.5391 15.404 89.7551 15.1C88.9871 14.796 88.0671 14.644 86.9951 14.644C85.1551 14.644 83.7151 15.22 82.6751 16.372C81.6511 17.508 81.1391 19.092 81.1391 21.124C81.1391 23.124 81.6591 24.7 82.6991 25.852C83.7391 26.988 85.1791 27.556 87.0191 27.556C89.1951 27.556 90.8671 26.932 92.0351 25.684C92.4191 25.3 92.8111 25.108 93.2111 25.108C93.4671 25.108 93.6991 25.188 93.9071 25.348C94.2271 25.62 94.3871 25.916 94.3871 26.236C94.3871 26.508 94.2911 26.764 94.0991 27.004C93.4111 27.852 92.4431 28.524 91.1951 29.02C89.9471 29.5 88.5551 29.74 87.0191 29.74Z" fill="white"/>
<path d="M104.809 29.74C104.393 29.74 104.057 29.628 103.801 29.404C103.561 29.18 103.441 28.868 103.441 28.468V18.244C103.441 16.436 103.953 15.02 104.977 13.996C106.017 12.972 107.433 12.46 109.225 12.46C110.137 12.46 110.993 12.692 111.793 13.156C112.609 13.62 113.273 14.26 113.785 15.076C114.297 14.244 114.953 13.604 115.753 13.156C116.553 12.692 117.433 12.46 118.393 12.46C120.201 12.46 121.609 12.972 122.617 13.996C123.641 15.02 124.153 16.436 124.153 18.244V28.468C124.153 28.852 124.025 29.164 123.769 29.404C123.529 29.628 123.201 29.74 122.785 29.74C122.369 29.74 122.033 29.628 121.777 29.404C121.537 29.18 121.417 28.868 121.417 28.468V18.244C121.417 17.012 121.169 16.108 120.673 15.532C120.193 14.956 119.401 14.668 118.297 14.668C117.289 14.668 116.513 14.98 115.969 15.604C115.425 16.228 115.153 17.108 115.153 18.244V28.468C115.153 28.868 115.025 29.18 114.769 29.404C114.529 29.628 114.201 29.74 113.785 29.74C113.369 29.74 113.041 29.628 112.801 29.404C112.577 29.18 112.465 28.868 112.465 28.468V18.244C112.465 17.124 112.185 16.252 111.625 15.628C111.065 14.988 110.297 14.668 109.321 14.668C108.201 14.668 107.393 14.956 106.897 15.532C106.417 16.108 106.177 17.012 106.177 18.244V28.468C106.177 28.852 106.049 29.164 105.793 29.404C105.553 29.628 105.225 29.74 104.809 29.74ZM134.36 29.74C132.888 29.74 131.6 29.444 130.496 28.852C129.392 28.26 128.544 27.412 127.952 26.308C127.36 25.204 127.064 23.9 127.064 22.396V13.732C127.064 13.332 127.184 13.02 127.424 12.796C127.664 12.572 127.992 12.46 128.408 12.46C128.824 12.46 129.152 12.58 129.392 12.82C129.648 13.044 129.776 13.348 129.776 13.732V22.468C129.776 24.1 130.176 25.356 130.976 26.236C131.792 27.116 132.944 27.556 134.432 27.556C135.92 27.556 137.072 27.116 137.888 26.236C138.704 25.34 139.112 24.084 139.112 22.468V13.732C139.112 13.348 139.232 13.044 139.472 12.82C139.728 12.58 140.064 12.46 140.48 12.46C140.896 12.46 141.224 12.572 141.464 12.796C141.72 13.02 141.848 13.332 141.848 13.732V22.396C141.848 23.852 141.536 25.14 140.912 26.26C140.304 27.364 139.432 28.22 138.296 28.828C137.176 29.436 135.864 29.74 134.36 29.74ZM149.746 29.74C148.466 29.74 147.298 29.5 146.242 29.02C145.186 28.54 144.314 27.86 143.626 26.98C143.434 26.74 143.338 26.492 143.338 26.236C143.338 25.9 143.498 25.596 143.818 25.324C144.058 25.132 144.314 25.036 144.586 25.036C145.002 25.036 145.37 25.244 145.69 25.66C146.138 26.268 146.706 26.732 147.394 27.052C148.082 27.372 148.866 27.532 149.746 27.532C151.81 27.532 152.842 26.364 152.842 24.028V13.732C152.842 13.332 152.962 13.02 153.202 12.796C153.458 12.572 153.794 12.46 154.21 12.46C154.626 12.46 154.954 12.58 155.194 12.82C155.45 13.044 155.578 13.348 155.578 13.732V23.932C155.578 25.084 155.338 26.1 154.858 26.98C154.378 27.86 153.698 28.54 152.818 29.02C151.938 29.5 150.914 29.74 149.746 29.74Z" fill="#FF8C32"/>
</svg>
