<svg width="147" height="157" viewBox="0 0 147 157" fill="none" xmlns="http://www.w3.org/2000/svg">
<path d="M67.7433 9H73.7433V0.796869L65.9257 3.28195L67.7433 9ZM7.59916 28.1186L5.7815 22.4006C3.70196 23.0616 2.14524 24.7996 1.71625 26.9391L7.59916 28.1186ZM67.7433 148.407L70.7249 143.2L70.6825 143.176L70.6396 143.152L67.7433 148.407ZM73.7433 49.5375V9H61.7433V49.5375H73.7433ZM65.9257 3.28195L5.7815 22.4006L9.41682 33.8367L69.561 14.7181L65.9257 3.28195ZM1.71625 26.9391C-3.85546 54.7271 1.11563 118.534 64.8471 153.661L70.6396 143.152C12.9674 111.364 8.56506 53.821 13.4821 29.2982L1.71625 26.9391ZM64.7617 153.613C65.4791 154.024 66.5612 154.562 67.7596 155.015C68.837 155.422 70.6176 156 72.5171 156V144C72.7425 144 72.7969 144.032 72.6288 143.991C72.4837 143.956 72.2705 143.892 72.0015 143.79C71.4431 143.579 70.935 143.32 70.7249 143.2L64.7617 153.613Z" fill="#DDDDDD"/>
<path d="M86.625 146.615H80.625V156.069L89.1798 152.043L86.625 146.615ZM140.197 91.8475L146.08 93.0242C146.641 90.2191 145.144 87.4081 142.503 86.3085L140.197 91.8475ZM86.625 69.5424H80.625C80.625 71.9652 82.0821 74.1503 84.3188 75.0815L86.625 69.5424ZM86.625 9L88.6417 3.34907L80.625 0.488093V9H86.625ZM80.625 103.996V146.615H92.625V103.996H80.625ZM89.1798 152.043C96.8057 148.455 109.272 141.667 120.654 131.962C131.962 122.322 142.833 109.26 146.08 93.0242L134.313 90.6709C131.825 103.113 123.246 113.983 112.869 122.831C102.567 131.614 91.1152 137.87 84.0702 141.186L89.1798 152.043ZM142.503 86.3085L88.9312 64.0034L84.3188 75.0815L137.891 97.3866L142.503 86.3085ZM92.625 69.5424V9H80.625V69.5424H92.625ZM84.6083 14.6509L138.18 33.7696L142.214 22.4677L88.6417 3.34907L84.6083 14.6509Z" fill="#FF8C32"/>
<path d="M32.0703 78.5461C43.9565 63.7541 89.7741 53.9731 114.054 81.1565C74.3932 108.736 42.8728 90.9077 32.0703 78.5461Z" fill="#DDDDDD" stroke="#111827" stroke-width="3" stroke-linejoin="round"/>
<ellipse cx="74.6096" cy="79.2758" rx="11.5275" ry="10.8071" fill="#536162" stroke="#111827" stroke-width="3"/>
<ellipse cx="72.4087" cy="75.8181" rx="10.33" ry="6.44778" transform="rotate(-26.7918 72.4087 75.8181)" fill="#111111"/>
<circle cx="70.5511" cy="73.7698" r="1.96515" fill="#C06014"/>
</svg>
